<svg id="Layer_1" data-name="Layer 1" xmlns="http://www.w3.org/2000/svg" xmlns:xlink="http://www.w3.org/1999/xlink" viewBox="0 0 132.79 177"><defs><linearGradient id="linear-gradient" x1="-469.7" y1="521.48" x2="-458.76" y2="526.58" gradientTransform="translate(5199.36 -5671.11) scale(11)" gradientUnits="userSpaceOnUse"><stop offset="0" stop-color="#fff" stop-opacity="0.2"/><stop offset="1" stop-color="#fff" stop-opacity="0"/></linearGradient></defs><path d="M100,11.52a66.33,66.33,0,0,0-23.71,128.3L100,188.5l23.71-48.68A66.33,66.33,0,0,0,100,11.52Z" transform="translate(-33.61 -11.5)" style="fill:#ffdf00"/><path d="M123.7,138,100,186.66,76.28,138C52.8,129,36.51,108.4,34,83.83q-.3-3-.33-5.94a66.54,66.54,0,0,0,42.66,61.93L100,188.5l23.71-48.68a66.32,66.32,0,0,0,42.66-61.93,64.4,64.4,0,0,1-1.05,10.91c-4.08,22.35-19.73,40.8-41.61,49.18Z" transform="translate(-33.61 -11.5)" style="fill:#e94040;opacity:0.05000000074505806;isolation:isolate"/><path d="M100,13.36A67.43,67.43,0,0,1,161.32,52.5a66.37,66.37,0,0,0-122.65,0A67.41,67.41,0,0,1,100,13.36Z" transform="translate(-33.61 -11.5)" style="fill:#c82828;opacity:0.20000000298023224;isolation:isolate"/><circle cx="66.39" cy="66.39" r="36.87"/><path d="M100,11.52a66.33,66.33,0,0,0-23.71,128.3L100,188.5l23.71-48.68A66.33,66.33,0,0,0,100,11.52Z" transform="translate(-33.61 -11.5)" style="fill:url(#linear-gradient)"/></svg>