<svg id="Layer_1" data-name="Layer 1" xmlns="http://www.w3.org/2000/svg" viewBox="0 0 976.78 644.37"><g id="background"><path d="M57.12,299.62A675.81,675.81,0,0,1,167,257.49c9.52-2.72,19.23-5.3,29.16-6.32,10.26-1,20.45.06,30.58,1.9a512.21,512.21,0,0,1,57.69,14.47c21.55,6.6,42.75,14.14,63.88,21.68,1.23.41,1.77-1.49.55-2-38.6-13.73-77.47-27.52-117.77-35.4-9.38-1.84-19-3.33-28.55-3.06s-19.3,2.24-28.61,4.69c-19.09,5-38,11.28-56.54,18.14Q86.1,283.25,56.16,297.85c-1.22.55-.2,2.31,1,1.77Z" transform="translate(-55.61 -21.82)" style="fill:#e8e8e8"/><path d="M248.89,256.94c27.46-7.4,55.52-12.37,83.66-16.58,13.86-2,27.72-3.94,41.65-5.84,14.28-1.91,28.62-3.67,43.09-3.81,51.72-.41,100.92,18.08,150.39,30.45,27.45,6.86,55.52,12,83.93,11.21a1,1,0,0,0,0-2c-52.19,1.36-101.8-16.92-151.68-29.63-24.4-6.18-49.2-11.21-74.42-12-27.59-.81-55.18,4.15-82.43,8-31.87,4.55-63.61,9.79-94.73,18.21-1.23.48-.68,2.45.54,2Z" transform="translate(-55.61 -21.82)" style="fill:#e8e8e8"/><path d="M567.27,288.75a345.46,345.46,0,0,0,82.43-4.49c27.12-4.76,54-15.15,81.89-13.11,1.29.06,1.29-2,0-2-27.25-2-53.41,7.81-79.85,12.71a342.32,342.32,0,0,1-84.47,4.89c-1.29-.07-1.29,2,0,2Z" transform="translate(-55.61 -21.82)" style="fill:#e8e8e8"/><path d="M168.43,261.43c-5.91,8.09-3.74,19.16,2.11,26.64,7,9,18.62,12.77,29,16.31,6.12,2.1,12.3,4.21,17.81,7.54a38.11,38.11,0,0,1,7.47,5.71c1.57,1.63,3.06,3.33,2.72,5.84-.27,2-2.51,3.81-3.94,5-5.3,4.69-10.67,9.24-16,13.87-3.8,3.26-8.42,6.93-8.9,12.3-.81,9.37,10.6,13.45,17.87,15.22A431.51,431.51,0,0,0,259,378c28.27,4,56.81,5.77,85.35,7.13,29.16,1.36,58.38,2.31,87.53,4.83,7.07.61,14.2,1.29,21.27,2.17,4.89.61,14.2,2.52,13.25,9.24-.81,5.58-8.83,9-12.84,12.24a101.58,101.58,0,0,0-24.67,28.13c-2.31,3.94-4.69,8.9-3.4,13.59,1.23,4.28,5.3,5.91,9.31,6.32,6.87.68,14,.21,20.87,0,28.81-.95,57.42-5.1,86.1-7.27a368.91,368.91,0,0,1,43.36-1c13.38.61,27.59,1.63,40.36,5.78,5.17,1.63,10.6,4.14,14.21,8.36,4.41,5.16,4.14,11.82.54,17.39-3.47,5.37-8.9,9.45-13.8,13.53-5.77,4.75-11.69,9.37-17.73,13.79-5.64,4.08-11.35,8-17.2,11.76-1.08.68-.06,2.44,1,1.77a380.68,380.68,0,0,0,33.85-24.67c7.88-6.46,20.25-15,18.55-26.85-1.36-9.17-10.54-14.2-18.49-16.85-12.3-4.08-26-5.16-38.8-5.84-29.09-1.57-58.1,1.83-87,4.75-14.34,1.43-28.67,2.79-43.08,3.33-7.07.27-14.27.55-21.34.14-3.47-.21-7.34-1-8.7-4.62-1.22-3.4.41-7.41,2-10.47,6.05-11.48,15.22-21.61,25.35-29.56,5.44-4.28,20-12.23,10.74-20.52-3.06-2.72-7.48-3.81-11.49-4.35-7.2-.95-14.47-1.63-21.68-2.24-14.4-1.3-28.88-2.11-43.35-2.86-29.36-1.49-58.79-2.31-88.14-4.62-28.75-2.24-58.11-5.44-86-13.12-4.82-1.36-11.14-3.6-13.52-8.49-3.33-6.93,4.48-12.44,9-16.38,5.3-4.62,11.14-9,16.1-14,3.27-3.33,4.15-7.07,1.16-10.87-7.27-9-19.64-12.57-30.17-16.17-11.69-4-25.08-9.38-29.43-22.16-2-5.78-1.63-12,2-17,.81-.95-.95-2-1.7-.88Z" transform="translate(-55.61 -21.82)" style="fill:#e8e8e8"/><path d="M206.35,250.83c-5.91,8.08-3.74,19.16,2.11,26.64,7,9,18.62,12.77,29,16.31,6.12,2.1,12.3,4.21,17.81,7.54a38.11,38.11,0,0,1,7.47,5.71c1.57,1.63,3.06,3.33,2.72,5.84-.27,2-2.51,3.81-3.94,5-5.3,4.69-10.67,9.24-16,13.86-3.8,3.27-8.42,6.94-8.9,12.3-.81,9.38,10.6,13.46,17.87,15.23a428.57,428.57,0,0,0,42.48,8.08c28.27,4,56.81,5.78,85.35,7.14,29.16,1.36,58.38,2.31,87.53,4.82,7.07.62,14.2,1.3,21.27,2.18,4.89.61,14.21,2.51,13.25,9.24-.81,5.57-8.83,9-12.84,12.23a102.73,102.73,0,0,0-13.93,13.26,101.2,101.2,0,0,0-10.74,14.88c-2.31,3.94-4.69,8.9-3.4,13.59,1.23,4.28,5.3,5.91,9.31,6.32,6.87.68,14,.2,20.87,0,28.81-.95,57.42-5.1,86.1-7.27a368.91,368.91,0,0,1,43.36-1c13.38.61,27.59,1.63,40.36,5.78,5.17,1.63,10.6,4.14,14.21,8.35,4.41,5.17,4.14,11.83.54,17.4-3.47,5.37-8.9,9.45-13.8,13.52-5.77,4.76-11.69,9.38-17.73,13.8-5.64,4.08-11.35,8-17.2,11.76-1.08.68-.06,2.44,1,1.76a378.59,378.59,0,0,0,33.85-24.66c7.88-6.46,20.25-15,18.55-26.85-1.36-9.17-10.54-14.2-18.49-16.85-12.3-4.08-26-5.17-38.8-5.85-29.09-1.56-58.1,1.84-87,4.76-14.33,1.43-28.67,2.79-43.08,3.33-7.07.27-14.27.54-21.34.14-3.47-.21-7.34-.95-8.7-4.62-1.22-3.4.41-7.41,2-10.47,6.05-11.48,15.23-21.61,25.35-29.56,5.44-4.28,20-12.23,10.74-20.52-3.06-2.72-7.48-3.81-11.49-4.35-7.2-1-14.47-1.63-21.68-2.25-14.4-1.29-28.88-2.1-43.35-2.85-29.36-1.5-58.79-2.31-88.14-4.62-28.75-2.24-58.11-5.44-86-13.12-4.82-1.36-11.14-3.6-13.52-8.49-3.33-6.93,4.48-12.44,9-16.38,5.3-4.62,11.14-9,16.1-14,3.27-3.33,4.15-7.07,1.16-10.87-7.27-9-19.64-12.57-30.17-16.18-11.69-4-25.08-9.37-29.43-22.15-2-5.78-1.63-12,2-17,.88-.88-.88-1.9-1.7-.88Z" transform="translate(-55.61 -21.82)" style="fill:#e8e8e8"/><path d="M89.26,562.34c46.28-14.4,95.75-23.17,143.8-13.11a179.36,179.36,0,0,1,38.19,12.57c1.15.54,2.24-1.22,1-1.77C228,539.58,177.81,539.51,130.78,549.3c-14.2,2.92-28.27,6.79-42.13,11.07-1.16.41-.61,2.38.61,2Z" transform="translate(-55.61 -21.82)" style="fill:#e8e8e8"/><path d="M446.78,339.65c10.81,1.42,21-4.22,31.74-4.56,11.62-.4,23,2.93,34.05,6.19a1,1,0,0,0,.54-2c-10.81-3.2-21.95-6.46-33.3-6.25-11.14.13-21.81,6-33,4.62-1.36-.28-1.36,1.76-.07,2Z" transform="translate(-55.61 -21.82)" style="fill:#e8e8e8"/><path d="M505.09,334.35a83.78,83.78,0,0,1,51.65-.48c1.22.41,1.77-1.56.54-2a85.22,85.22,0,0,0-52.73.48c-1.23.4-.68,2.37.54,2Z" transform="translate(-55.61 -21.82)" style="fill:#e8e8e8"/><path d="M208.86,461.83a21.24,21.24,0,0,0,9.93-.88,1,1,0,0,0,.68-1.22c-.55-3.06-1.09-6.12-1.64-9.18-.47.41-1,.75-1.49,1.16a3.77,3.77,0,0,0,5.23-1.09c2.31-3-.61-6.39.14-9.58,1.63-6.93,10.4,1.5,12.5,3.67a41.58,41.58,0,0,1,7.61,10.87c.62,1.16,2.31.14,1.77-1-3.26-6.59-8.9-14.54-16-17.53-2.24-.95-5-1.22-6.79.75a5.07,5.07,0,0,0-1.23,3.53,11.5,11.5,0,0,0,.21,2.18,12.44,12.44,0,0,0,.34,1.56c.88,2.24,0,3.87-2.79,4.82-.81-.54-1.63.34-1.49,1.16q.81,4.59,1.63,9.17c.2-.4.47-.81.68-1.22a17.76,17.76,0,0,1-8.84.88c-1.15-.13-1.76,1.84-.41,2Z" transform="translate(-55.61 -21.82)" style="fill:#e8e8e8"/><path d="M616.34,384.5c.75-1.77,1.42-3.53,2.24-5.23a4.41,4.41,0,0,1,5.84-2.38c2.86,1,5.24,2.17,8.3,1.15,2.78-1,5-3.19,6.93-5.23a16.76,16.76,0,0,1,4.75-3.74c2.45-1.08,7.62-.4,6.53,3.67a1,1,0,0,0,2,.55c.88-3.4-1.77-6.26-5.1-6.8-4.08-.68-7.34,2.65-10,5.3-2.85,2.86-5.84,5.64-10.19,4.28-1.84-.61-3.6-1.76-5.57-1.83-4.83-.21-6,5.84-7.48,9.31-.47,1.15,1.22,2.17,1.77.95Z" transform="translate(-55.61 -21.82)" style="fill:#e8e8e8"/><path d="M858.06,284.26q67.38,12.64,135.31,22.09c12.7,1.77,25.34,3.4,38.05,5,1.29.13,1.29-1.91,0-2q-67.58-8.46-134.62-20.12c-12.71-2.24-25.49-4.55-38.19-6.93-1.29-.2-1.84,1.7-.55,2Z" transform="translate(-55.61 -21.82)" style="fill:#e8e8e8"/><path d="M516.37,586.47c16.92,8.36,35.27,1.43,52.67-1.22,10.26-1.57,20.39-.55,30.58.74,10.4,1.29,20.86,2.59,31.26,3.94,1.29.14,1.29-1.9,0-2l-29.29-3.67c-9.65-1.23-19.37-2.52-29.08-1.43-18.15,2-37.52,10.67-55.12,2-1.15-.61-2.24,1.16-1,1.7Z" transform="translate(-55.61 -21.82)" style="fill:#e8e8e8"/><path d="M314.33,529.11c6.87,6.87,9.79,16.45,6.66,25.76-.81,2.51,3.13,3.53,3.95,1.09,3.53-10.67.13-22-7.75-29.7-1.84-1.9-4.69,1-2.86,2.85Z" transform="translate(-55.61 -21.82)" style="fill:#e8e8e8"/><path d="M321.2,556.91c2.38,5.84,7.81,9.51,13.86,10.6,1.29.2,1.84-1.77.55-2-5.31-.95-10.33-4-12.44-9.18-.48-1.22-2.45-.68-2,.55Z" transform="translate(-55.61 -21.82)" style="fill:#e8e8e8"/><path d="M335.27,565.54c-4.15.07-10.2-.55-14,1.56-3.06,1.77-4.15,5.71-4.49,9-.88,7.88,5.3,13.66,13.12,12.23,1.29-.2.74-2.17-.55-2-7,1.29-11.62-4.48-10.39-11.14.61-3.2,1.76-6.25,5.23-7s7.47-.61,11.08-.68c1.29.07,1.29-2,0-2Z" transform="translate(-55.61 -21.82)" style="fill:#e8e8e8"/><path d="M328.81,586.61c-4.15.33-9.72,2.51-8.84,7.54.75,4.42,4.22,8.9,6.66,12.5a52.51,52.51,0,0,0,7.21,8.29c9.1,8.57,19.84,14.68,29.83,22a110.48,110.48,0,0,1,24.4,25.55c.75,1.09,2.51.07,1.77-1C381.75,650,371.89,639.61,360,632c-10.6-6.8-22.49-14.34-30.24-24.4a65.65,65.65,0,0,1-4.55-6.93c-1.23-2-2.92-4.35-3.26-6.73-.55-3.67,3.87-5,6.86-5.23,1.29-.2,1.36-2.24,0-2.1Z" transform="translate(-55.61 -21.82)" style="fill:#e8e8e8"/><path d="M315.56,527.28c21.13,8.15,41.86,17.12,57.76,33.77,14.68,15.43,24.13,35,28.75,55.73a163.13,163.13,0,0,1,3,19.71c.34,3.33.54,6.72.68,10,.07,1.5.07,2.93.13,4.42,0,.34-.06,6.8-.54,6.46-1.09-.75-2.11,1-1,1.76,3.74,2.52,3.67-4.75,3.67-6.32a182.42,182.42,0,0,0-1.22-20.11,144.63,144.63,0,0,0-9.38-38.13C389,574,374.61,556,355.86,543.93c-12.3-7.95-26.1-13.32-39.69-18.55-1.29-.55-1.84,1.42-.61,1.9Z" transform="translate(-55.61 -21.82)" style="fill:#e8e8e8"/><path d="M321.88,534.48c29.7,25.89,54,58.31,68.57,95A218.06,218.06,0,0,1,400,660c.27,1.29,2.24.75,2-.54-9-37.72-28-72.58-53.62-101.6a259.86,259.86,0,0,0-25.08-24.81c-.95-.88-2.37.62-1.42,1.43Z" transform="translate(-55.61 -21.82)" style="fill:#e8e8e8"/><path d="M323,555.89a115.36,115.36,0,0,1,22.3,6.73c1.22.47,1.76-1.5.54-2a116.54,116.54,0,0,0-22.29-6.73c-1.29-.27-1.84,1.7-.55,2Z" transform="translate(-55.61 -21.82)" style="fill:#e8e8e8"/><path d="M352.46,562.21a45.52,45.52,0,0,1,8-13.12c.88-1-.55-2.44-1.43-1.42a47,47,0,0,0-8.56,14c-.41,1.23,1.56,1.77,2,.55Z" transform="translate(-55.61 -21.82)" style="fill:#e8e8e8"/><path d="M393.37,524.29c10.67,24.46,22.36,53.14,8.09,78.69a1,1,0,0,0,1.76,1c14.68-26.3,2.92-55.59-8.08-80.73-.55-1.16-2.31-.14-1.77,1Z" transform="translate(-55.61 -21.82)" style="fill:#e8e8e8"/><path d="M395.2,522.52c6.19,2.31,17.06,6.25,15.5,14.82-.21,1.29,1.7,1.83,2,.54,1.83-9.92-9.52-14.48-16.85-17.33a1,1,0,0,0-.62,2Z" transform="translate(-55.61 -21.82)" style="fill:#e8e8e8"/><path d="M412.26,538.29c3.47-2.92,7.95.2,9.86,3.4a10.68,10.68,0,0,1,.54,9.92c-.54,1.22,1.22,2.24,1.77,1a13,13,0,0,0-1.84-13.8c-2.92-3.46-7.95-5.1-11.76-2-1,.82.48,2.24,1.43,1.43Z" transform="translate(-55.61 -21.82)" style="fill:#e8e8e8"/><path d="M422.59,554.33c5.64-.62,8.7,4.89,11.08,9.17A113.09,113.09,0,0,1,440.46,578a100.91,100.91,0,0,1,6.39,30.31c.95,18.35-3.33,37.45-17.94,49.75-1,.88.48,2.31,1.43,1.42,15.9-13.45,20-34.86,18.28-54.7a106,106,0,0,0-8.36-32.55C438,567.1,435.5,561.6,432,557.11c-2.38-3-5.51-5.23-9.45-4.76-1.29.07-1.29,2.11,0,2Z" transform="translate(-55.61 -21.82)" style="fill:#e8e8e8"/><path d="M397,525.51c13.93,19.44,25.89,41,30.24,64.83a95.44,95.44,0,0,1,.07,35.14,88.34,88.34,0,0,1-4.76,16.17,73.37,73.37,0,0,1-3.8,8c-1.36,2.45-3.2,7.2-6.12,8a1,1,0,0,0,.54,2c3.47-.88,5.17-5,6.8-7.88A79,79,0,0,0,425.78,639,90,90,0,0,0,431,611.21c.61-19.71-5-38.94-13.66-56.55a212.72,212.72,0,0,0-18.48-30.3c-.82-1-2.59.06-1.77,1.15Z" transform="translate(-55.61 -21.82)" style="fill:#e8e8e8"/><path d="M445.42,587.08c.34-1.15.68-2.38,1-3.53.21-.75.55-2.93,1-3.54,1.57-2,6.6-.61,8.77-.34.95.07,1.29-1.15.75-1.76-2.25-2.31-4.83-5.51-3.6-8.91s6.38-4.75,8.42-1.36c.55-.4,1.09-.81,1.63-1.22-1.49-1.83-3.12-4.21-2.92-6.73.27-3.19,3.47-5.23,6.52-4.82a1,1,0,0,0,1.16-1.5c-3.19-6.52,2.45-13.72,4.55-19.77a51.32,51.32,0,0,0,2.72-19.23c-.07-1.29-2.1-1.29-2,0a51.46,51.46,0,0,1-4.82,24c-2.38,5.1-4.83,10.47-2.18,16,.41-.47.75-1,1.16-1.49-3.47-.48-7.2,1-8.63,4.48-1.56,3.81.61,7.61,3,10.47.75.88,2.17-.27,1.63-1.22-2.18-3.67-7.68-3.74-10.53-.82-4.22,4.35-.82,10.06,2.58,13.52.27-.61.47-1.15.75-1.76-2.45-.28-7.62-1.91-9.72,0s-2.45,6.52-3.13,9a1,1,0,1,0,1.9.54Z" transform="translate(-55.61 -21.82)" style="fill:#e8e8e8"/><path d="M473.76,516.47c4.83,10.13,7.07,21.07,9.24,32,2.25,11.69,4.56,23.45,4.63,35.41,0,18.89-6.8,37-18.22,51.92a103.24,103.24,0,0,1-24.53,22.9c-1.09.75-.07,2.51,1,1.76,16.17-10.87,29.56-26,37.17-44a83.05,83.05,0,0,0,6.46-26.84c.81-12-1.16-24.06-3.4-35.89-2.45-13-4.82-26.16-10.53-38.26a1.05,1.05,0,0,0-1.84,1Z" transform="translate(-55.61 -21.82)" style="fill:#e8e8e8"/><path d="M475.73,524.63a202.31,202.31,0,0,1-7.81,71.29,208.8,208.8,0,0,1-13.53,34.25c-5.16,10.26-10.87,23.1-20.93,29.42-1.08.68-.06,2.45,1,1.77,7.48-4.76,12-12.44,16.25-20a214.53,214.53,0,0,0,12.64-26.3,206.57,206.57,0,0,0,13.93-57,196.38,196.38,0,0,0,.4-33.43c-.06-1.29-2.1-1.29-2,0Z" transform="translate(-55.61 -21.82)" style="fill:#e8e8e8"/><path d="M782.36,639.07a98.39,98.39,0,0,1,12.71-56.2,12.86,12.86,0,0,1-1.43.34c1.29.61,2.51,1.29,3.8,1.9a1,1,0,0,0,1.5-1.16,9,9,0,0,1,.34-4.82c-.41.2-.82.48-1.22.68l3.6,1a1,1,0,0,0,1.22-1.22c-1-4,2.92-6.94,5.64-9.18a79.37,79.37,0,0,0,7.41-6.93,74.37,74.37,0,0,0,11.21-15.83h-1.76a56.55,56.55,0,0,1-2.86,49.88c-4.55,8-11.21,13.66-17.94,19.7-6.93,6.19-12.3,13.32-15.49,22.09-.48,1.22,1.49,1.77,2,.54,3.87-10.6,11.14-17.8,19.43-25.07,6.73-5.91,12.37-12.44,16.11-20.66a58.72,58.72,0,0,0,.61-47.5,1,1,0,0,0-1.77,0A72.41,72.41,0,0,1,810.56,566c-4.08,3.74-11.08,7.62-9.58,14.14l1.22-1.22-3.6-1a1,1,0,0,0-1.22.68,11.28,11.28,0,0,0-.34,5.84c.47-.41,1-.75,1.49-1.15-1.29-.62-2.51-1.3-3.8-1.91a1.1,1.1,0,0,0-1.43.34,100.21,100.21,0,0,0-13,57.22c.07,1.43,2.11,1.43,2,.14Z" transform="translate(-55.61 -21.82)" style="fill:#e8e8e8"/><path d="M832.58,572.74a93.54,93.54,0,0,0,11.48-13.93l-1.63.2a35.92,35.92,0,0,1,8,29.5,39.67,39.67,0,0,1-1.83,6.66,19.06,19.06,0,0,1-2,4.21c-.89,1.36-1.57,1.56-3.06,2.11-1,.34-2,.27-2.51,1.42-.21.41,0,.62,0,1a10.91,10.91,0,0,1,1,3.61,7.91,7.91,0,0,1-.06,2.17l1-1c-4.56.21-4.15,4.69-5.92,7.75-2.44,4.21-8.49,5.37-12.64,7.2a73.88,73.88,0,0,0-24.53,17.81c-.88.95.54,2.44,1.43,1.42a72.39,72.39,0,0,1,23.1-17c3.61-1.63,7.62-2.65,11-4.9a10.68,10.68,0,0,0,3-2.78c1.35-1.91,1.83-7.41,4.62-7.55a1,1,0,0,0,1-1,15.43,15.43,0,0,0-.14-3.46c-.34-1.7-1.16-2.11.54-2.79s2.52-.74,3.61-2.58a35.34,35.34,0,0,0,4.75-14.47,38,38,0,0,0-8.9-28.75,1.07,1.07,0,0,0-1.63.2,92.53,92.53,0,0,1-11.15,13.53c-.81,1,.62,2.44,1.5,1.49Z" transform="translate(-55.61 -21.82)" style="fill:#e8e8e8"/><path d="M821.23,566.22c-.68,6.18-5.3,12.23-8.56,17.39s-6.87,10.13-10.33,15.16c-6.73,9.79-13.19,19.71-17.47,30.85-.47,1.23,1.5,1.77,2,.55,4.62-12,11.9-22.63,19.17-33.17,3.46-5,6.93-10.06,10.19-15.22,2.92-4.76,6.39-9.85,7-15.56.27-1.29-1.77-1.29-2,0Z" transform="translate(-55.61 -21.82)" style="fill:#e8e8e8"/><path d="M805.19,571.79a28.63,28.63,0,0,0,2.11,14.07c.47,1.22,2.44.68,2-.55a27.77,27.77,0,0,1-2-13.52c.07-1.29-2-1.29-2.11,0Z" transform="translate(-55.61 -21.82)" style="fill:#e8e8e8"/><path d="M802.41,602.51a21.57,21.57,0,0,0,12.36-1.63c1.23-.55.14-2.31-1-1.77A18.83,18.83,0,0,1,803,600.54c-1.29-.14-1.91,1.76-.61,2Z" transform="translate(-55.61 -21.82)" style="fill:#e8e8e8"/><path d="M576.17,660.14H952.32c3.94,0,3.94-6.12,0-6.12H576.17c-3.94,0-3.94,6.12,0,6.12Z" transform="translate(-55.61 -21.82)" style="fill:#161616"/><path d="M830.2,648.72h95.89c3.94,0,3.94-6.12,0-6.12H830.2c-3.94,0-3.94,6.12,0,6.12Z" transform="translate(-55.61 -21.82)" style="fill:#161616"/><path d="M535.2,659.32h25.41c3.94,0,3.94-6.12,0-6.12H535.2c-4,0-4,6.12,0,6.12Z" transform="translate(-55.61 -21.82)" style="fill:#161616"/><path d="M502.44,660.14h10.67c3.94,0,3.94-6.12,0-6.12H502.44c-3.94,0-3.94,6.12,0,6.12Z" transform="translate(-55.61 -21.82)" style="fill:#161616"/><path d="M940.83,647h25.42c3.94,0,3.94-6.12,0-6.12H940.83c-3.94,0-3.94,6.12,0,6.12Z" transform="translate(-55.61 -21.82)" style="fill:#161616"/><path d="M981,646.2h11.48c3.94,0,3.94-6.11,0-6.11H981c-3.94,0-3.94,6.11,0,6.11Z" transform="translate(-55.61 -21.82)" style="fill:#161616"/><path d="M227.89,666.18H373.46c3.94,0,3.94-6.11,0-6.11H227.89c-3.94,0-3.94,6.11,0,6.11Z" transform="translate(-55.61 -21.82)" style="fill:#161616"/><path d="M182.7,648.65h48.93c3.94,0,3.94-6.12,0-6.12H182.7c-3.94,0-3.94,6.12,0,6.12Z" transform="translate(-55.61 -21.82)" style="fill:#161616"/><path d="M251.75,652.39h16.31c3.94,0,3.94-6.12,0-6.12H251.75c-3.95,0-3.95,6.12,0,6.12Z" transform="translate(-55.61 -21.82)" style="fill:#161616"/><path d="M375.29,199.79a96.43,96.43,0,0,1,10.54-16.11c2.44-3.05-1.84-7.4-4.35-4.34A104.51,104.51,0,0,0,370,196.66c-1.83,3.47,3.47,6.6,5.3,3.13Z" transform="translate(-55.61 -21.82)" style="fill:#161616"/><path d="M404.24,157.86a34,34,0,0,1,8.23-12c2.85-2.72-1.43-7-4.35-4.35a39.71,39.71,0,0,0-9.86,14.61c-1.36,3.74,4.56,5.3,6,1.7Z" transform="translate(-55.61 -21.82)" style="fill:#161616"/><path d="M430.34,119.26l12.23-14.47c2.51-3-1.77-7.34-4.35-4.35L426,114.91c-2.45,3.06,1.83,7.41,4.35,4.35Z" transform="translate(-55.61 -21.82)" style="fill:#161616"/><path d="M465.88,74.75c5.64-4.76,11.21-9.52,16.85-14.2,3-2.52-1.36-6.87-4.35-4.35-5.64,4.75-11.21,9.51-16.85,14.2-3,2.58,1.36,6.86,4.35,4.35Z" transform="translate(-55.61 -21.82)" style="fill:#161616"/><path d="M516.64,40.84a29.7,29.7,0,0,1,12.64-1.77c4,.27,4-5.84,0-6.12a35.17,35.17,0,0,0-14.27,2c-3.67,1.29-2.1,7.2,1.63,5.91Z" transform="translate(-55.61 -21.82)" style="fill:#161616"/><path d="M562.18,40.84a12.12,12.12,0,0,1,6.45,7c1.29,3.74,7.2,2.1,5.91-1.63a18.14,18.14,0,0,0-9.24-10.67,3.22,3.22,0,0,0-4.21,1.08,3.07,3.07,0,0,0,1.09,4.22Z" transform="translate(-55.61 -21.82)" style="fill:#161616"/><path d="M343.9,149.84c-1.84-4.76-6-15.49-11.22-15.36-7.27.14-14.61,20.66-14.81,38.47-.21,18.82,7.68,35.54,12.43,45.53,2.25,4.76,4.35,8.56,5.92,11.21C345.46,208.83,354.63,177.77,343.9,149.84Zm-6.66,16.52c-2.25,2-5.51,2.71-7.82.54a5.77,5.77,0,0,1-1.29-1.77,7.22,7.22,0,0,1,.95-9.58,5.57,5.57,0,0,1,6.8-.54,5.67,5.67,0,0,1,2.44,2.31,6.58,6.58,0,0,1,.68,2A7,7,0,0,1,337.24,166.36Z" transform="translate(-55.61 -21.82)" style="fill:#f87774"/><path d="M338.39,136.39c10.67,10.46,12.37,27.38,12.23,41.59a108.57,108.57,0,0,1-11,46.14c-.54,1.15,1.16,2.17,1.77,1a110.41,110.41,0,0,0,11.28-48.39c0-14.4-2-31.19-12.84-41.86-.89-.88-2.38.54-1.43,1.5Z" transform="translate(-55.61 -21.82)" style="fill:#bc5b5b"/><path d="M330.51,155.62a8.08,8.08,0,0,0,2.58,11.89,1,1,0,0,0,1-1.77,5.93,5.93,0,0,1-1.83-9c.74-1.09-1-2.11-1.77-1.09Z" transform="translate(-55.61 -21.82)" style="fill:#bc5b5b"/></g><g id="legs"><g id="Layer_18" data-name="Layer 18"><path d="M703.6,599.72c-1.3,4.69,1.42,6.52-.34,11.89-.75,2.18-2.32,5.37-10.81,11.9A110.89,110.89,0,0,1,676,634c-10.94,5.71-15.29,6.12-17.8,11.15-.34.68-2.85,5.77-.68,9.1,3,4.56,12.1,1.09,31.12-.34,16.65-1.22,18,.75,30.72-1a112.27,112.27,0,0,0,26.23-7,85.14,85.14,0,0,0-3.46-28.67c-2.93-9.38-5.58-11.42-8-22.7-1-4.42-1-6.25-2.79-7.68C725,581.78,706.52,589.12,703.6,599.72Z" transform="translate(-55.61 -21.82)" style="fill:#161616"/><path d="M710.53,600.13c1.08,1.63,9.24,13.93,4.41,23.31-2.92,5.64-9.51,8.15-19.16,11.75-7.75,2.93-8.77,2-14.27,4.42-10.26,4.62-19.3,13.73-17.81,16.65,1.36,2.72,10.54-2,31.47-2.78,9.17-.34,10.4.4,17.53,0a103.26,103.26,0,0,0,32.76-7.68,77.83,77.83,0,0,0-.89-17.54,63.39,63.39,0,0,0-5-17.53,49.88,49.88,0,0,1-3.19-7.88,59.91,59.91,0,0,1-1.63-7.14C726.63,597.14,718.55,598.63,710.53,600.13Z" transform="translate(-55.61 -21.82)" style="fill:#6c6d6d;opacity:0.3799999952316284;isolation:isolate"/><path d="M711.55,599.52A96.68,96.68,0,0,0,731,602.64c1.7.07,3.4.14,5,.14-.54-2.38-1.15-4.76-1.7-7.14Z" transform="translate(-55.61 -21.82)" style="fill:#6c6d6d;opacity:0.25999999046325684;isolation:isolate"/></g><path d="M802.61,355.41c-1.84,12.71-10.74,19-28.41,42.61a413.2,413.2,0,0,0-35.4,56.27,182.86,182.86,0,0,0-13.93,49.47c-5.44,41,4.68,74.35,11.62,92-12.1,2-24.2,4.15-36.29,6.19-9.79-23.38-19.91-56.34-20.05-96.16-.14-42.14,10.74-74,30.78-128.38a954.44,954.44,0,0,1,41.39-95.82C798,316.13,804.85,340,802.61,355.41Z" transform="translate(-55.61 -21.82)" style="fill:#ec615b"/><g id="Layer_19" data-name="Layer 19"><path d="M874.51,588.85c-1.29,4.69,1.43,6.52-.34,11.89-.75,2.17-2.31,5.37-10.81,11.89a110.49,110.49,0,0,1-16.44,10.47c-10.94,5.71-15.29,6.11-17.81,11.14-.34.68-2.85,5.78-.68,9.11,3,4.55,12.1,1.09,31.13-.34,16.65-1.22,18,.75,30.71-1a112.38,112.38,0,0,0,26.24-7A85.46,85.46,0,0,0,913,606.31c-2.92-9.38-5.57-11.41-8-22.7-.95-4.41-1-6.25-2.78-7.67C895.92,570.91,877.43,578.25,874.51,588.85Z" transform="translate(-55.61 -21.82)" style="fill:#161616"/><path d="M876.89,589.6c1.15,1.35,9,10.94,5.91,19-2.24,5.84-9.65,9.17-18.28,13.11-7.54,3.47-8.63,2.58-13.93,5.44-4.69,2.51-18.76,14.2-16.58,17.87.68,1.22,2.58.61,14.4-.61,7.61-.75,13.19-1.36,19.85-1.5s7.06.34,13,0a102.1,102.1,0,0,0,14.2-1.7,97.84,97.84,0,0,0,20.93-6.45c.61-14.14-1.22-22.22-2.92-27-3.67-10.19-4.42-11.69-4.42-11.69-1.49-3.19-2.72-5.23-3.33-8.77-.2-1.35-.34-2.65-.81-5a34.69,34.69,0,0,0-1.5-5.24,24.8,24.8,0,0,1-26.5,12.58Z" transform="translate(-55.61 -21.82)" style="fill:#6c6d6d;opacity:0.3799999952316284;isolation:isolate"/><path d="M880.15,589.8c1,.81,9.38,7.68,19,5a18.53,18.53,0,0,0,7.2-4.08c-1-4.48-2.11-8.9-3.13-13.39Z" transform="translate(-55.61 -21.82)" style="fill:#6c6d6d;opacity:0.3799999952316284;isolation:isolate"/></g><g id="Layer_9" data-name="Layer 9"><path d="M824.63,297.72A182.39,182.39,0,0,1,839,319c16.52,28.27,20.66,52.46,25.83,79,6.59,33.85,15,67.21,22,101,6.86,33.16,12.77,60.28,16.71,78.22-.61,1.15-6.86,11.76-19,12.91A23.52,23.52,0,0,1,871,587a526.32,526.32,0,0,1-36.42-79.71c-18.62-51.79-22.83-89.77-54.64-139.72-5.44-8.56-10.33-15.36-13.66-19.71-12.37-16.11-10.19-39.14,4.56-52.4C786,281.68,810.08,282.5,824.63,297.72Z" transform="translate(-55.61 -21.82)" style="fill:#ec615b"/><path d="M799,320.21c2.85,15.29,9.72,33.16,27.32,35.48,1.29.13,1.29-1.91,0-2-16.59-2.18-22.7-19.85-25.35-34-.21-1.29-2.18-.75-2,.54Z" transform="translate(-55.61 -21.82)" style="fill:#842b08"/><path d="M827.21,332.17A1165.48,1165.48,0,0,1,879.61,514c3.53,17.67,6.72,35.47,9.44,53.28.21,1.29,2.18.74,2-.55a1156.17,1156.17,0,0,0-43.83-184c-5.57-17.12-11.62-34.18-18-51-.48-1.22-2.45-.68-2,.54Z" transform="translate(-55.61 -21.82)" style="fill:#842b08"/><path d="M773.39,358.06c7.34,11.76,14.61,23.52,22,35.27.68,1.09,2.44.07,1.76-1-7.33-11.75-14.61-23.51-22-35.27-.74-1.08-2.51-.06-1.76,1Z" transform="translate(-55.61 -21.82)" style="fill:#842b08"/></g><path d="M787.59,310.63a277.83,277.83,0,0,1,42.61,65.92c7.54,16.38,13.52,38.19,25.48,81.68,13,47.3,19.24,77.34,21.07,86.58,3.67,18.15,6.32,33.57,8.22,45.06a22.49,22.49,0,0,0,6.66-1.84,25.62,25.62,0,0,0,11.76-11c-.75-3.73-1.9-9.24-3.33-16-2.65-12.57-4.42-20.79-6.39-29.83-1.76-8.09-4.21-19.64-7.2-33.84-1.56-7.75-3-14-3.94-18.28-1.84-8-3-12.17-4.76-20.66-1.09-5.1-1.56-7.82-2.24-11.22-2.65-13.59-3.88-16.51-6.8-29.69-3.6-16.45-6.45-33.85-9.31-46.08-.54-2.38-1-4.21-1.29-5.16-.88-3.47-2.17-8-4-13.26-5.57-16.37-11.62-27.18-18-38.32-9.58-16.79-12.5-18.22-13.93-18.83C808.52,290.31,790.44,307.78,787.59,310.63Z" transform="translate(-55.61 -21.82)" style="fill:#6c6d6d;opacity:0.4099999964237213;isolation:isolate"/><path d="M773.66,357a345.52,345.52,0,0,0-49.95,79.78c-13.93,31-37,82.57-24.19,142.23a168.92,168.92,0,0,0,6.25,21.68l30.65-5.09a174.72,174.72,0,0,1-9-28.68,182.94,182.94,0,0,1-1.83-68.37,174.9,174.9,0,0,1,7.4-29.36,177.38,177.38,0,0,1,12-26.5c1.77-3.4,6.12-11.28,15.29-24.87,6.59-9.79,15.7-22.5,27.52-36.9C783,372.88,778.35,364.93,773.66,357Z" transform="translate(-55.61 -21.82)" style="fill:#6c6d6d;opacity:0.38999998569488525;isolation:isolate"/><path d="M779.64,367.51A263.11,263.11,0,0,0,727,487.86a189.6,189.6,0,0,1,12.23-35.13c5.78-12.44,11.35-20.93,18.76-32.15a457.1,457.1,0,0,1,29.7-39.75C785.08,376.34,782.36,371.93,779.64,367.51Z" transform="translate(-55.61 -21.82)" style="fill:#6c6d6d;opacity:0.47999998927116394;isolation:isolate"/><path d="M858.33,368.05q11,59,20.73,121.44,7.65,49.65,13.86,97.52a20.56,20.56,0,0,0,4.08-2.44,22.31,22.31,0,0,0,6.53-7.89Q881,472.29,858.33,368.05Z" transform="translate(-55.61 -21.82)" style="fill:#6c6d6d;opacity:0.47999998927116394;isolation:isolate"/></g><g id="hand_r" data-name="hand r"><path d="M610.77,86.1c-.48.27-3.67,1.9-4,5-.34,2.65,1.63,4.69,2.78,5.91,6.12,6.32,18.15,4.76,20.8,4.35a60.79,60.79,0,0,1,8.7,3.4,65.58,65.58,0,0,1,19.57,14.61c7.68,8,18.89,15.63,41.32,31.06,6.79,4.68,16.92,11.34,29.83,18.62a25.57,25.57,0,0,0,10.53-2.18c1.63-.75,12.44-5.64,13.32-16.17.75-8.29-5.23-14.27-6.18-15.23-10.6-4.21-19.37-8-25.76-10.87-40.84-18.14-65.51-33.43-71.08-37-4.08-2.58-7.41-4.75-9.65-6.18a31.1,31.1,0,0,0-12.44-12.1c-1.36-.68-11.55-5.84-23-2.17a25.64,25.64,0,0,0-5,2.17c-6-.75-13.25-1.29-13.66.34-.27,1.09,2.58,2.65,6.53,5C597.58,77.13,603.56,80.86,610.77,86.1Z" transform="translate(-55.61 -21.82)" style="fill:#fff"/><path d="M630.68,100.5a37.49,37.49,0,0,1-14.82-1.15c-2.24-.68-4.69-1.5-6.32-3.19-3.46-3.54-.68-7.07,2.45-9.25,1.09-.74.07-2.51-1-1.76-2.24,1.56-4.62,3.26-5.1,6.11a7.54,7.54,0,0,0,3.06,7c5.57,4.62,15,5,21.75,4.28,1.29-.13,1.29-2.17,0-2Z" transform="translate(-55.61 -21.82)" style="fill:#161616"/><path d="M610.09,84.81c-3.81-2.65-7.62-5.24-11.49-7.68-1.77-1.16-3.53-2.25-5.3-3.33-1.09-.68-2.17-1.29-3.26-2-.68-.41-3.06-1.29-3.2-1.91-.13.41-.34.75-.47,1.16,3.19-2.38,10-.75,13.39.07,3.87.95,8.29,2.1,11.68,4.28,1.09.68,2.11-1.09,1-1.77-4.14-2.65-9.78-4.08-14.54-5-3.53-.68-9.44-1.63-12.57.68a1.12,1.12,0,0,0-.48,1.16c.41,1.36,2,1.83,3.06,2.51,2.38,1.36,4.69,2.79,7,4.22,4.83,3,9.52,6.11,14.14,9.37,1.08.75,2.1-1,1-1.76Z" transform="translate(-55.61 -21.82)" style="fill:#161616"/><path d="M600.91,70.74a24.63,24.63,0,0,1,23-2.11c7,3,12,9,16.65,14.82.82,1,2.24-.41,1.43-1.43-5.17-6.46-10.88-13-18.89-15.9A26.49,26.49,0,0,0,600,69a1,1,0,0,0,.95,1.7Z" transform="translate(-55.61 -21.82)" style="fill:#161616"/><path d="M640.8,83.11A809.53,809.53,0,0,0,746.41,137c1.22.47,1.77-1.5.54-2A805,805,0,0,1,641.82,81.34a1,1,0,0,0-1,1.77Z" transform="translate(-55.61 -21.82)" style="fill:#161616"/><path d="M629.52,101.8c9.79,2.44,17.33,9.17,24.87,15.49,7.75,6.46,15.57,12.84,23.59,19,16.3,12.57,33.43,24.19,51.71,33.77,1.16.61,2.18-1.15,1-1.76-18.76-9.86-36.29-21.82-53.07-34.8-8.36-6.45-16.45-13.18-24.54-19.91-6.93-5.78-14.13-11.55-23-13.73a1,1,0,1,0-.55,1.91Z" transform="translate(-55.61 -21.82)" style="fill:#161616"/><path d="M745.8,137.2c8.29,3.47,8,13.8,3.53,20.25-3.87,5.58-12.84,12.58-20,10-1.22-.47-1.77,1.5-.54,2,8.63,3.13,19.43-5.57,23.37-12.7,4.22-7.62,2.72-17.81-5.91-21.41-1.15-.61-1.7,1.36-.47,1.9Z" transform="translate(-55.61 -21.82)" style="fill:#161616"/></g><g id="torso"><path d="M754.56,135a21.74,21.74,0,0,0-6.52,2.58c-4.49,2.79-6.8,6.59-8.5,9.79-7.67,14.4-9.78,25.41-9.78,25.41-2.86,14.95-1.16,27,0,34.87,2,13.79,4.21,12.84,6.52,28a157.53,157.53,0,0,1,1.63,31.6A164.86,164.86,0,0,1,735,291a55.32,55.32,0,0,0,7.2,6.86c17,13.39,37.52,12.37,44,12A77.63,77.63,0,0,0,825,296.83c.67-.95,1.29-2,2-2.92a83.45,83.45,0,0,1-4-13.39c-2.78-13.66-1.22-23.17,0-39.41.55-7.48,1.23-18.49,1.3-32.28h-4.9c-1.22.07-12.3.27-19.23-8.5-6-7.54-4.55-16.37-4.21-18.28,1.7-10.67,10.67-19.57,22.83-23.17-5.1-2.72-10.6-6-16.31-9.79a189,189,0,0,1-16.92-12.7c-5.5,1.36-10,2.65-13,3.6-6.45,2-8.9,3-11.75,2C757.28,140.8,755.45,137.34,754.56,135Z" transform="translate(-55.61 -21.82)" style="fill:#fff"/><path d="M755.58,134.82c-6.86-.34-12,4.56-15.63,9.93-4.69,6.93-7.88,15.08-10.06,23.1-4.75,17.81-2.65,35.2,1.43,52.87,2.18,9.24,4.49,18.49,5.44,28a132.13,132.13,0,0,1-1,30.65c-.48,3.6-2,7.88-1.7,11.48.34,3.2,3.67,5.24,6.05,7a64.72,64.72,0,0,0,22.08,10.47c19.1,5,39.15,1.56,57-6.25,1.23-.55.14-2.31-1-1.77-15.56,6.8-33,10.33-50,7.27a65.34,65.34,0,0,1-21.47-7.81c-2.92-1.7-6.46-3.74-8.77-6.26-3.19-3.53-.61-10.67,0-15.08A135.31,135.31,0,0,0,735.54,230c-3.67-16.44-8-32.55-6-49.54a83.9,83.9,0,0,1,7.81-26.84c3.47-7.2,8.9-17.19,18.21-16.72a1,1,0,1,0,.07-2Z" transform="translate(-55.61 -21.82)" style="fill:#161616"/><path d="M802.07,150.45c5.3,2.79,10.53,5.78,15.76,8.84a1,1,0,0,0,1-1.77c-5.16-3.06-10.4-6-15.76-8.83-1.16-.61-2.18,1.15-1,1.76Z" transform="translate(-55.61 -21.82)" style="fill:#161616"/><path d="M819.33,157.52c-9.31,4-16.52,8.9-21.21,18.15-3.67,7.34-6.45,17,.28,23.51,1,.88,2.37-.54,1.42-1.43-6.93-6.66-2.38-17.12,1.7-24.05,4.28-7.28,11.28-11.15,18.83-14.41,1.22-.55.13-2.31-1-1.77Z" transform="translate(-55.61 -21.82)" style="fill:#161616"/><path d="M823.06,210.53c1.64,14.54-1.49,28.81-2.37,43.29a116.36,116.36,0,0,0,4.89,40.77c.41,1.22,2.38.75,2-.54a115.88,115.88,0,0,1-4.76-41.52c1-14,3.81-27.93,2.25-42-.07-1.29-2.11-1.29-2,0Z" transform="translate(-55.61 -21.82)" style="fill:#161616"/><path d="M825.71,294.05a24.24,24.24,0,0,1-7.47,6.45c-1.16.62-.14,2.38,1,1.77a27,27,0,0,0,8.22-7.2c.82-1.09-1-2.11-1.77-1Z" transform="translate(-55.61 -21.82)" style="fill:#161616"/><path d="M797.92,198.84A32.9,32.9,0,0,0,824,210.46a1,1,0,0,0,0-2,31.17,31.17,0,0,1-24.67-11.08c-.89-1-2.31.48-1.43,1.5Z" transform="translate(-55.61 -21.82)" style="fill:#161616"/><path d="M767.68,153.65a210.23,210.23,0,0,1,20.18,62.59,229.43,229.43,0,0,1,2.45,40,264.53,264.53,0,0,1-6.46,53.34l7.27-.41a50.65,50.65,0,0,0,22.23-5.23,49.91,49.91,0,0,0,12.91-9.31,113.18,113.18,0,0,1-4-23c-1-13.52,1.09-20.93,2-40.36.47-9.52.47-17.13.41-21.82A34.84,34.84,0,0,1,808.11,205c-3.67-2.11-9.71-5.64-11.68-12.51-1.23-4.28-.34-7.95.4-10.87.41-1.63,3.33-12.64,14.14-18.55a28.3,28.3,0,0,1,9.72-3.27l-40-20.59A50.2,50.2,0,0,1,775.9,146,57.57,57.57,0,0,1,767.68,153.65Z" transform="translate(-55.61 -21.82)" style="fill:#6c6d6d;opacity:0.15000000596046448;isolation:isolate"/><path d="M803,202.24a206.38,206.38,0,0,1-8.22,105.94,54.38,54.38,0,0,0,32.82-13,88.47,88.47,0,0,1-4.35-15.91,95.9,95.9,0,0,1-1.29-16.92c-.07-14.68,2-19,2.58-33.64a168.67,168.67,0,0,0-.27-19,26.24,26.24,0,0,1-10.81-1A25.14,25.14,0,0,1,803,202.24Z" transform="translate(-55.61 -21.82)" style="fill:#6c6d6d;opacity:0.28999999165534973;isolation:isolate"/></g><g id="hand_l" data-name="hand l"><path d="M821.91,159.22c-6.59.27-11.35,4.28-14.34,6.66-2.38,2-9.11,7.54-10.81,17.19-.47,2.72-1.49,8.5,1.57,14,4.69,8.29,15.49,10.26,18.41,10.81,4.35.81,4.83-.07,7,1,2.45,1.09,6.73,4.28,9.25,21.95,1.29,9,3,21.88-1,38.8-3.46,14.95-6.32,19.37-9.24,21.61a48,48,0,0,1-8.9,5.1c-5.37,2.45-6.52,1.9-11.48,4.15-3.81,1.69-8.23,3.6-11.76,7.95a24.86,24.86,0,0,0-5.1,11.14l15.29-2.24a68.77,68.77,0,0,1,3.2,6.39,62.48,62.48,0,0,1,3.8,11.75c1.09,4.76,4.89,12.37,16.52,24.81-1.36-8.5-2.79-17-4.15-25.42A49.94,49.94,0,0,0,826.87,346a51.49,51.49,0,0,0,13.66,12.09c-.61-8.49-1.29-17-1.9-25.41,3.39,4.75,6.79,9.51,10.19,14.34a76.68,76.68,0,0,0-3.47-15.29A78.23,78.23,0,0,0,832,307.5a66.77,66.77,0,0,0,7.61-6.66,70.66,70.66,0,0,0,10.8-14.34c7.07-11.89,12.58-21.13,15.57-34.65a92.87,92.87,0,0,0-2.86-48c-2.11-6.39-8.22-22.29-22.56-35.34C831,159.7,825.17,159.08,821.91,159.22Z" transform="translate(-55.61 -21.82)" style="fill:#fff"/><path d="M821,158.4a66.62,66.62,0,0,1,30.17,23.18c7,10,10.53,21.54,13.39,33.3,6.18,25.28-1.09,50.42-15.5,71.49a150.27,150.27,0,0,1-16.51,20c-.88.95.54,2.38,1.43,1.43,13.59-14,25.21-30.45,31-49.27a81.2,81.2,0,0,0,2-41.53c-2.58-11.82-6.12-23.78-12.64-34-7.81-12.3-19.5-21.14-33-26.51-1.15-.47-1.7,1.5-.47,2Z" transform="translate(-55.61 -21.82)" style="fill:#161616"/><path d="M816.81,208.56c14.14-.14,15.29,22.63,15.63,32.48.34,10.94.14,22.22-2.85,32.76a45.7,45.7,0,0,1-6.93,14.68,23.53,23.53,0,0,1-6.6,6.59c-2.24,1.36-4.68,1.7-7.27,2.24A31.43,31.43,0,0,0,788.54,311c-1.09,1.77-5,6.73-3.26,9,.54.75,1.36.75,2.24.75,2.65-.14,5.37-1.09,8-1.64,1.3-.27.75-2.24-.54-2-2.11.48-4.82,1.57-7,1.5-1.29-.07-1.09.2-.61-1.16a21.58,21.58,0,0,1,2.24-4.28,27.8,27.8,0,0,1,12.64-11.55,48.56,48.56,0,0,1,9.79-2.92c5-1.16,8.56-4.22,11.69-8.23,5.91-7.61,8.69-17.12,10-26.57a130.78,130.78,0,0,0,.13-33c-1.22-9.51-4.62-24.67-16.92-24.53-1.36.14-1.36,2.18-.07,2.11Z" transform="translate(-55.61 -21.82)" style="fill:#161616"/><path d="M794.18,319.19a29.55,29.55,0,0,1,3.47-.61,4,4,0,0,1,4.14,1c.14.41.21.75.34,1.16,1,2,1.36,4.75,2,6.93A113.17,113.17,0,0,0,809,340.06a71,71,0,0,0,14.81,21.47c.82.75,1.84,0,1.7-1q-1.83-11.82-3.67-23.65c-.2-1.29-2.17-.75-2,.54q1.83,11.84,3.67,23.65c.54-.34,1.16-.68,1.7-1-8-7.61-13.32-17.26-17.19-27.45-1-2.58-1.84-5.17-2.65-7.75-.68-2.17-1-4.82-2-6.79-1.83-3.47-6.72-1.36-9.71-.82-1.36.21-.82,2.18.47,2Z" transform="translate(-55.61 -21.82)" style="fill:#161616"/><path d="M831.63,308.12c5.23,5.84,8.42,12.5,11.28,19.7,3,7.55,5.77,15.16,6.45,23.24.68-.06,1.36-.2,2-.27a63.58,63.58,0,0,0-12.57-19.5c-.88-1-2.31.47-1.42,1.43a61.13,61.13,0,0,1,12,18.62c.41,1,2.11,1,2-.28-.74-8.76-3.73-16.85-7-24.94-2.86-7.13-6.26-13.66-11.35-19.43-.75-1-2.25.41-1.36,1.43Z" transform="translate(-55.61 -21.82)" style="fill:#161616"/><path d="M818.85,335.91a81.57,81.57,0,0,0,21.75,23.51c.68.48,1.49-.2,1.56-.88A94.11,94.11,0,0,0,839,333.12a1,1,0,0,0-2,.55,92.73,92.73,0,0,1,3.06,24.87c.55-.27,1-.61,1.56-.88a78.1,78.1,0,0,1-21-22.77c-.75-1.09-2.52-.07-1.84,1Z" transform="translate(-55.61 -21.82)" style="fill:#161616"/><path d="M826.39,330.88a137.56,137.56,0,0,1,12.71,25.28c.48,1.22,2.45.68,2-.54a136.68,136.68,0,0,0-12.91-25.83c-.75-1-2.51,0-1.77,1.09Z" transform="translate(-55.61 -21.82)" style="fill:#161616"/><path d="M806.82,166.83c7.21,3.13,27.25,13,39.35,35.68,13.46,25.42,12,58.78-1.09,75.77-5.37,6.93-14.34,16.92-17.87,20.46-6.39,6.45-8.9,8.08-11.48,9.24-5.85,2.72-8.77,1.63-16.65,4.89-6.73,2.79-10.67,6.05-10.47,6.32s5-2,9.65-1.83c0,0,3.53.07,4.55,1.7a.81.81,0,0,1,.14.2c.2.41.2.95.88,3.6.48,2,1,3.6,1.29,4.62a92.37,92.37,0,0,0,8,18,89.54,89.54,0,0,0,11.69,16c-1.08-7.95-2.1-15.9-3.19-23.92a71.28,71.28,0,0,0,11,13.73,72,72,0,0,0,8.76,7.34c-.81-8.84-1.69-17.67-2.51-26.58a106.57,106.57,0,0,1,7.61,11.15c1.5,2.45,2.72,4.82,3.88,7.07a88,88,0,0,0-14.68-39c-.28-1.84-.55-3.6-.75-5.44a135.8,135.8,0,0,0,10.67-12.23c4.76-6.12,13.79-17.87,18.82-33.57,9.45-29.29-.47-55.45-3.12-62.11-2.86-7.21-7.07-17.47-17.26-27a64.58,64.58,0,0,0-22.29-13.53,34.63,34.63,0,0,0-8.5,4.08A35.24,35.24,0,0,0,806.82,166.83Z" transform="translate(-55.61 -21.82)" style="fill:#6c6d6d;opacity:0.33000001311302185;isolation:isolate"/><path d="M849.5,285.82c-1-.88-12.78,11.22-16.92,15.57-9.38,9.92-10.26,12.64-10.67,14.13-1.77,6.59.68,12.3,4.76,21.48,3.46,7.81,10.8,21.54,13.59,20.52,1.29-.48,2.44-4.28-2.31-26.1,8.49,15.7,11.14,18.76,12,18.35,1.56-.68-2.24-14.4-7.68-26.23a118.16,118.16,0,0,0-8.56-15.42C847.6,290.58,850,286.3,849.5,285.82Z" transform="translate(-55.61 -21.82)" style="fill:#6c6d6d;opacity:0.3100000023841858;isolation:isolate"/></g><g id="head"><path d="M719.63,65.71c-.68,1.7-.4,1.9-2,7.14-.68,2.17-1.29,4-1.76,5.23a53.11,53.11,0,0,1-2.11,15.76c-1,3.47-2.65,7.62-1.56,8.3s3.46-3,6.11-2.38c1.77.4,2.65,2.58,3.54,4.82,0,0,2.78,6.73,5.71,12.3,1.83,3.54,5,9.45,11.14,11.62,4.08,1.43,8.16.68,10.53.34a26.09,26.09,0,0,0,7.34-2.38c-2.58,4.15-2.51,9.11,0,12.3,3.06,3.74,8.5,3.27,9.79,3.13a15,15,0,0,0,7.07-2.72,35.9,35.9,0,0,1-2.65-13.11,36.43,36.43,0,0,1,8.15-22.77,13.24,13.24,0,0,0,6.32-3.13c.55-.47,5-4.68,4.22-10.73-.41-3.2-2.52-8.29-7.07-9.18a9.1,9.1,0,0,0-6.8,1.84l-1.83-4.49A41.29,41.29,0,0,1,759.86,75c-15.35-5.71-22.69-18.75-24.87-23a27.09,27.09,0,0,0-6,3.12C726.84,56.4,721.88,59.8,719.63,65.71Z" transform="translate(-55.61 -21.82)" style="fill:#fff"/><path d="M717,68.9a244.45,244.45,0,0,1-6.52,33.44,1,1,0,0,0,1.22,1.22c3.06-.81,6.05-1.63,9.11-2.38-.41-.2-.82-.47-1.22-.68a52.87,52.87,0,0,0,8.35,19,61.58,61.58,0,0,0,5.64,6.93c1.77,1.91,3.13,3.88,5.78,4,12,.62,23.24-4.75,31.06-13.66.88-1-.55-2.44-1.43-1.42-7.27,8.29-17.46,13.39-28.61,13.11-4.48-.13-9-7.47-11.21-10.8A52.16,52.16,0,0,1,721.6,100a1,1,0,0,0-1.22-.68c-3.06.82-6,1.63-9.11,2.38l1.23,1.22a239.9,239.9,0,0,0,6.59-34c.07-1.29-2-1.29-2.11,0Z" transform="translate(-55.61 -21.82)" style="fill:#161616"/><path d="M726.5,71.35a34.74,34.74,0,0,0,1.83,11.83,1,1,0,0,0,2-.28,30.12,30.12,0,0,0-1.42-12.5,1,1,0,0,0-2,.27,21.77,21.77,0,0,0,.34,6.25c.28,1.29,2.18.75,2-.54a23.29,23.29,0,0,1-.28-5.71c-.68.07-1.36.21-2,.27a29.86,29.86,0,0,1,1.36,12c.68-.06,1.36-.2,2-.27a30.36,30.36,0,0,1-1.76-11.28,1,1,0,0,0-2,0Z" transform="translate(-55.61 -21.82)" style="fill:#161616"/><path d="M711.55,80l.13.14c-.07-.34-.2-.68-.27-1,.07-.07.14-.21.2-.27h1c-.68-.41-.61-2.65-.61-3.2a10.78,10.78,0,0,1,.68-3.26h-2a23,23,0,0,1,.27,9.17h2a14.15,14.15,0,0,1-.54-8.69,1,1,0,0,0-2-.55,16.6,16.6,0,0,0,.54,9.79c.34.81,1.77,1.09,2,0a27.26,27.26,0,0,0-.27-10.26,1,1,0,0,0-2,0,10.4,10.4,0,0,0-.14,7.68c.55,1.22,2.32,1.69,2.72.06a1.14,1.14,0,0,0-.27-1l-.13-.13c-.89-.75-2.38.68-1.36,1.56Z" transform="translate(-55.61 -21.82)" style="fill:#161616"/><path d="M723.64,110.15c2.11.48,4.35.75,6.39-.27a32.53,32.53,0,0,0,5.51-4.07c1-.82-.41-2.25-1.43-1.43a44.82,44.82,0,0,1-4.56,3.46,7.09,7.09,0,0,1-5.3.34c-1.35-.27-1.9,1.7-.61,2Z" transform="translate(-55.61 -21.82)" style="fill:#161616"/><path d="M733.36,89.63h-.2c-.21-.07-.34-.07-.55-.13s-.13-.07-.13-.14a2.34,2.34,0,0,1-.27-.48v-.06c-.07-.28.06-.55.4-.82.21-.07.34-.07.55-.14h.2a1,1,0,0,0-1.22.68,1,1,0,0,0,.68,1.23c.74.34,1.42-.41,1.42-1.16a1.12,1.12,0,0,0-1.42-1.15.94.94,0,0,0-.68,1.22c.13.75.74,1.16,1.22.95Z" transform="translate(-55.61 -21.82)" style="fill:#161616"/><path d="M738.66,84.47a1,1,0,0,0,0-2,1,1,0,0,0,0,2Z" transform="translate(-55.61 -21.82)" style="fill:#161616"/><path d="M738.8,90.18l.4.4a1,1,0,0,0,1.43,0,1,1,0,0,0,0-1.42l-.41-.41a1,1,0,0,0-1.42,0,1.13,1.13,0,0,0,0,1.43Z" transform="translate(-55.61 -21.82)" style="fill:#161616"/><path d="M719.23,68.5a28,28,0,0,1,18-16.72c1.23-.41.75-2.38-.54-2A30.37,30.37,0,0,0,717.25,68c-.47,1.23,1.5,1.77,2,.55Z" transform="translate(-55.61 -21.82)" style="fill:#161616"/><path d="M735.26,51.1c5.17,18,22.84,27.66,40.78,27.45a1,1,0,0,0,0-2c-17,.13-33.91-8.84-38.81-26-.4-1.23-2.37-.68-2,.54Z" transform="translate(-55.61 -21.82)" style="fill:#161616"/><path d="M755,128.78A81,81,0,0,1,752.93,152a1.09,1.09,0,0,0,.48,1.15,17.26,17.26,0,0,0,23.44-7.34c.62-1.15-1.15-2.17-1.76-1a15.2,15.2,0,0,1-20.66,6.59c.13.41.34.75.47,1.16a84.35,84.35,0,0,0,2.18-23.72c-.07-1.36-2.11-1.36-2-.06Z" transform="translate(-55.61 -21.82)" style="fill:#161616"/><path d="M735.67,52.66a29.84,29.84,0,0,0-17.6,19,13.56,13.56,0,0,1-7.48-4.41c-4.75-5.92-2.85-16,2-21.34,4.56-5,8.36-2,16.92-8.16,5.44-3.87,5.24-6.05,11.29-10,2.92-1.9,7-4.62,12.5-5.57,8.29-1.43,15.22,1.9,25.35,6.73,5.91,2.85,4.62,2.85,12.84,7.13,13.8,7.14,15.7,6.19,21.48,10.74,6,4.69,9.31,10,12.16,14.54,4,6.46,4.08,8.7,8.36,18,6.52,14,8.49,13.32,12.5,23,3.4,8.22,6.8,16.31,5.1,26.1-2.51,14.4-14.34,22.56-16.58,24.05-15,9.92-31.6,5.64-37.58,4.08-7.07-1.84-16.79-4.35-22.7-12.84-7.54-10.88-6-27.53,3.4-42a11,11,0,0,0,6.12-1c5.36-2.79,8.08-10.74,5.09-16.24-.34-.61-3-5.37-8.15-5.44s-8,4.49-8.16,4.76a53,53,0,0,1-28.13-16.58A50.77,50.77,0,0,1,735.67,52.66Z" transform="translate(-55.61 -21.82)" style="fill:#5222d0"/><circle cx="722.06" cy="81.27" r="3.87" style="fill:#f8f263"/><path d="M755.31,126.87c0,.82.07,1.63.14,2.45s.2,1.77.27,2.58A21.45,21.45,0,0,0,765,126c3.4-3.87,5-8.84,4.35-9.24s-2.17,2.44-6,5.5A37,37,0,0,1,755.31,126.87Z" transform="translate(-55.61 -21.82)" style="fill:#161616;stroke:#161616;stroke-miterlimit:10"/><path d="M780.66,30a195.45,195.45,0,0,1,20.73,27.87c8.63,14,15.15,24.67,17.6,39.82,1.49,9.45,5.16,32.48-9.45,45.87-8.43,7.68-19.16,8.84-24.53,9a64.45,64.45,0,0,0,12,4.15c7.07,1.7,18,4.28,29.76-.14,2.31-.88,17.61-6.93,22.84-22.49,3.46-10.33.81-19.85-.27-23.65a68.52,68.52,0,0,0-7.07-15.56c-3-5-6.12-9.11-8.9-15.29-1.7-3.67-2.79-6.66-2.79-6.66-1.43-3.74-1.22-3.95-2.17-5.92-1-2.24-1.7-2.85-4.63-7.47-2.78-4.42-2.17-3.81-3.19-5.23a32.46,32.46,0,0,0-9.17-8.7c-.75-.48-2.18-1.16-5.1-2.59-4.42-2.1-7.75-3.6-8.43-3.87C794.52,37.78,789.22,35.13,780.66,30Z" transform="translate(-55.61 -21.82)" style="fill:#444647;opacity:0.1899999976158142;isolation:isolate"/><path d="M735.47,51.92a126.58,126.58,0,0,0,20.79,20.65c9.45,7.41,14.88,9.38,19.51,8A10.7,10.7,0,0,0,779,79a12.41,12.41,0,0,0-6.39,4.83A56.46,56.46,0,0,1,766.46,82a54,54,0,0,1-23.72-17A49.42,49.42,0,0,1,735.47,51.92Z" transform="translate(-55.61 -21.82)" style="fill:#125689;opacity:0.5299999713897705;isolation:isolate"/><path d="M839,90.38a89.91,89.91,0,0,1,1.29,19.23c-.21,4.35-.61,14.27-3.88,22.22-7.27,17.67-28.2,24.26-33.5,25.76,2.11.41,23,4.14,37-9.45a40.22,40.22,0,0,0,10.53-18.35,36,36,0,0,0,.55-12.57C849.64,104.51,843,95.14,839,90.38Z" transform="translate(-55.61 -21.82)" style="fill:#252626;opacity:0.15000000596046448;isolation:isolate"/></g></svg>