<?xml version="1.0" encoding="utf-8"?>
<!-- Generator: Adobe Illustrator 24.2.1, SVG Export Plug-In . SVG Version: 6.00 Build 0)  -->
<svg version="1.1" id="Layer_1" xmlns="http://www.w3.org/2000/svg" xmlns:xlink="http://www.w3.org/1999/xlink" x="0px" y="0px"
	 viewBox="0 0 1088 688" style="enable-background:new 0 0 1088 688;" xml:space="preserve">
<style type="text/css">
	.st0{fill:#FFF0A5;}
	.st1{fill:#FFFFFF;}
	.st2{fill:#FF6138;}
	.st3{fill:#FFB03B;}
</style>
<g id="Layer_17">
	<g>
		<polygon class="st0" points="270.1,676 461.5,628.1 652.9,676 844.3,628.1 844.3,101.8 652.9,149.6 461.5,101.8 270.1,149.6 		"/>
	</g>
	<g>
		<polygon class="st1" points="652.9,149.6 461.5,101.8 461.5,628.1 652.9,676 		"/>
	</g>
	<g>
		<path class="st2" d="M651.5,160.9c0,118.9-118.9,228-118.9,228s-119-109-119-228C413.6,95.2,466.9,42,532.6,42
			S651.5,95.2,651.5,160.9z"/>
	</g>
	<g>
		<circle class="st3" cx="533.2" cy="161.6" r="59.8"/>
	</g>
	<path d="M851.7,92.4c-2.8-2.3-6.6-3.1-10.1-2.3L686.1,126c-6.4,1.5-10.5,7.9-9,14.3c1.5,6.4,7.9,10.5,14.3,9l140.9-32.5v502
		l-167.5,41.9v-71l86.6-21.7c6.4-1.6,10.3-8.1,8.7-14.5c-1.6-6.4-8.1-10.3-14.5-8.7L664.8,565V374.3l71.8-17.9v118.9l-38.8,9.7
		c-6.4,1.6-10.3,8.1-8.7,14.5c1.4,5.4,6.2,9.1,11.6,9.1c1,0,1.9-0.1,2.9-0.4l95.7-23.9c6.4-1.6,10.3-8.1,8.7-14.5
		c-1.6-6.4-8.1-10.3-14.5-8.7l-33,8.3V209.4c0-6.6-5.3-12-12-12s-12,5.3-12,12v122.3l-71.8,17.9v-56.5c0-6.6-5.3-12-12-12
		s-12,5.3-12,12v140.2l-80.8-20.2c-0.5-0.1-1,0-1.5-0.1c-0.5-0.1-0.9-0.3-1.4-0.3c-0.3,0-0.6,0.2-0.9,0.2c-0.9,0.1-1.7,0.3-2.5,0.5
		c-0.7,0.2-1.3,0.4-1.9,0.7c-0.7,0.4-1.4,0.8-2,1.3c-0.6,0.5-1.1,0.9-1.6,1.5c-0.5,0.6-0.9,1.2-1.2,1.9c-0.4,0.7-0.8,1.4-1.1,2.2
		c-0.1,0.3-0.3,0.5-0.4,0.8c-0.1,0.5,0,1-0.1,1.4c-0.1,0.5-0.3,0.9-0.3,1.5v56.5l-71.8-17.9V365c0-6.6-5.3-12-12-12s-12,5.3-12,12
		v98.3l-71.8,17.9V338.4l38.8-9.7c6.4-1.6,10.3-8.1,8.7-14.5c-1.6-6.4-8.1-10.3-14.5-8.7l-33,8.3v-92.4c0-6.6-5.3-12-12-12
		s-12,5.3-12,12v98.3l-38.8,9.7c-6.4,1.6-10.3,8.1-8.7,14.5c1.4,5.4,6.2,9.1,11.6,9.1c1,0,1.9-0.1,2.9-0.4l33-8.3v235.9
		c0,6.6,5.3,12,12,12s12-5.3,12-12v-74.4l71.8-17.9v130.9L282,660.7V159.2l98.3-21.8c6.4-1.4,10.5-7.8,9.1-14.3
		c-1.4-6.4-7.8-10.4-14.3-9.1L267.5,138c-5.5,1.2-9.4,6.1-9.4,11.7V676c0,3.7,1.7,7.2,4.6,9.4c2.1,1.7,4.7,2.5,7.4,2.5
		c1,0,1.9-0.1,2.9-0.4l188.5-47.1L650,687.6c1,0.3,1.9,0.4,2.9,0.4s1.9-0.1,2.9-0.4l191.4-47.9c5.3-1.3,9.1-6.1,9.1-11.6V101.8
		C856.2,98.1,854.6,94.7,851.7,92.4z M640.9,660.7l-167.5-41.9V487.9l71.8,17.9v50.5c0,0.3,0.2,0.6,0.2,0.9c0.1,0.8,0.3,1.6,0.5,2.4
		c0.2,0.7,0.4,1.4,0.8,2.1s0.8,1.2,1.2,1.8c0.5,0.6,1,1.2,1.6,1.7c0.6,0.5,1.1,0.8,1.8,1.2c0.7,0.4,1.4,0.8,2.3,1.1
		c0.3,0.1,0.5,0.3,0.8,0.4l86.6,21.7V660.7z M640.9,565L569.1,547V440.1l71.8,17.9V565z M605,161.6c0-39.6-32.2-71.8-71.8-71.8
		s-71.8,32.2-71.8,71.8s32.2,71.8,71.8,71.8S605,201.2,605,161.6z M485.4,161.6c0-26.4,21.5-47.9,47.9-47.9s47.9,21.5,47.9,47.9
		s-21.5,47.9-47.9,47.9C506.8,209.4,485.4,188,485.4,161.6z M524.5,397.7c2.3,2.1,5.2,3.1,8.1,3.1s5.8-1.1,8.1-3.1
		c5-4.6,122.8-114,122.8-236.8C663.5,88.7,604.8,30,532.6,30S401.6,88.7,401.6,160.9C401.6,283.7,519.5,393.1,524.5,397.7z
		 M532.6,53.9c59,0,107,48,107,107c0,94.5-80.8,184.5-107,211.2c-26.2-26.7-107-116.7-107-211.2C425.6,101.9,473.6,53.9,532.6,53.9z
		"/>
</g>
<g id="Layer_18">
</g>
</svg>
