<svg id="Layer_1" data-name="Layer 1" xmlns="http://www.w3.org/2000/svg" viewBox="0 0 677.73 540.73"><g id="background"><path d="M313.81,456H680.64a.79.79,0,0,0,0-1.57H313.81a.79.79,0,0,0,0,1.57Z" transform="translate(-181.77 -6.7)" style="fill:#e8e8e8"/><path d="M690.29,423.55a174.14,174.14,0,0,0,4.53,44.68c.21,1,1.72.58,1.51-.41a171.15,171.15,0,0,1-4.43-44.27.81.81,0,0,0-1.61,0Z" transform="translate(-181.77 -6.7)" style="fill:#e8e8e8"/><path d="M752.39,424.75a124.51,124.51,0,0,1-2.61,41.45.78.78,0,0,0,1.51.42A124.17,124.17,0,0,0,754,424.75c-.1-1-1.67-1-1.56,0Z" transform="translate(-181.77 -6.7)" style="fill:#e8e8e8"/><path d="M695.45,469.69a98,98,0,0,0,54.8-1.87c.94-.32.52-1.83-.42-1.52a96.41,96.41,0,0,1-54,1.88c-1-.21-1.41,1.3-.42,1.51Z" transform="translate(-181.77 -6.7)" style="fill:#e8e8e8"/><path d="M691,424.28a145,145,0,0,0,61.52-.26c1-.21.58-1.73-.41-1.52a143.29,143.29,0,0,1-60.7.26c-1-.2-1.4,1.31-.41,1.52Z" transform="translate(-181.77 -6.7)" style="fill:#e8e8e8"/><path d="M703.37,424.85c-2.71-6.1-.26-13.56,1.78-19.55a72.9,72.9,0,0,1,8.7-17.52l-1.25.15a12.56,12.56,0,0,0,4.12,3.08.79.79,0,0,0,1.15-.89c-.63-2.81-1.72-5.58-.47-8.39.89-2,2.14-4,3.18-5.84a8.61,8.61,0,0,1-1.09.26c1.09.68,2.19,1.3,3.28,2,.73.47,1.36-.42,1.1-1.1-1.1-2.39-1.83-4.79-.32-7.19.89-1.46,2-2.77,3-4.12,2.19-2.92,4.48-5.84,6.78-8.71,4.38-5.47,8.91-10.79,13.61-16l-1.26-.15a60.33,60.33,0,0,1,12,30.19,56.12,56.12,0,0,1-.52,15.9,57.76,57.76,0,0,1-2,7.82c-.16.52-.37,1.05-.53,1.52a3.61,3.61,0,0,1-3,2.39c-1,.21-1.62.06-2.5.73a.83.83,0,0,0-.16,1.26c1.15,1.19,1.62,1.4,1.2,3a20.68,20.68,0,0,1-1.36,3.18c-.93,2.09-2,4.12-3.07,6.1a85.08,85.08,0,0,1-7.67,11.58c-.62.78.47,1.87,1.1,1.09a92.72,92.72,0,0,0,13.19-23.2.75.75,0,0,0-.21-.78c-.68-.68-1.35-1.41-2.08-2.09-.06.42-.11.83-.16,1.25,1.2-.83,2.55-.26,3.81-.78a3.42,3.42,0,0,0,1.93-2,42.72,42.72,0,0,0,2.5-7.88,59.68,59.68,0,0,0,1.3-17.47,61.26,61.26,0,0,0-12.41-32.59.81.81,0,0,0-1.25-.15q-8.68,9.61-16.69,19.81a112.82,112.82,0,0,0-7,9.34c-1.88,3-1,5.78.31,8.81l1.09-1.1c-1.09-.67-2.19-1.3-3.28-2a.83.83,0,0,0-1.1.26c-1.3,2.4-3.33,5.06-4.06,7.72-.63,2.35.67,5.42,1.2,7.72.36-.32.78-.58,1.14-.89a10.65,10.65,0,0,1-3.8-2.81.79.79,0,0,0-1.26.15A76.13,76.13,0,0,0,703,406.6c-1.88,6-3.71,12.93-1.05,19a.82.82,0,0,0,1.46-.73Z" transform="translate(-181.77 -6.7)" style="fill:#e8e8e8"/><path d="M745.82,352.84c-2.09,23.62-18.25,42.55-25,64.76-.31,1,1.2,1.36,1.51.42,6.73-22.37,22.95-41.35,25-65.18.11-1-1.51-1-1.56,0Z" transform="translate(-181.77 -6.7)" style="fill:#e8e8e8"/><path d="M726.11,365.41q2.5,12.9,5.79,25.55a.78.78,0,0,0,1.51-.42c-2.19-8.45-4.12-17-5.79-25.55-.16-1-1.67-.57-1.51.42Z" transform="translate(-181.77 -6.7)" style="fill:#e8e8e8"/><path d="M743.73,370.93a54.64,54.64,0,0,0,11.84-11.73c.62-.78-.73-1.56-1.36-.78A52,52,0,0,1,743,369.58c-.78.62,0,2,.78,1.35Z" transform="translate(-181.77 -6.7)" style="fill:#e8e8e8"/><path d="M738.88,348.62c1.41,4.48,2.25,10,5.69,13.34.73.73,1.82-.41,1.09-1.09-3.18-3.18-4-8.55-5.32-12.67-.26-.94-1.77-.52-1.46.42Z" transform="translate(-181.77 -6.7)" style="fill:#e8e8e8"/><path d="M700.25,424.43c-3.19-2.5-5.11-6-6.73-9.64-1.83-4.28-3.39-8.66-4.8-13.09A153.4,153.4,0,0,1,683,375.63c-2.35-18.46-.47-37.13-2.72-55.64-.46.16-1,.26-1.46.42,5.84,13.14,19.51,21,30.87,28.83a8.61,8.61,0,0,1-.26-1.09l-4.69,6.72a.79.79,0,0,0,.68,1.2,16.48,16.48,0,0,0,5.73-.94c-.31-.1-.57-.26-.88-.36q2.9,4.46,5.78,8.92a5.12,5.12,0,0,0,.11-.94,19.07,19.07,0,0,0-2.5,3,.8.8,0,0,0,.47,1.15c4.27.62,5.78,4.69,6.88,8.34.31.94,1.82.57,1.51-.42-1.3-4.12-3.18-8.76-8-9.44.16.37.32.79.47,1.15a14,14,0,0,1,2.24-2.61.71.71,0,0,0,.11-.93L711.56,354a.83.83,0,0,0-.89-.37,15.41,15.41,0,0,1-5.31.84c.2.42.46.78.67,1.2l4.7-6.73a.83.83,0,0,0-.26-1.09c-11.16-7.67-24.56-15.33-30.3-28.27-.31-.67-1.56-.36-1.46.42,2.29,19.19.26,38.59,3,57.72a150.69,150.69,0,0,0,6.42,27.12c2.39,7.14,4.9,15.85,11,20.7.83.57,1.93-.52,1.15-1.15Z" transform="translate(-181.77 -6.7)" style="fill:#e8e8e8"/><path d="M679.13,321.55c4.22,11.68,7.77,24,13.45,35.1,2.82,5.47,5.89,10.84,8.55,16.42,2.87,6.05,5.42,12.2,8,18.3.37.94,1.72.11,1.36-.78-2.45-5.84-5-11.68-7.62-17.41s-5.63-11-8.55-16.48c-5.84-11.16-9.43-23.67-13.76-35.51-.32-1-1.83-.57-1.46.36Z" transform="translate(-181.77 -6.7)" style="fill:#e8e8e8"/><path d="M681.11,361.18c5.63.68,11.78,1,16.06,5.22.73.73,1.82-.42,1.09-1.1-4.58-4.48-11.1-4.9-17.15-5.63-1-.16-1,1.41,0,1.51Z" transform="translate(-181.77 -6.7)" style="fill:#e8e8e8"/><path d="M696.18,340.06a53.86,53.86,0,0,0-1.83,10.43c-.21,3-.57,6.57.47,9.49.32.94,1.83.52,1.51-.41-1-2.77-.62-6.21-.41-9.13a54,54,0,0,1,1.77-10,.78.78,0,0,0-1.51-.37Z" transform="translate(-181.77 -6.7)" style="fill:#e8e8e8"/><path d="M684.65,389.6c4.07.11,8,.16,12,1.25s7.76,2.24,11.68,3.39a.78.78,0,0,0,.41-1.51c-4.17-1.2-8.29-2.5-12.51-3.6-3.81-1-7.61-.94-11.53-1-1-.11-1,1.46,0,1.51Z" transform="translate(-181.77 -6.7)" style="fill:#e8e8e8"/><path d="M741.7,423a38.75,38.75,0,0,1,10.43,0c-.16-.36-.32-.78-.47-1.14-.31.46-3.44.52-4.07.57-1.41.21-2.87.42-4.27.73a7.4,7.4,0,0,0-1.67.36c.1-.26,2.19-.2,2.5-.2,1.51,0,3,.15,4.54.26V422a11.84,11.84,0,0,0-3.76.47.77.77,0,0,0,.21,1.51A22.05,22.05,0,0,0,751,423a.78.78,0,0,0-.42-1.51,21,21,0,0,1-5.42.89c.05.52.16,1,.21,1.51a12,12,0,0,1,3.34-.42.78.78,0,0,0,0-1.56c-2.3-.1-5.64-.94-7.72.36-.84.53-2,1.88-.94,2.72.47.36,1,.15,1.56.1,1.57-.31,3.08-.68,4.65-.94,1.82-.31,5.47.16,6.72-1.56a.8.8,0,0,0-.47-1.15,39.75,39.75,0,0,0-10.84,0c-.94.1-.94,1.67.05,1.56Z" transform="translate(-181.77 -6.7)" style="fill:#e8e8e8"/><path d="M691.69,424a10.55,10.55,0,0,1,2.19-.41,6.14,6.14,0,0,1,1,0,4.89,4.89,0,0,1,.94,0c-.06-.26-.16-.53-.21-.79a.17.17,0,0,1-.06.11c.32-.16.63-.37.94-.52h-.1l.52.52c0-.05,0-.11-.05-.11a.78.78,0,0,0-1.51.42c0,.05,0,.11.05.11a.76.76,0,0,0,.52.52h.1a.77.77,0,0,0,.94-.52.18.18,0,0,1,0-.11.75.75,0,0,0-.2-.78c-.58-.57-1.83-.47-2.56-.47a12.67,12.67,0,0,0-3.13.47c-.83.31-.41,1.82.52,1.56Z" transform="translate(-181.77 -6.7)" style="fill:#e8e8e8"/><path d="M692.89,434.44c19,3.29,38.8,4.85,57.57-.78a.78.78,0,0,0-.42-1.51c-18.46,5.53-38,4-56.73.78-1-.15-1.41,1.36-.42,1.51Z" transform="translate(-181.77 -6.7)" style="fill:#e8e8e8"/><path d="M758.44,455.87H858.76a.78.78,0,0,0,0-1.56H758.44a.78.78,0,1,0,0,1.56Z" transform="translate(-181.77 -6.7)" style="fill:#e8e8e8"/><path d="M733.15,489.4h94.53a.78.78,0,0,0,0-1.56H733.15a.78.78,0,0,0,0,1.56Z" transform="translate(-181.77 -6.7)" style="fill:#e8e8e8"/><path d="M747.49,489.25c-3.76,3.12-7.51,6.2-11.21,9.33-.79.63.31,1.72,1.09,1.09,3.76-3.12,7.51-6.2,11.21-9.33.78-.62-.36-1.77-1.09-1.09Z" transform="translate(-181.77 -6.7)" style="fill:#e8e8e8"/><path d="M736.75,500.25a.79.79,0,0,0,0-1.57.79.79,0,0,0,0,1.57Z" transform="translate(-181.77 -6.7)" style="fill:#e8e8e8"/><path d="M752.65,498.68H657.38a.79.79,0,0,0,0,1.57h95.27a.79.79,0,0,0,0-1.57Z" transform="translate(-181.77 -6.7)" style="fill:#e8e8e8"/><path d="M657.23,514.85q8.44-7,17.36-13.51c.78-.57,0-1.93-.78-1.35-6,4.38-11.94,9-17.68,13.71-.78.68.32,1.77,1.1,1.15Z" transform="translate(-181.77 -6.7)" style="fill:#e8e8e8"/><path d="M182.52,486.38H324.24a.79.79,0,0,0,0-1.57H182.52a.79.79,0,0,0,0,1.57Z" transform="translate(-181.77 -6.7)" style="fill:#e8e8e8"/><path d="M201.76,500c5-4.23,10-8.45,14.91-12.67.78-.68-.36-1.78-1.09-1.1-5,4.23-10,8.45-14.92,12.67-.78.63.37,1.78,1.1,1.1Z" transform="translate(-181.77 -6.7)" style="fill:#e8e8e8"/><path d="M183.82,501.5H286.44a.78.78,0,0,0,0-1.56H183.82a.78.78,0,0,0,0,1.56Z" transform="translate(-181.77 -6.7)" style="fill:#e8e8e8"/><path d="M274.5,501.19c-3.91,4.38-7.93,8.65-12,12.93-.67.73.42,1.82,1.1,1.09,4.07-4.27,8-8.55,12-12.93.73-.73-.41-1.82-1.09-1.09Z" transform="translate(-181.77 -6.7)" style="fill:#e8e8e8"/><path d="M247.8,516.62H338a.78.78,0,0,0,0-1.56H247.8a.78.78,0,0,0,0,1.56Z" transform="translate(-181.77 -6.7)" style="fill:#e8e8e8"/><path d="M226.47,460.15h38.22a.78.78,0,0,0,0-1.56H226.47a.78.78,0,0,0,0,1.56Z" transform="translate(-181.77 -6.7)" style="fill:#e8e8e8"/><path d="M274.34,465.26h11.79a.78.78,0,0,0,0-1.56H274.34a.78.78,0,0,0,0,1.56Z" transform="translate(-181.77 -6.7)" style="fill:#e8e8e8"/><path d="M246,186.45V212a.78.78,0,0,0,1.56,0V186.45a.78.78,0,0,0-1.56,0Z" transform="translate(-181.77 -6.7)" style="fill:#e8e8e8"/><path d="M219.8,213.25h62.88a.78.78,0,0,0,0-1.56H219.8a.78.78,0,0,0,0,1.56Z" transform="translate(-181.77 -6.7)" style="fill:#e8e8e8"/><path d="M263.7,214v19.66a.79.79,0,0,0,1.57,0V214a.79.79,0,0,0-1.57,0Z" transform="translate(-181.77 -6.7)" style="fill:#e8e8e8"/><path d="M246.34,236.35h50.11a.78.78,0,0,0,0-1.56H246.34a.78.78,0,0,0,0,1.56Z" transform="translate(-181.77 -6.7)" style="fill:#e8e8e8"/><path d="M667.13,168.15v6.2a.79.79,0,0,0,1.57,0v-6.2a.79.79,0,0,0-1.57,0Z" transform="translate(-181.77 -6.7)" style="fill:#e8e8e8"/><path d="M668.39,169.4H776a.78.78,0,0,0,0-1.56H668.39a.78.78,0,0,0,0,1.56Z" transform="translate(-181.77 -6.7)" style="fill:#e8e8e8"/><path d="M669.32,175.14H776a.79.79,0,0,0,0-1.57H669.32a.79.79,0,0,0,0,1.57Z" transform="translate(-181.77 -6.7)" style="fill:#e8e8e8"/><path d="M775.75,168.15a23.78,23.78,0,0,0,.26,6.41c.16,1,1.67.58,1.51-.41a21.21,21.21,0,0,1-.21-6c.11-1-1.46-1-1.56,0Z" transform="translate(-181.77 -6.7)" style="fill:#e8e8e8"/><path d="M675.74,168.2V124.56a.79.79,0,0,0-1.57,0V168.2a.79.79,0,0,0,1.57,0Z" transform="translate(-181.77 -6.7)" style="fill:#e8e8e8"/><path d="M675.74,124.82a14.67,14.67,0,0,1,13.24.94.78.78,0,0,0,.78-1.36,16.21,16.21,0,0,0-14.44-1.09c-.94.36-.52,1.87.42,1.51Z" transform="translate(-181.77 -6.7)" style="fill:#e8e8e8"/><path d="M688.72,125.39v42a.79.79,0,0,0,1.57,0v-42a.79.79,0,0,0-1.57,0Z" transform="translate(-181.77 -6.7)" style="fill:#e8e8e8"/><path d="M690.49,137.07a10.24,10.24,0,0,1,9.49.73.78.78,0,0,0,.79-1.35,11.74,11.74,0,0,0-10.69-.89c-.94.36-.52,1.88.41,1.51Z" transform="translate(-181.77 -6.7)" style="fill:#e8e8e8"/><path d="M699.67,137.75v29.36a.79.79,0,0,0,1.57,0V137.75a.79.79,0,0,0-1.57,0Z" transform="translate(-181.77 -6.7)" style="fill:#e8e8e8"/><path d="M676,136.81a23.24,23.24,0,0,1,13.08.84c.94.31,1.36-1.2.42-1.52a25.37,25.37,0,0,0-13.92-.83c-.94.21-.52,1.72.42,1.51Z" transform="translate(-181.77 -6.7)" style="fill:#e8e8e8"/><path d="M689.4,154.9a21.26,21.26,0,0,1,10.06-.26c1,.21,1.41-1.3.42-1.51a22.73,22.73,0,0,0-10.9.26.78.78,0,0,0,.42,1.51Z" transform="translate(-181.77 -6.7)" style="fill:#e8e8e8"/><path d="M719.38,167.68v-8.76a.78.78,0,0,0-1.56,0v8.76a.78.78,0,0,0,1.56,0Z" transform="translate(-181.77 -6.7)" style="fill:#e8e8e8"/><path d="M718.6,159.39h50.79a.79.79,0,0,0,0-1.57H718.6a.79.79,0,0,0,0,1.57Z" transform="translate(-181.77 -6.7)" style="fill:#e8e8e8"/><path d="M769.91,160.22a.78.78,0,0,0,0-1.56.78.78,0,1,0,0,1.56Z" transform="translate(-181.77 -6.7)" style="fill:#e8e8e8"/><path d="M769.13,159.44v8a.78.78,0,0,0,1.56,0v-8a.78.78,0,0,0-1.56,0Z" transform="translate(-181.77 -6.7)" style="fill:#e8e8e8"/><path d="M729.24,158.35v-8.24a.79.79,0,0,0-1.57,0v8.24a.79.79,0,0,0,1.57,0Z" transform="translate(-181.77 -6.7)" style="fill:#e8e8e8"/><path d="M728.45,150.63h50a.79.79,0,0,0,0-1.57h-50a.79.79,0,0,0,0,1.57Z" transform="translate(-181.77 -6.7)" style="fill:#e8e8e8"/><path d="M777.89,149.85v6.88a.78.78,0,0,0,1.56,0v-6.88a.78.78,0,1,0-1.56,0Z" transform="translate(-181.77 -6.7)" style="fill:#e8e8e8"/><path d="M768.81,159.65h9.08a.78.78,0,0,0,0-1.56h-9.08a.78.78,0,1,0,0,1.56Z" transform="translate(-181.77 -6.7)" style="fill:#e8e8e8"/><path d="M777.78,156.78a3.52,3.52,0,0,0,.05,1.62.76.76,0,1,0,1.46-.42,2.12,2.12,0,0,1,0-.78c0-.42-.1-.89-.52-.94a.75.75,0,0,0-.94.52Z" transform="translate(-181.77 -6.7)" style="fill:#e8e8e8"/><path d="M740.34,150.21a21.21,21.21,0,0,1,.47,8.14c-.1,1,1.46,1,1.57,0a24,24,0,0,0-.52-8.56.79.79,0,0,0-1.52.42Z" transform="translate(-181.77 -6.7)" style="fill:#e8e8e8"/><path d="M752.13,159.28a20.17,20.17,0,0,1-.47,7.67.78.78,0,0,0,1.51.42,21.2,21.2,0,0,0,.47-8.5c-.1-1-1.62-.58-1.51.41Z" transform="translate(-181.77 -6.7)" style="fill:#e8e8e8"/><path d="M741.91,222.74v12.31a.78.78,0,0,0,1.56,0V222.74a.78.78,0,0,0-1.56,0Z" transform="translate(-181.77 -6.7)" style="fill:#e8e8e8"/><path d="M729.81,235.26H761.1a.79.79,0,0,0,0-1.57H729.81a.79.79,0,0,0,0,1.57Z" transform="translate(-181.77 -6.7)" style="fill:#e8e8e8"/><path d="M712,59.85V88.06a.78.78,0,0,0,1.56,0V59.85a.78.78,0,0,0-1.56,0Z" transform="translate(-181.77 -6.7)" style="fill:#e8e8e8"/><path d="M714,59.8h35.61a.79.79,0,0,0,0-1.57H714a.79.79,0,0,0,0,1.57Z" transform="translate(-181.77 -6.7)" style="fill:#e8e8e8"/><path d="M749.68,59.59V86.75a.78.78,0,0,0,1.56,0V59.59a.78.78,0,0,0-1.56,0Z" transform="translate(-181.77 -6.7)" style="fill:#e8e8e8"/><path d="M712.6,88.94h37.86a.78.78,0,0,0,0-1.56H712.6a.78.78,0,0,0,0,1.56Z" transform="translate(-181.77 -6.7)" style="fill:#e8e8e8"/><path d="M715.52,63.08V84.46a.79.79,0,0,0,1.57,0V63.08a.79.79,0,0,0-1.57,0Z" transform="translate(-181.77 -6.7)" style="fill:#e8e8e8"/><path d="M716.67,63.71H746a.79.79,0,0,0,0-1.57h-29.3a.79.79,0,0,0,0,1.57Z" transform="translate(-181.77 -6.7)" style="fill:#e8e8e8"/><path d="M745.4,63.08V82.9a.79.79,0,0,0,1.57,0V63.08a.79.79,0,0,0-1.57,0Z" transform="translate(-181.77 -6.7)" style="fill:#e8e8e8"/><path d="M716.67,85.24h29.15a.78.78,0,0,0,0-1.56H716.67a.78.78,0,0,0,0,1.56Z" transform="translate(-181.77 -6.7)" style="fill:#e8e8e8"/><path d="M735.13,75.86c-4.12-3.13,2-9.65,4.9-5.74,2.66,3.55-1.67,7.82-5.37,5.84-.89-.47-1.67.89-.78,1.36a5.76,5.76,0,0,0,7.3-1.31,5.65,5.65,0,0,0-.68-7.66c-2.35-1.93-5.68-.63-7.3,1.56a5.19,5.19,0,0,0,1.15,7.3c.83.58,1.56-.78.78-1.35Z" transform="translate(-181.77 -6.7)" style="fill:#e8e8e8"/><path d="M730.18,83.57c-.21-4.12,4.84-5.68,8-5.68,3.91,0,5.16,3.49,6.77,6.47.47.88,1.83.1,1.36-.79-1.1-2-2.14-4.59-4-6-1.67-1.3-3.76-1.25-5.74-1-3.65.42-8.29,2.66-8,7.09,0,1,1.62,1,1.57,0Z" transform="translate(-181.77 -6.7)" style="fill:#e8e8e8"/><path d="M717.35,79.82c1.15-2.14,5.37-1.3,6.93-.47a6.07,6.07,0,0,1,3,4.12c.2,1,1.72.57,1.51-.42a7.75,7.75,0,0,0-5.22-5.73c-2.29-.73-6.2-.79-7.51,1.66-.52.94.84,1.73,1.31.84Z" transform="translate(-181.77 -6.7)" style="fill:#e8e8e8"/><path d="M720.37,76c-1.72,0-1.3-2.61-.57-3.49a2.69,2.69,0,0,1,4.33,3.18,2.4,2.4,0,0,1-2.14.88c-.31,0-1.62.06-1.83-.2-.57-.84-1.93-.06-1.35.78s1.93,1,3,1a4.18,4.18,0,0,0,3.34-1.2A4.25,4.25,0,1,0,718,72.31c-.94,2-.26,5.11,2.34,5.16,1,.11,1-1.46,0-1.51Z" transform="translate(-181.77 -6.7)" style="fill:#e8e8e8"/></g><g id="icons"><path d="M401.26,198.44c2.45,2,5.47,1.15,7.77-.78,3.23-2.66,4.85-7.19,5.47-11.21,1.62-10.22-2.5-19.92-4.12-29.82-2.92-18.41,5.11-38.12,20-49.18,7.25-5.42,19.19-11.21,16.38-22.31a.78.78,0,0,0-1.51.41c2.66,10.59-9.65,16-16.38,21.07A52.15,52.15,0,0,0,414.45,124a54.48,54.48,0,0,0-6.1,21.12c-.68,8.92,1.67,17.21,3.6,25.81,1.14,5.22,1.87,10.69.88,16a21.09,21.09,0,0,1-2.6,7c-1.46,2.29-5,5.84-7.88,3.49-.73-.68-1.88.42-1.09,1Z" transform="translate(-181.77 -6.7)" style="fill:#e8e8e8"/><path d="M446.2,84.51a10.06,10.06,0,0,1-10.74-10.37c.32-6.31,7.77-12.15,14.08-10.49,5.63,1.52,10,7.72,8.55,13.51s-7.92,7-12.93,7.87c-1,.16-.57,1.67.42,1.52,6.46-1,14-3.34,14.39-11.16.31-6.36-5.37-13.25-11.89-13.51-6.88-.31-13.82,5.32-14.18,12.31s5.58,12.2,12.3,11.94c1-.11,1-1.67,0-1.62Z" transform="translate(-181.77 -6.7)" style="fill:#e8e8e8"/><path d="M438.49,80.44c2.5-6.3,15.85-7.35,17.41.16.21,1,1.72.57,1.52-.42C455.49,71,440,72.36,437,80c-.36.94,1.15,1.3,1.52.41Z" transform="translate(-181.77 -6.7)" style="fill:#e8e8e8"/><path d="M446.31,73.41a2.59,2.59,0,0,1-.78-3.45,2.9,2.9,0,0,1,4-.83,2,2,0,0,1,.62,2.87c-.78,1.2-2.45,1.35-3.75,1-1-.21-1.41,1.3-.42,1.51,2.09.47,4.59,0,5.63-2a3.54,3.54,0,0,0-1.61-4.9,4.43,4.43,0,0,0-5.79,1.51,4.17,4.17,0,0,0,1.36,5.58c.83.68,1.61-.68.78-1.3Z" transform="translate(-181.77 -6.7)" style="fill:#e8e8e8"/><path d="M468.42,57.35c5.47-14.5,21.22-21.9,35.87-22.9,9.7-.67,19.4.84,28.89,2.66,9,1.78,18.3,4.59,27.48,4.28C568.22,41.13,576,38,579.53,31c.47-.89-.88-1.67-1.35-.78-4.12,8.13-13.61,10.22-22,9.54-9.8-.78-19.45-3.7-29.09-5.32-15.64-2.6-32.33-3-46.25,5.84a34.24,34.24,0,0,0-14,16.69c-.31.94,1.2,1.35,1.57.42Z" transform="translate(-181.77 -6.7)" style="fill:#e8e8e8"/><path d="M585.84,30.07h41.35a.78.78,0,0,0,0-1.56H585.84a.78.78,0,1,0,0,1.56Z" transform="translate(-181.77 -6.7)" style="fill:#e8e8e8"/><path d="M585.27,28.41c-2.45-2.4.21-6.47,2.14-8.29a8,8,0,0,1,8.71-1.93.77.77,0,0,0,.88-.37,11.91,11.91,0,0,1,11.16-7.35,11.73,11.73,0,0,1,10.59,8.81.79.79,0,0,0,1.14.47c2.3-1.41,4.64.26,5.58,2.4.84,2,.63,4.22.42,6.36-.11,1,1.46,1,1.56,0,.32-3.13.52-6.83-2-9.23a5.09,5.09,0,0,0-6.31-.89l1.15.47A12.94,12.94,0,0,0,595.7,17c.31-.11.57-.26.88-.37-4.17-1.66-8.55.11-11.26,3.55-2,2.55-3.8,6.67-1,9.33.62.68,1.72-.41,1-1.14Z" transform="translate(-181.77 -6.7)" style="fill:#e8e8e8"/><path d="M614.94,36.07c6.41-.73,10.17,6,11.16,11.42,1,5.58,0,11.16-.52,16.74-.89,8.39-.32,18.51,7.66,23.41a.78.78,0,0,0,.78-1.36c-10.89-6.67-6.36-21.53-5.94-31.75.31-7.77-2.76-21.17-13.14-20-1,.1-1,1.67,0,1.56Z" transform="translate(-181.77 -6.7)" style="fill:#e8e8e8"/><path d="M641.9,78.83c-4.7,11.83-9.34,23.67-14,35.46-.36.93,1.15,1.35,1.51.41,4.7-11.83,9.34-23.67,14-35.45.36-.94-1.15-1.31-1.51-.42Z" transform="translate(-181.77 -6.7)" style="fill:#e8e8e8"/><path d="M642.63,79.82a145.05,145.05,0,0,1,24.3.73,10.45,10.45,0,0,1-.73-1,358.65,358.65,0,0,0-9.49,37.54c-.21,1,1.3,1.41,1.51.42A370.87,370.87,0,0,1,667.71,80a.8.8,0,0,0-.73-1,147.17,147.17,0,0,0-24.3-.73c-1,.06-1,1.62,0,1.57Z" transform="translate(-181.77 -6.7)" style="fill:#e8e8e8"/><path d="M628.24,115.8c4.79.21,9.54.47,14.33.78s9.6.16,14,1.93c.94.36,1.36-1.15.42-1.51-4.17-1.72-8.92-1.62-13.35-1.88-5.11-.31-10.22-.57-15.38-.83-1-.11-1,1.46,0,1.51Z" transform="translate(-181.77 -6.7)" style="fill:#e8e8e8"/><path d="M643.36,85a131.26,131.26,0,0,1,15,1.15c1,.16,1.41-1.36.42-1.51a125.71,125.71,0,0,0-15.38-1.25.81.81,0,0,0,0,1.61Z" transform="translate(-181.77 -6.7)" style="fill:#e8e8e8"/><path d="M641.84,88.58a64.41,64.41,0,0,1,8.45.21c1,.1,1-1.46,0-1.57a58.15,58.15,0,0,0-8.45-.21c-1,.06-1,1.62,0,1.57Z" transform="translate(-181.77 -6.7)" style="fill:#e8e8e8"/><path d="M638.4,95.62c6-.37,11.68-.89,17.58.57a.78.78,0,0,0,.41-1.51c-6-1.46-11.83-1-18-.63-1,.06-1,1.62,0,1.57Z" transform="translate(-181.77 -6.7)" style="fill:#e8e8e8"/><path d="M638.66,100.21a62.51,62.51,0,0,1,10.33.05c1,.1,1-1.46,0-1.57a62.51,62.51,0,0,0-10.33,0c-1,.11-1,1.67,0,1.57Z" transform="translate(-181.77 -6.7)" style="fill:#e8e8e8"/><path d="M636,106.26a68.86,68.86,0,0,1,13.92.46c1,.16,1-1.4,0-1.56a69,69,0,0,0-13.92-.47c-1,0-1,1.62,0,1.57Z" transform="translate(-181.77 -6.7)" style="fill:#e8e8e8"/><path d="M376.49,36.28c2.08,2.82,5.11,4,8.19,5.37a29.65,29.65,0,0,1,9.69,6.88c6.16,6.63,8.19,15.54,8.35,24.35.36,16.53-5.22,33.84,2.29,49.49.42.88,1.77.1,1.36-.78-7.88-16.48-.89-34.94-2.25-52.25-.57-7.51-2.71-14.86-7.56-20.7a30.15,30.15,0,0,0-8.23-6.94c-3.5-2-8-2.87-10.49-6.2-.57-.78-1.92,0-1.35.78Z" transform="translate(-181.77 -6.7)" style="fill:#e8e8e8"/><path d="M358.66,14.22q-2-2.58.31-3.59a7.42,7.42,0,0,1,2.14-.79,12.5,12.5,0,0,1,3.13-.21c3.12.16,6.3,1,6.15,4.8a63.08,63.08,0,0,1-2.09,13.25c-1.14,4.43-2.55,8.76-4.06,13.08a19.91,19.91,0,0,1-1.05,2.92c-.94,1.62-2.4,1.57-4,1.57-1.93,0-4.38.26-6.26-.26-2.08-.58-2.55-2.66-.52-4a6.21,6.21,0,0,1,3.34-.73c1.41,0,2.66.32,3.86-.62,2.29-1.78,2.66-6.57,3.18-9.13.78-3.7,2.08-8.24,1.82-12-.21-2.87-3-3-5.06-4.17a.78.78,0,0,0-.78,1.35c1.62.94,4,1.05,4.28,3.18.36,2.51-.68,5.9-1.15,8.4s-1,4.8-1.62,7.14c-.46,1.78-.67,3.91-3,4.38-.94.21-2.09-.1-3.08,0-2.5.37-5,2.14-4.58,5,.46,3.54,4.69,2.92,7.3,3,3.23.11,6.46.58,7.92-2.87a109.77,109.77,0,0,0,4.38-13.4,71.87,71.87,0,0,0,2.66-14.07c.31-3.71.47-6.68-3.65-7.67-3.6-.89-8.55-1.3-11.37,1.62-1.87,1.93-1.4,5.73,1.83,5.47.94-.21.94-1.77,0-1.67Z" transform="translate(-181.77 -6.7)" style="fill:#e8e8e8"/><path d="M352.35,19.8l-.16-.15a.87.87,0,0,0-.78-.21c-1.51.52-2.09,3-2.5,4.33a18.15,18.15,0,0,0-.53,7.66c.11,1,1.67,1,1.57,0A18.93,18.93,0,0,1,350,26c.16-.94,1.77-4.59,1.2-5.11a.8.8,0,0,0,1.15-1.1Z" transform="translate(-181.77 -6.7)" style="fill:#e8e8e8"/><path d="M347.08,14.07c-4.8,6.1-7.87,13.45-5.84,21.27a.78.78,0,0,0,1.51-.42c-1.87-7.19,1.05-14.13,5.43-19.76.62-.78-.47-1.88-1.1-1.09Z" transform="translate(-181.77 -6.7)" style="fill:#e8e8e8"/><path d="M340.51,7a52.2,52.2,0,0,0-10.38,36.86c.11,1,1.67,1,1.57,0A50.89,50.89,0,0,1,341.87,7.81c.57-.78-.79-1.56-1.36-.78Z" transform="translate(-181.77 -6.7)" style="fill:#e8e8e8"/><path d="M329.4,60.32a34.36,34.36,0,0,0-10.74,7.92c-3,3.44-4,7.15-4.43,11.63-1,10.27-4.85,21.54-15.17,25.86-.94.37-.52,1.88.41,1.52,8.24-3.45,13-11.27,15.07-19.71,1.2-5.06.63-11.06,3.29-15.59s7.61-8,12.36-10.33c.93-.36.15-1.72-.79-1.3Z" transform="translate(-181.77 -6.7)" style="fill:#e8e8e8"/><path d="M277,133.42c-3.44.11-7.35-1.35-8.6-4.9-1.46-4.17,1.67-8.24,5-10.38,6.47-4.17,15.18-5.78,22.68-5.89,3.81,0,8.14,0,11.48,2,4.27,2.6,5,7.5,1.66,11.21-5.05,5.63-13.76,6.2-20.75,6.72-1,.05-1,1.62,0,1.57,7-.52,14.81-1.15,20.44-5.84,5.16-4.28,5.53-11.37-.52-15.07-6.26-3.81-15.8-2.56-22.58-1.1-6.52,1.41-15.43,4-18.35,10.69-3,6.88,2.76,12.62,9.64,12.41.94.05.94-1.51-.1-1.46Z" transform="translate(-181.77 -6.7)" style="fill:#e8e8e8"/><path d="M276.74,134.05c-1.3,2.08-2.56,4.17-3.86,6.2-.42.68.42,1.41,1.1,1.1,3.18-1.72,6.62-2.82,9.85-4.33a41.34,41.34,0,0,0,5.16-2.76c.58-.37,1.25-.58,1.41-1.31a.75.75,0,0,0-.52-.94.22.22,0,0,1-.16,0c-.36-.05-.88.11-.94.52v.11c-.2,1,1.31,1.41,1.52.41v-.1c-.32.16-.63.37-.94.52a.18.18,0,0,1,.15.05c-.15-.31-.36-.62-.52-.93-.15.52-3.07,1.72-3.7,2.08a49.43,49.43,0,0,1-4.85,2.19A67.35,67.35,0,0,0,273.3,140l1.09,1.1c1.31-2.09,2.56-4.17,3.86-6.21.37-.88-1-1.67-1.51-.83Z" transform="translate(-181.77 -6.7)" style="fill:#e8e8e8"/><path d="M278.46,125c0-.11,0-.32.1-.32.42,0-.05.53-.1.58-.26.15-1.15.36-1.09-.16s1.25-1.3,1.46-.36a.57.57,0,0,1-.42.62.33.33,0,0,1-.37,0c-.05,0-.15-.1-.05-.1,1,.05,1-1.52,0-1.57a1.57,1.57,0,0,0-1.56,2,1.92,1.92,0,0,0,2.34,1.25,2.22,2.22,0,0,0,1.67-2.08,2.18,2.18,0,0,0-1.67-2c-1.93-.46-4,2.35-2.29,3.76,1.35,1.15,4.07.1,3.91-1.83a1.8,1.8,0,0,0-2.29-1.51,1.85,1.85,0,0,0-.94,2.61c.41.89,1.77.1,1.3-.78Z" transform="translate(-181.77 -6.7)" style="fill:#e8e8e8"/><path d="M290,123.62c-.05-.31-.2-.73.11-1a.85.85,0,0,1,.62-.16c.53.11.42.68.06.94a.37.37,0,0,1-.58,0c-.15-.21-.1-.26.05-.37s-.2,0,.06,0c.62-.1-.42.63-.26.11-.32,1,1.2,1.35,1.51.41a1.42,1.42,0,0,0-1.57-1.72,1.4,1.4,0,1,0,1.57,2,1.55,1.55,0,0,0-.78-2.25,1.7,1.7,0,0,0-2.19,1.2,2,2,0,0,0,1.51,2.35c1.88.42,3.44-2.14,2.08-3.55a2.38,2.38,0,0,0-2.6-.36c-1.15.57-1.2,1.77-1,2.87.05,1,1.56.57,1.4-.42Z" transform="translate(-181.77 -6.7)" style="fill:#e8e8e8"/><path d="M301.56,120.13c.21,0,.42.05.68.05v-.05c.05-.06.05-.16.1-.21a.71.71,0,0,1,.31-.26c.27-.11.53-.11.68.15.21.42-.15,1.2-.68.89-.31-.21-.36-.73.11-.63a.29.29,0,0,1,.21.11h0c0-.11,0,0-.05,0s-.21.21-.37.1a.82.82,0,0,0-1.09.26.87.87,0,0,0,.26,1.1c1.51,1.09,3.54-1.1,2.34-2.56a1.91,1.91,0,0,0-3.33,1.26,2.12,2.12,0,0,0,1.56,1.87,2.07,2.07,0,0,0,2.19-.94,2.13,2.13,0,0,0-2.35-3.23,2.23,2.23,0,0,0-1.56,2.19c.1,1.1,1.67,1.67,2.24.58a.72.72,0,1,0-1.25-.73Z" transform="translate(-181.77 -6.7)" style="fill:#e8e8e8"/><path d="M333.05,74.66a56.92,56.92,0,0,0,16.64-13.93c.62-.78-.47-1.87-1.1-1.09A55.51,55.51,0,0,1,332.27,73.3c-.88.47-.1,1.83.78,1.36Z" transform="translate(-181.77 -6.7)" style="fill:#e8e8e8"/><path d="M411.06,76a89.94,89.94,0,0,0-1.3,19.87c.05,1,1.61,1,1.56,0a86.76,86.76,0,0,1,1.25-19.45c.16-1-1.35-1.41-1.51-.42Z" transform="translate(-181.77 -6.7)" style="fill:#e8e8e8"/><path d="M403.08,228.43a25.43,25.43,0,0,1,10.17-20.34c.78-.57,0-1.93-.78-1.35a26.87,26.87,0,0,0-10.9,21.69c-.05,1,1.51,1,1.51,0Z" transform="translate(-181.77 -6.7)" style="fill:#e8e8e8"/></g><g id="chair"><path d="M490.42,439a210,210,0,0,0,14.24,56.11,14.11,14.11,0,0,1-14.55,2.6c-1.88-6.51-3.7-13.29-5.37-20.33-3.44-14.5-5.95-28.32-7.77-41.2Q483.78,437.57,490.42,439Z" transform="translate(-181.77 -6.7)" style="fill:#191919"/><path d="M607.48,434.08a203.47,203.47,0,0,1-3.75,24.66,207.33,207.33,0,0,1-10,32.8,10.92,10.92,0,0,0,15.22,0c1.2-6.31,2.35-12.67,3.5-19,2.5-13.92,4.74-27.64,6.88-41.19C615.41,432.2,611.45,433.14,607.48,434.08Z" transform="translate(-181.77 -6.7)" style="fill:#191919"/><path d="M514.25,413.27c1.2,8,2.61,16.22,4.22,24.67,2.35,12.25,5,23.93,7.83,35a15.1,15.1,0,0,1-13.09,1.19c-1.57-7.4-3.08-14.91-4.59-22.42-2.76-13.92-5.32-27.63-7.77-41.19C505.33,411.4,509.77,412.34,514.25,413.27Z" transform="translate(-181.77 -6.7)" style="fill:#191919"/><path d="M587.82,411.71c-1.4,7.87-2.65,16.11-3.75,24.66q-2.27,17.69-3.18,33.79a12.08,12.08,0,0,0,5.94,1.93,11.94,11.94,0,0,0,6.42-1.67,160.55,160.55,0,0,1-.42-20.28A166.81,166.81,0,0,1,599.71,409C595.75,409.83,591.79,410.77,587.82,411.71Z" transform="translate(-181.77 -6.7)" style="fill:#191919"/><path d="M680.48,237.24c9.13,16.27,2.09,34.26-15,78.94-8.24,21.49-23.31,61-44.59,117.22a239.47,239.47,0,0,1-98.34,14A235.59,235.59,0,0,1,461,434.81c-2.34-4.22-10.48-20-4.38-35.35,3.39-8.5,10.22-14.6,24.72-21.8,14.29-7.09,39.47-17.05,76.08-18.88-14.34-71.38,10.22-129.88,48.44-143.39C631,206.58,667.92,214.87,680.48,237.24Z" transform="translate(-181.77 -6.7)" style="fill:#fff;stroke:#191919;stroke-miterlimit:10;stroke-width:2px"/><path d="M677.15,243.13C662,262.27,658.58,288,652.8,311c-6.21,24.61-13.35,49.17-24,72.27a210.91,210.91,0,0,1-21.12,36.13c-.57.84.78,1.62,1.35.79,14.55-19.82,24.82-42.29,32.75-65.44,8-23.57,13.35-47.87,19.61-71.91,3.54-13.66,8.08-27.32,16.94-38.53.58-.84-.52-1.93-1.14-1.15Z" transform="translate(-181.77 -6.7)" style="fill:#191919"/><path d="M461.33,423.49a219.66,219.66,0,0,0,140.31,3.71c.94-.32.58-1.83-.41-1.52a219.16,219.16,0,0,1-109.82,4.91A216.94,216.94,0,0,1,461.74,422c-.94-.36-1.35,1.15-.41,1.51Z" transform="translate(-181.77 -6.7)" style="fill:#191919"/><path d="M583.76,382.51A39.91,39.91,0,0,1,605,399c.52.83,1.88.05,1.36-.79A41.81,41.81,0,0,0,584.17,381c-1-.32-1.4,1.2-.41,1.51Z" transform="translate(-181.77 -6.7)" style="fill:#191919"/></g><g id="leg_r" data-name="leg r"><path d="M426.91,450c4.17,6.26,8.34,12.57,12.46,18.83-26.69,24-30.14,30.81-28.15,32.48,4,3.29,32.38-11.31,35.3-12.82a196.71,196.71,0,0,0,23.88-14.45,112.91,112.91,0,0,0-7.82-16.89A125.54,125.54,0,0,0,448.29,437C441.15,441.27,434,445.65,426.91,450Z" transform="translate(-181.77 -6.7)" style="fill:#191919"/><path d="M582.92,327.13A45,45,0,0,1,587.09,344a46.19,46.19,0,0,1-5.57,23.77,59.69,59.69,0,0,1-7.62,8.14A87.8,87.8,0,0,1,552.16,389c-13.61,5.85-53.19,12.88-106.95,14.24a89.38,89.38,0,0,0,9.39,23.67,97.88,97.88,0,0,0,8.76,12.83c-2,2.61-7.61,9.23-18.82,13.4a58,58,0,0,1-24.62,3.23,126.74,126.74,0,0,1-16.79-18.66A103.58,103.58,0,0,1,383,381.41a167.67,167.67,0,0,1,17.16-10.79c15.64-8.6,30-13.3,41.77-16.79,20.28-5.94,39.68-10.06,84.31-17.62C540.17,333.86,559.51,330.63,582.92,327.13Z" transform="translate(-181.77 -6.7)" style="fill:#fff;stroke:#191919;stroke-miterlimit:10;stroke-width:2px"/><path d="M533.39,336.1c-1.51,10-5.79,22.89-19,30.92-12.88,7.82-23.68,4.64-49.49,10.9-18.56,4.48-43.12,10.43-49.95,23.62-7.15,13.87,6.36,33.43,30,49.49A31.26,31.26,0,0,0,452,449.2a23.8,23.8,0,0,0,11.42-9.07,99.38,99.38,0,0,1-9-12.73,87.92,87.92,0,0,1-10-24.35c27.64-1.14,50.84-3.54,68.47-5.84,21.22-2.76,35.92-5.52,50-13.45,11.73-6.62,16.42-13.14,18.09-15.64a34.92,34.92,0,0,0,5.69-18.57,42.37,42.37,0,0,0-5.22-22.21Z" transform="translate(-181.77 -6.7)" style="fill:#6c6d6d;opacity:0.1899999976158142;isolation:isolate"/><path d="M581.93,328.44c-1,9.7-4.74,25-19.5,37.12-9.07,7.46-18.82,10.8-57.1,21.12-16.89,4.54-37.33,9.91-60.59,15.75a569.38,569.38,0,0,0,70.87-5.11c17.88-2.45,26.64-4.59,35.71-8.5,8.61-3.7,26-11.21,33.06-27C591.21,346.48,584.33,332.71,581.93,328.44Z" transform="translate(-181.77 -6.7)" style="fill:#6c6d6d;opacity:0.1899999976158142;isolation:isolate"/><path d="M444.9,403.21a129.76,129.76,0,0,0,1.41,23.41,136.53,136.53,0,0,0,5.47,22.89,40.08,40.08,0,0,0,11.27-10,113.08,113.08,0,0,1-9-13.71A99.37,99.37,0,0,1,444.9,403.21Z" transform="translate(-181.77 -6.7)" style="fill:#6c6d6d;opacity:0.2199999988079071;isolation:isolate"/></g><g id="leg_l" data-name="leg l"><path d="M442.5,480c4,7.88,8,15.75,12,23.68-25.66,30.14-29,38.69-27.07,40.77,3.81,4.17,31.13-14.23,33.95-16.11a193.23,193.23,0,0,0,23-18.14,167.44,167.44,0,0,0-21.27-46.67C456.22,469,449.33,474.49,442.5,480Z" transform="translate(-181.77 -6.7)" style="fill:#191919"/><path d="M592.47,325.52a71,71,0,0,1,4,21.17,72.27,72.27,0,0,1-5.37,29.87,73.45,73.45,0,0,1-7.3,10.28A84.17,84.17,0,0,1,563,403.31c-13.09,7.3-51.15,16.22-102.77,17.89a132.18,132.18,0,0,0,9,29.72A127.51,127.51,0,0,0,477.65,467a42.48,42.48,0,0,1-41.77,20.86,148.39,148.39,0,0,1-16.11-23.46,157.15,157.15,0,0,1-19.4-70.71,165.52,165.52,0,0,1,16.48-13.56A172.55,172.55,0,0,1,457,359c19.45-7.45,38.17-12.61,81.08-22.16C551.32,333.91,570,329.9,592.47,325.52Z" transform="translate(-181.77 -6.7)" style="fill:#fff;stroke:#191919;stroke-miterlimit:10;stroke-width:2px"/><path d="M544.86,336.78c-1.46,12.51-5.58,28.73-18.3,38.85-12.36,9.85-22.79,5.84-47.56,13.71-17.83,5.63-41.45,13.14-48,29.72-6.88,17.42,6.1,42,28.78,62.16a23.57,23.57,0,0,0,6.88-2.3,25.35,25.35,0,0,0,10.95-11.42,127.57,127.57,0,0,1-8.7-16,129.28,129.28,0,0,1-9.6-30.6,591.34,591.34,0,0,0,65.86-7.3c20.44-3.44,34.52-6.94,48-16.9,11.27-8.34,15.8-16.53,17.37-19.66a54.53,54.53,0,0,0,5.47-23.3,67.18,67.18,0,0,0-5-27.9Q567.92,331.23,544.86,336.78Z" transform="translate(-181.77 -6.7)" style="fill:#6c6d6d;opacity:0.1899999976158142;isolation:isolate"/><path d="M591.47,327.13c-1,12.15-4.53,31.45-18.71,46.67-8.76,9.39-18.1,13.56-54.86,26.54-16.27,5.74-35.87,12.46-58.24,19.82a420.71,420.71,0,0,0,68.15-6.42c17.21-3.07,25.65-5.73,34.31-10.63,8.29-4.7,24.92-14.08,31.81-34C600.44,349.82,593.82,332.56,591.47,327.13Z" transform="translate(-181.77 -6.7)" style="fill:#6c6d6d;opacity:0.1899999976158142;isolation:isolate"/><path d="M459.81,421.15a217.06,217.06,0,0,0,6.63,58.14A42.63,42.63,0,0,0,472,474a47,47,0,0,0,5.26-7.25,143,143,0,0,1-8.6-17.26A145.27,145.27,0,0,1,459.81,421.15Z" transform="translate(-181.77 -6.7)" style="fill:#6c6d6d;opacity:0.2199999988079071;isolation:isolate"/></g><g id="hand_r" data-name="hand r"><path d="M439.53,244.49c-1-.47-3-1.36-2.92-2.35.1-1.62,5.47-2.71,9.49-2.66a23.51,23.51,0,0,1,13.56,4.64C454.18,245.84,446.1,247.41,439.53,244.49Z" transform="translate(-181.77 -6.7)" style="fill:#fff;stroke:#191919;stroke-miterlimit:10;stroke-width:2px"/><path d="M564.93,176.86c-9.9-1.31-18.82,13.55-19.65,14.91-3,5.16-3.39,8.6-5.48,18-5.06,23-7.77,34.68-15.28,41.72a32.68,32.68,0,0,1-16.79,8.13c-8.91,1.41-17-1.93-32.74-8.66-13.3-5.68-14.92-7.76-22.16-8.6-3.71-.42-14.5-1.62-21.64,5.32-4.59,4.43-6.63,11.52-5,13,2.14,1.88,10.9-4.74,11-4.59a20.81,20.81,0,0,0-4.8,4.07c-1.1,1.31-3,4.12-2.3,4.85,1.2,1.46,8.56-7.4,16.64-5.84,5.52,1,6.57,6.05,13,7a15.87,15.87,0,0,0,9.13-1.57,68.57,68.57,0,0,0,18.19,14.19c5.11,2.71,23.16,12,45.21,6.62,23.41-5.74,35.2-24,38.9-29.77,2.09-3.29,17.42-27.8,10-55.28C579.9,195.94,575.15,178.21,564.93,176.86Z" transform="translate(-181.77 -6.7)" style="fill:#fff;stroke:#191919;stroke-miterlimit:10;stroke-width:2px"/><path d="M563.89,177c-3.39,1.78,3.18,14.08,2.35,31.71-.78,16.94-8,29.46-11.27,35.19-4.38,7.67-10.16,17.68-21.69,24.2-15.48,8.76-34.67,7.45-48.33,1.51-4.07-1.77-8.19-7.51-17.16-11a59.93,59.93,0,0,0-10.58-2.87c-8.82-1.72-16.64-3.29-23.89.36-3.44,1.78-6.3,4.49-6.1,4.85s4.23-1.66,7.77-3.59c-4.27,5.68-4.95,7.3-4.64,7.61s1.67-.89,5-2.76c3.6-2,6.2-3.39,9.38-3.13a11.39,11.39,0,0,1,3.6,1c2.87,1.25,3.55,2.71,6.42,4.17a16.07,16.07,0,0,0,4,1.41,17.35,17.35,0,0,0,9.65-.79c4,4.18,22.16,22.63,48.8,22.27A61.8,61.8,0,0,0,545,279.79c21.75-11.32,30.4-31.39,32.59-36.92,6.78-17.1,9.18-42.44-3.23-58.35C571.35,180.66,566.24,175.81,563.89,177Z" transform="translate(-181.77 -6.7)" style="fill:#6c6d6d;opacity:0.25;isolation:isolate"/><path d="M427.17,260.7a22,22,0,0,1,7.88-7.14c.67-.37.05-1.36-.58-1a23.48,23.48,0,0,0-8.29,7.56c-.47.63.57,1.2,1,.57Z" transform="translate(-181.77 -6.7)" style="fill:#191919"/><path d="M427.8,254c2-3.18,5.32-4.85,8.6-6.47.68-.31.11-1.35-.57-1-3.5,1.67-6.94,3.49-9.08,6.88-.36.63.63,1.2,1.05.58Z" transform="translate(-181.77 -6.7)" style="fill:#191919"/><path d="M578.86,195.79a181.51,181.51,0,0,1-4.7,21.84c-4.9,17.73-9.33,33.69-20.91,46.36-14.34,15.64-33.78,19.92-44.94,21.22a51.45,51.45,0,0,0,18.92,1c31.29-4.38,48.18-38,52.77-52.72a55.69,55.69,0,0,0,2.66-15.33A57,57,0,0,0,578.86,195.79Z" transform="translate(-181.77 -6.7)" style="fill:#6c6d6d;opacity:0.28999999165534973;isolation:isolate"/><path d="M447.82,258.57a47,47,0,0,0,22.37,4.79c-7.14,3.81-10.85,3.34-12.93,2.09-1.3-.78-2.76-2.35-6.78-5.11C449.39,259.56,448.45,258.93,447.82,258.57Z" transform="translate(-181.77 -6.7)" style="fill:#6c6d6d;opacity:0.25999999046325684;isolation:isolate"/></g><g id="table"><path d="M342.39,344.29v75.14c0,3,4.69,3,4.69,0V344.29c0-3-4.69-3-4.69,0Z" transform="translate(-181.77 -6.7)" style="fill:#161616"/><path d="M427.69,343.3v12c0,3,4.7,3,4.7,0v-12c0-3-4.7-3-4.7,0Z" transform="translate(-181.77 -6.7)" style="fill:#161616"/><path d="M277.63,341.21q37.94-35.74,75.92-71.54l122.74,2.19q-10,34.72-20,69.4Q366.95,341.18,277.63,341.21Z" transform="translate(-181.77 -6.7)" style="fill:#fff;stroke:#191919;stroke-miterlimit:10;stroke-width:2px"/><path d="M279.14,343.92H454.7c3,0,3-4.69,0-4.69H279.14c-3,0-3,4.69,0,4.69Z" transform="translate(-181.77 -6.7)" style="fill:#161616"/><path d="M292.54,343.14V542.33c0,3,4.69,3,4.69,0V343.14c0-3-4.69-3-4.69,0Z" transform="translate(-181.77 -6.7)" style="fill:#161616"/><path d="M435.57,343.14V542.33c0,3,4.69,3,4.69,0V343.14c0-3-4.69-3-4.69,0Z" transform="translate(-181.77 -6.7)" style="fill:#161616"/><path d="M294.89,440H436.61c3,0,3-4.69,0-4.69H294.89c-3,0-3,4.69,0,4.69Z" transform="translate(-181.77 -6.7)" style="fill:#161616"/><path d="M475.67,271.86q-8.93,34.81-20.6,68.83c-.68,1.93,2.35,2.71,3,.83q11.73-34,20.6-68.82c.47-1.93-2.5-2.77-3-.84Z" transform="translate(-181.77 -6.7)" style="fill:#161616"/><g id="lines"><path d="M226,547.44h83c3,0,3-4.7,0-4.7H226c-3,0-3,4.7,0,4.7Z" transform="translate(-181.77 -6.7)" style="fill:#161616"/><path d="M320.64,546.39h19.14c3,0,3-4.69,0-4.69H320.64c-3,0-3,4.69,0,4.69Z" transform="translate(-181.77 -6.7)" style="fill:#161616"/><path d="M403.66,547.07h74.82c3,0,3-4.69,0-4.69H403.66c-3,0-3,4.69,0,4.69Z" transform="translate(-181.77 -6.7)" style="fill:#161616"/><path d="M495.53,545.4h13.35c3,0,3-4.69,0-4.69H495.53c-3,0-3,4.69,0,4.69Z" transform="translate(-181.77 -6.7)" style="fill:#161616"/><path d="M200.87,530.91H233.2c3,0,3-4.69,0-4.69H200.87c-3,0-3,4.69,0,4.69Z" transform="translate(-181.77 -6.7)" style="fill:#161616"/></g></g><g id="laptop"><path d="M428.94,331.36q-48.26-1.26-96.56-2.45,28.62-27.37,57.2-54.81l66.06,3.45C446.73,295.53,437.86,313.42,428.94,331.36Z" transform="translate(-181.77 -6.7)" style="fill:#fff;stroke:#191919;stroke-miterlimit:10;stroke-width:2px"/><path d="M388.48,273.74q-28.08,27.13-56.16,54.33-1.24-43.49-2.55-87l56.94-36C387.23,228,387.86,250.85,388.48,273.74Z" transform="translate(-181.77 -6.7)" style="fill:#fff;stroke:#191919;stroke-miterlimit:10;stroke-width:2px"/><path d="M331.49,243.81q2.26,38.71,3,77.54a.4.4,0,0,0,.79,0q-.8-38.81-3-77.54c0-.47-.83-.47-.78,0Z" transform="translate(-181.77 -6.7)" style="fill:#191919"/><path d="M331.91,243.91l52.4-34.1a.4.4,0,0,0-.42-.68l-52.4,34.11c-.42.31-.05,1,.42.67Z" transform="translate(-181.77 -6.7)" style="fill:#191919"/><path d="M384.1,209.76c-.05,20.8.58,41.66,1.93,62.41.05.53.84.53.78,0-1.3-20.8-2-41.61-1.93-62.41a.39.39,0,0,0-.78,0Z" transform="translate(-181.77 -6.7)" style="fill:#191919"/><path d="M335,322.44q25.65-24.79,51.36-49.54c.36-.36-.21-.88-.58-.57q-25.65,24.8-51.36,49.54c-.31.36.21.94.58.57Z" transform="translate(-181.77 -6.7)" style="fill:#191919"/><path d="M414.24,313.58c3.18-5.06,6.36-10.17,9.44-15.33.26-.42-.42-.84-.68-.42-3.08,5.16-6.26,10.27-9.44,15.33-.31.42.37.83.68.42Z" transform="translate(-181.77 -6.7)" style="fill:#191919"/><path d="M423.47,298.09c4.12.16,8.24.16,12.36,0a.39.39,0,1,0,0-.78c-4.12.15-8.24.15-12.36.05a.39.39,0,0,0,0,.78Z" transform="translate(-181.77 -6.7)" style="fill:#191919"/><path d="M435.31,297.83c-2.35,5.11-4.75,10.22-7.15,15.33-.21.47.47.83.68.42,2.4-5.11,4.8-10.22,7.14-15.33.21-.53-.47-.89-.67-.42Z" transform="translate(-181.77 -6.7)" style="fill:#191919"/><path d="M414,314c4.59.68,9.44.37,14.08.16a.39.39,0,0,0,0-.78c-4.54.21-9.34.52-13.87-.11-.52-.1-.73.68-.21.73Z" transform="translate(-181.77 -6.7)" style="fill:#191919"/><path d="M431.08,297.88a133.13,133.13,0,0,1-7.19,15.17c-.26.42.41.84.67.42a149,149,0,0,0,7.3-15.38c.16-.47-.57-.68-.78-.21Z" transform="translate(-181.77 -6.7)" style="fill:#191919"/><path d="M355.53,321.5q17.21-21.27,35.61-41.61c.31-.36-.21-.94-.57-.57Q372.18,299.57,355,320.93c-.31.42.26.94.58.57Z" transform="translate(-181.77 -6.7)" style="fill:#191919"/><path d="M369.4,322.39q15.41-21.51,32.48-41.66c.32-.37-.21-.94-.57-.58Q384.18,300.42,368.72,322c-.31.42.36.84.68.42Z" transform="translate(-181.77 -6.7)" style="fill:#191919"/><path d="M384.31,324.53a464.13,464.13,0,0,1,29.2-43.13c.31-.41-.36-.78-.68-.41a464,464,0,0,0-29.2,43.12c-.26.42.42.83.68.42Z" transform="translate(-181.77 -6.7)" style="fill:#191919"/><path d="M396.82,325.83a270.9,270.9,0,0,1,31-45.89c.31-.36-.21-.93-.57-.57a273.58,273.58,0,0,0-31.19,46c-.2.47.47.89.73.42Z" transform="translate(-181.77 -6.7)" style="fill:#191919"/><path d="M362.2,313.05c13.35-1.4,26.7.27,40,2,.52.05.46-.73,0-.78-13.25-1.78-26.6-3.5-40-2-.47.05-.47.84,0,.78Z" transform="translate(-181.77 -6.7)" style="fill:#191919"/><path d="M368.93,305.44a165.69,165.69,0,0,1,37.65,2.87c.46.1.67-.68.2-.73a167.44,167.44,0,0,0-37.85-2.87c-.47,0-.47.73,0,.73Z" transform="translate(-181.77 -6.7)" style="fill:#191919"/><path d="M375,298.09a118.8,118.8,0,0,1,36.13,3.23c.47.11.68-.62.21-.73A118.51,118.51,0,0,0,375,297.31c-.52.05-.52.83,0,.78Z" transform="translate(-181.77 -6.7)" style="fill:#191919"/><path d="M381.23,290.74a175.51,175.51,0,0,1,34.68,3.6c.47.1.68-.68.21-.73a177.54,177.54,0,0,0-34.89-3.6c-.47-.05-.47.73,0,.73Z" transform="translate(-181.77 -6.7)" style="fill:#191919"/><path d="M387.44,283.91a162.71,162.71,0,0,1,32.95,4c.47.1.68-.63.21-.73a161,161,0,0,0-33.16-4c-.52-.06-.52.73,0,.73Z" transform="translate(-181.77 -6.7)" style="fill:#191919"/><path d="M423.21,291.83c-5.11,7.51-10.17,15-15.28,22.53-.26.42.42.83.68.42,5.11-7.51,10.17-15,15.28-22.53.31-.47-.37-.83-.68-.42Z" transform="translate(-181.77 -6.7)" style="fill:#191919"/><path d="M336.86,280.47c6.52-2.77,13.56-1.2,20.44-1.31a32.42,32.42,0,0,0,16.27-4.59.4.4,0,0,0-.42-.67c-6.1,3.59-12.56,4.74-19.55,4.43-5.84-.26-11.63-.84-17.16,1.51-.41.16-.05.83.42.63Z" transform="translate(-181.77 -6.7)" style="fill:#191919"/><path d="M354.43,277.23c11.16-6.31,16.32-19.6,27.95-25.18.47-.21.05-.89-.42-.68C370.28,257,365.17,270.25,354,276.55a.4.4,0,0,0,.41.68Z" transform="translate(-181.77 -6.7)" style="fill:#191919"/><path d="M368.62,240.05c-1.93-1.51-1.62-4-.53-5.89a7.36,7.36,0,0,1,2.19-2.5c1.62-1,3.13-.21,4.38.89.37.31.94-.21.58-.58-2.61-2.19-5.06-2-7.2.84-1.72,2.29-2.61,5.73,0,7.82.42.31,1-.26.58-.58Z" transform="translate(-181.77 -6.7)" style="fill:#191919"/></g><g id="torso"><path d="M529.22,201.94c-14.29,15.85-18.15,33.27-20.24,43.12-3.8,18.25.21,25.55.47,60.23.11,14.75-.52,26.69-1,34.2,3.24,2.5,23.26,17.42,50,12.52,19.81-3.6,31.75-16,35.51-20.24.88-4.95,2.14-12.25,3.6-21.11,7.71-47.82,11.52-72.07,6.72-89.43-2.87-10.53-10-27.22-30.08-44.48C565.77,178.53,545.48,184,529.22,201.94Z" transform="translate(-181.77 -6.7)" style="fill:#ec615b"/><path d="M543.76,192.34a241,241,0,0,1,9.18,36.76c4.12,24.56,10.33,61.38-7.14,97A111.53,111.53,0,0,1,529.11,351a67.88,67.88,0,0,0,32.33-.36,69,69,0,0,0,32-18.72c3.39-19.4,6.1-36,8.18-49,3.6-22.84,4.43-29.78,4.07-39.53-.42-12.51-1-25.65-8.5-39.84a72.17,72.17,0,0,0-23.52-25.86,59.9,59.9,0,0,0-19.76,7.15A66.5,66.5,0,0,0,543.76,192.34Z" transform="translate(-181.77 -6.7)" style="fill:#6c6d6d;opacity:0.1899999976158142;isolation:isolate"/><path d="M603,217.22c-.94.05,1,14.49-2,34.41a157.59,157.59,0,0,1-31,71.49,155.47,155.47,0,0,1-28.62,28.26,55.67,55.67,0,0,0,18.71-.37c17.58-3.28,28.74-14.07,33-18.71,1.1-6.37,2.87-16.33,5.11-28.63,5.27-28.78,6.31-32.23,7.14-41.19C607.64,238,604.09,217.22,603,217.22Z" transform="translate(-181.77 -6.7)" style="fill:#6c6d6d;opacity:0.18000000715255737;isolation:isolate"/></g><g id="hand_l" data-name="hand l"><path d="M437.34,256c-1-.68-3-1.93-2.76-3,.41-1.67,6.41-1.93,10.74-1.2A26.28,26.28,0,0,1,459.14,259C452.88,259.92,443.86,260.18,437.34,256Z" transform="translate(-181.77 -6.7)" style="fill:#fff;stroke:#191919;stroke-miterlimit:10;stroke-width:2px"/><path d="M584.54,206c-10.48-3.08-22.73,11.05-23.83,12.41-4.17,5-5.16,8.49-9.07,18.09-9.49,23.46-14.45,35.3-23.83,41.45a36.41,36.41,0,0,1-19.56,5.74c-9.85-.05-18-5-33.84-14.76-13.34-8.29-14.7-10.79-22.42-12.88-3.91-1-15.38-4.17-24.3,1.93-5.68,3.86-9.17,11.06-7.61,12.88,2,2.35,12.62-3.18,12.67-3a21.71,21.71,0,0,0-5.89,3.49c-1.41,1.2-3.91,3.81-3.34,4.75,1,1.77,10.53-6.36,19-3.34,5.74,2,6.05,7.51,12.78,9.65a17.65,17.65,0,0,0,10.11-.11,73.77,73.77,0,0,0,17.16,18.1c5.06,3.75,22.89,16.68,47.66,14.75,26.28-2,42.23-19.39,47.19-24.77,2.86-3.07,23.67-26.38,20.49-56.73C597.42,228.74,595.39,209.24,584.54,206Z" transform="translate(-181.77 -6.7)" style="fill:#fff;stroke:#191919;stroke-miterlimit:10;stroke-width:2px"/><path d="M583.39,206c-4,1.3,1,15.43-3,33.94-3.81,17.78-13.82,29.77-18.36,35.25-6.1,7.35-14.07,16.95-27.68,21.85-18.25,6.57-38.75,1.93-52.46-6.68-4.07-2.6-7.51-9.33-16.63-14.6a65,65,0,0,0-10.95-4.85c-9.18-3.33-17.42-6.36-25.81-3.7-4,1.25-7.62,3.65-7.41,4.07s4.85-1,9-2.45c-5.58,5.26-6.62,6.88-6.36,7.3s2-.68,5.89-2c4.28-1.51,7.25-2.5,10.69-1.66a12.87,12.87,0,0,1,3.76,1.66c2.86,1.78,3.33,3.5,6.15,5.53a16.82,16.82,0,0,0,4.12,2.19,19.11,19.11,0,0,0,10.53.84c3.55,5.11,20,27.74,48.81,31.91a68.23,68.23,0,0,0,31.23-3c25.45-8.24,38.33-28,41.66-33.42,10.33-16.9,17.37-43.28,6.73-62.26C590.8,211.12,586.1,205.12,583.39,206Z" transform="translate(-181.77 -6.7)" style="fill:#6c6d6d;opacity:0.25;isolation:isolate"/><path d="M421,271a23.82,23.82,0,0,1,9.75-6.21.59.59,0,0,0-.31-1.14,26,26,0,0,0-10.28,6.51c-.52.58.32,1.41.84.84Z" transform="translate(-181.77 -6.7)" style="fill:#191919"/><path d="M422.9,264c2.76-3.08,6.62-4.28,10.48-5.37a.6.6,0,0,0-.32-1.15c-4,1.2-8.08,2.51-10.95,5.69a.57.57,0,1,0,.79.83Z" transform="translate(-181.77 -6.7)" style="fill:#191919"/><path d="M596.27,228.43a203,203,0,0,1-8.86,22.31c-8.4,17.89-16,34-30.71,45.42-18.2,14.08-40,15.28-52.25,14.7a56.74,56.74,0,0,0,20.28,4.33c34.52.73,58.71-32,66.22-46.67a58.75,58.75,0,0,0,5.32-40.09Z" transform="translate(-181.77 -6.7)" style="fill:#6c6d6d;opacity:0.28999999165534973;isolation:isolate"/><path d="M443.75,272.28a51.23,51.23,0,0,0,23.31,8.86c-8.39,2.77-12.3,1.67-14.34,0-1.25-1-2.55-3-6.46-6.57C445.27,273.58,444.38,272.8,443.75,272.28Z" transform="translate(-181.77 -6.7)" style="fill:#6c6d6d;opacity:0.25999999046325684;isolation:isolate"/></g><g id="head"><path d="M503.72,100.83c-.58,3.34-1.15,6.68-1.62,10.17a290.48,290.48,0,0,0-2.92,40.05c2.87-.32,5.69-.63,8.55-.89A35.23,35.23,0,0,0,513,173.05a34.75,34.75,0,0,0,17.57,13.82c-.31,5.11-.57,10.17-.88,15.28a121.94,121.94,0,0,1,23-16.17,117.42,117.42,0,0,1,20.49-8.65,52.54,52.54,0,0,1-10.37-20.76c-1.88-7.82-1.51-14.54-1.15-20.49a95.67,95.67,0,0,1,2-14.7c2.46-11.16-4-28.84-16.73-35.2S515.55,85.19,503.72,100.83Z" transform="translate(-181.77 -6.7)" style="fill:#fff;stroke:#161616;stroke-miterlimit:10;stroke-width:2px"/><path d="M506.53,150.52c1.46-.2,3-.36,4.44-.52.52-.05.52-.83,0-.78-1.57.16-3.08.37-4.64.57-.47,0-.27.79.2.73Z" transform="translate(-181.77 -6.7)" style="fill:#161616"/><path d="M553.57,108.91c-6.31,1.62-7.46,7.1-15.44,18.52s-13.19,18.82-22.31,23c-5.9,2.71-8.82,2-11.42,5.48-4.49,6.05-1.46,16,1.2,21.12,3.07,5.89,7.76,9.43,11.62,12.35a53,53,0,0,0,9.49,5.69c-2.55-3.91-2.71-5.11-2.4-5.48.84-.83,4.38,3.65,8.56,3.08,1.2-.16,3.33-.84,8.08-8.29,3.23-5.06,5.42-8.55,6.88-13.56,3.18-10.74-1.3-13.66,0-27.79.21-2.14,1.67-18.88,7.61-20,2.14-.42,4.33,1.35,5.37,2.71,2.19,2.87,1.93,7.46-.78,11.42.89-.63,9.39-6.36,9.28-15.7,0-1.46,0-6.83-4.12-10.32C560.55,107.25,554.09,108.81,553.57,108.91Z" transform="translate(-181.77 -6.7)" style="fill:#161616;stroke:#161616;stroke-miterlimit:10;stroke-width:2px"/><ellipse cx="329.77" cy="122.03" rx="2.19" ry="3.91" style="fill:#161616"/><ellipse cx="313.08" cy="123.85" rx="2.19" ry="3.91" style="fill:#161616"/><path d="M491.57,124.14a3.39,3.39,0,0,1,5.16-.21c.73.73,1.83-.42,1.1-1.09a5,5,0,0,0-7.41.21c-.57.78.52,1.87,1.15,1.09Z" transform="translate(-181.77 -6.7)" style="fill:#161616"/><path d="M508.67,121.43a4.07,4.07,0,0,1,5.79.42c.68.73,1.77-.37,1.09-1.1a5.73,5.73,0,0,0-8-.42c-.73.63.37,1.72,1.15,1.1Z" transform="translate(-181.77 -6.7)" style="fill:#161616"/><path d="M502,107a42.66,42.66,0,0,1,6-16.27c1.41-2.24,4.44-7,9.23-10.22,9.18-6.1,23.31-5.63,33.58,1.88,10.07,7.35,15.07,20.49,12.88,33.52Q532.8,111.57,502,107Z" transform="translate(-181.77 -6.7)" style="fill:#5222d0"/><path d="M468.26,107.51q47.48,6.09,95,12.15c3,.36,3-4.33,0-4.7q-47.49-6.09-95-12.15c-3-.41-3,4.28,0,4.7Z" transform="translate(-181.77 -6.7)" style="fill:#161616"/><path d="M528.75,76.74a19.15,19.15,0,0,1,7.51,34.36c9,1.2,18.09,2.46,27.11,3.65a31.75,31.75,0,0,0,.31-10.32,33.07,33.07,0,0,0-9-18.35c-2-2.09-9.23-9.08-19.92-9.7A27.67,27.67,0,0,0,528.75,76.74Z" transform="translate(-181.77 -6.7)" style="fill:#321693"/></g></svg>