<svg id="ac356da0-b129-4ca5-aecc-4700531dd101" xmlns="http://www.w3.org/2000/svg" viewBox="0 0 799.57 629.77"><g id="background"><path d="M369.45,249.48a19.87,19.87,0,0,1,.17,18.89c-.52,1,1,1.86,1.51.87a21.69,21.69,0,0,0-.18-20.63c-.57-1-2-.11-1.5.87Z" transform="translate(-164.72 -16.61)" style="fill:#161616"/><path d="M371.59,249.77c2-1,4.29-2.2,6.55-1.68,3.36.7,3.48,3.42,3.71,6.2.23,3.71.06,7.65-2.38,10.66-.69.87.52,2.09,1.22,1.22,3.36-4.11,3.77-10.55,2.49-15.59-1.62-6.08-8.23-4.4-12.4-2.31-1,.46-.17,2,.81,1.5Z" transform="translate(-164.72 -16.61)" style="fill:#161616"/><path d="M371.59,269.59a9.84,9.84,0,0,0,8.64-3.36c.69-.87-.53-2.09-1.22-1.22a8.2,8.2,0,0,1-7.42,2.9c-1.1-.18-1.1,1.56,0,1.68Z" transform="translate(-164.72 -16.61)" style="fill:#161616"/><path d="M371.07,173.17c.75-1.45,2.84-5.39,5.16-1.74.4.58.4,2.21.52,2.79a6.73,6.73,0,0,0,1.51,3.41c2.89,3,4.92-1.91,7.93-.29,3.83,2-1.16,6.32,2,8.7a2.4,2.4,0,0,0,2.49.23c.58-.23,1.05-.76,1.63-1.05,2.14-.92,2.89,1,3.07,2.67a.9.9,0,0,0,.87.87l1.85.17c1.1.12,1.1-1.62,0-1.73l-1.85-.18.87.87c-.18-1.56-.47-3.59-1.92-4.52s-2.6-.12-4.05.58c-.7.35-1.28,1.51-2.26.12-.35-.53.4-2.15.52-2.73a4.64,4.64,0,0,0,.06-2.66,5,5,0,0,0-3.19-3.13c-1.79-.64-2.66.11-4.29.58-1.44.4-2.89.29-3.41-1.28a9.12,9.12,0,0,1-.29-1.85,9.42,9.42,0,0,0-.76-2.78c-2.37-4.35-6.49-.7-7.94,2.26-.52.81,1,1.68,1.51.69Z" transform="translate(-164.72 -16.61)" style="fill:#161616"/><path d="M382.31,167.78c1.39-1.33,2.67-1.91,4.17-.63,1.22,1,1,1.39,1.34,2.78a3.92,3.92,0,0,0,1.15,2.14,3.53,3.53,0,0,0,3,.64c1-.12,2.26-.81,3.13.29a4.51,4.51,0,0,1,.35,2.32c0,1.74,0,3.82,2,4.46.58.17,1.22-.12,1.74.06.7-.29,1-.12,1.05.63a2.72,2.72,0,0,1,.29,1.51,5.54,5.54,0,0,0,1.85,3.24c.81.76,2-.46,1.22-1.21-1.74-1.62-.53-3.88-2-5.33s-3.89.69-4.41-2.09c-.4-2.14.41-5-2.43-5.79-2-.52-4.17,1.5-5.27-1.28-.47-1.16-.29-2.43-1.1-3.53-1.92-2.49-5.45-1.22-7.36.58-.81.75.46,2,1.27,1.21Z" transform="translate(-164.72 -16.61)" style="fill:#161616"/><path d="M595.77,275.5c-1.74-.17.87-3.59,1.39-3.88a3.36,3.36,0,0,1,4.06.75c2.26,2.43.34,6-2.73,6.37-1.1.12-1.1,1.86,0,1.74a6.06,6.06,0,0,0,5.39-4.52,5.53,5.53,0,0,0-3.24-6.14,5,5,0,0,0-6.09,2c-1.16,1.74-1.45,5.22,1.28,5.45,1,.11,1-1.63-.06-1.74Z" transform="translate(-164.72 -16.61)" style="fill:#161616"/><path d="M584.07,272c-1.22-1.1.23-3.3,1.62-2.08s-.52,2.9-1.86,1.91c-.86-.69-1.73.81-.86,1.51a3.28,3.28,0,0,0,4.17-.47,3,3,0,1,0-4.64-3.94,3.26,3.26,0,0,0,.35,4.23c.81.81,2.09-.4,1.22-1.16Z" transform="translate(-164.72 -16.61)" style="fill:#161616"/><path d="M785.07,197.51a30.18,30.18,0,0,1-13.91,26.94c-.93.58-.06,2.09.87,1.51a31.94,31.94,0,0,0,14.78-28.45c-.06-1.1-1.8-1.1-1.74,0Z" transform="translate(-164.72 -16.61)" style="fill:#161616"/><path d="M786.23,198.78c5.56,4.06,3.3,11.42.23,16.23-2.9,4.57-7.59,10-13.62,9.09-1.1-.17-1.56,1.51-.46,1.68,7.24,1.05,12.75-5,16.11-10.71s4.63-13.39-1.39-17.79c-.93-.64-1.8.87-.87,1.5Z" transform="translate(-164.72 -16.61)" style="fill:#161616"/><path d="M298.47,147.21a44.18,44.18,0,0,1,6.37,19.71c.12,1.1,1.86,1.1,1.74,0a46.31,46.31,0,0,0-6.6-20.57c-.64-1-2.15-.12-1.51.86Z" transform="translate(-164.72 -16.61)" style="fill:#e8e8e8"/><path d="M305.54,145.3a41.7,41.7,0,0,1,5.1,17.56c.05,1.1,1.79,1.1,1.74,0A44,44,0,0,0,307,144.43c-.52-1-2-.11-1.5.87Z" transform="translate(-164.72 -16.61)" style="fill:#e8e8e8"/><path d="M298,158.34a31.38,31.38,0,0,1,16.8-5.16.87.87,0,0,0,0-1.74,33.2,33.2,0,0,0-17.67,5.45c-.93.58-.06,2.09.87,1.45Z" transform="translate(-164.72 -16.61)" style="fill:#e8e8e8"/><path d="M297.83,165.41a55.11,55.11,0,0,1,20.51-7.36c1.1-.17.64-1.85-.46-1.68A56.08,56.08,0,0,0,297,163.9c-.92.58-.06,2.09.87,1.51Z" transform="translate(-164.72 -16.61)" style="fill:#e8e8e8"/><path d="M638.07,194c-2.67,1.34-3.71,4.81-1.45,7.07,1.22,1.22,2.26.87,3.71,1.34.92.29,2,.86,1.79,1.79-.11.64-.75,1.16-1.1,1.68a7.59,7.59,0,0,0-1.5,2.55,3,3,0,0,0,.92,3c1.28,1.1,3,.4,4.35,1.1,2.9,1.39-2.38,7.47,2.09,8.63a.87.87,0,0,0,.46-1.68c-1.86-.46.46-4,.64-5.1a3,3,0,0,0-.82-2.66c-2-1.92-7.76.11-4.8-4.75.92-1.51,2.6-3.37,1.5-5.34a2.39,2.39,0,0,0-1.62-1.15c-.7-.12-1.8,0-2.49-.06-3.07-.18-3.42-3.59-.81-4.93,1-.4.11-1.91-.87-1.45Z" transform="translate(-164.72 -16.61)" style="fill:#e8e8e8"/><path d="M650.93,203.71c-1.91.75-2,2.84-.81,4.4.75,1.1,2,1.33,3,2.09,2.43,1.79.28,3.3-.12,5.39-.7,3.59,3.13,2.37,4.23,4.69.93,1.91.58,4.06,2.95,4.93,1.05.4,1.51-1.28.47-1.69-1.68-.57-1.45-3.76-2.38-5a5,5,0,0,0-1.1-1.1c-.23-.17-.58-.11-.75-.23-.41-.06-.7-.35-.81-.93-.81-.52-.93-1-.24-1.62.53-1.62,1.57-2.61.47-4.29a5.71,5.71,0,0,0-1.8-1.5c-.52-.35-4.29-2.67-2.55-3.36,1-.47.52-2.15-.52-1.74Z" transform="translate(-164.72 -16.61)" style="fill:#e8e8e8"/><path d="M762.88,320.69a6.81,6.81,0,0,1,1-11.64,7.85,7.85,0,0,1,10,3.3,7.77,7.77,0,0,1-3.18,10,7.88,7.88,0,0,1-10.09-3.07c-.58-.92-2.08-.05-1.5.87,2.6,4.35,8.63,6.26,13.09,3.36,4.23-2.78,5.56-9.21,2.44-13.27s-9.22-4.86-13.1-1.68a8.54,8.54,0,0,0,.46,13.68c.87.58,1.74-.93.82-1.57Z" transform="translate(-164.72 -16.61)" style="fill:#e8e8e8"/><path d="M363,337.38c.64-2.08,1.56-2.66,2.66-1.68.29.12.58.29.82.41a3.56,3.56,0,0,0,1.33.17,2.72,2.72,0,0,0,2-1.33c1.45-2.32-.18-4.58-1.62-6.38-.76-.87-2.15-2-2-3.36.23-2.55,1.73-1.5,3-1.68a2.63,2.63,0,0,0,2.2-1.33,3.86,3.86,0,0,0,.23-2.55,11.82,11.82,0,0,1-.23-1.45c-.41-1.21.17-2,1.74-2.26a6.91,6.91,0,0,1,1.91,2c.64.93,2.14.06,1.51-.87-1.57-2.2-6.2-5.21-7-.63-.34,2.31,1.8,4.75-1.62,5.33-1.68.29-2.84.29-3.36,2.26a5,5,0,0,0,1.16,4.46c.46.58,1,1.1,1.45,1.62a5.52,5.52,0,0,1,1.27,2c-.69.7-1.33,1.39-2,2.09-.53.11-1.86-1-2.61-1.05-3.36-.23-5.16,4.29-1.8,5.74,1.1.46,2-1,.93-1.45Z" transform="translate(-164.72 -16.61)" style="fill:#e8e8e8"/><path d="M377.1,334.89c-.93-1.51-2.38-3.82-1.74-5.74.46-1.45,2.43-2.08,3.3-3.24a5.14,5.14,0,0,0-.06-6c-.23.46-.52.87-.75,1.33a6.77,6.77,0,0,0,7.07-4.92c.35-1.1-1.33-1.51-1.68-.47a5,5,0,0,1-5.39,3.65.89.89,0,0,0-.75,1.34,3.64,3.64,0,0,1,.29,3.88c-.7,1-1.63,1.1-2.38,1.85a4.24,4.24,0,0,0-1.33,2.44c-.47,2.37.81,4.75,2,6.72.52,1,2,.11,1.45-.87Z" transform="translate(-164.72 -16.61)" style="fill:#e8e8e8"/><path d="M554.05,35.5a25.1,25.1,0,0,1,5.8,12.23c.17,1.1,1.85.64,1.68-.47a27.15,27.15,0,0,0-6.26-13c-.75-.81-2,.4-1.22,1.27Z" transform="translate(-164.72 -16.61)" style="fill:#e8e8e8"/><path d="M555.56,35.68c2-1.8,9.85-8.87,12.75-6.84,1.44,1,2.72,3.42,3.65,5A36.52,36.52,0,0,1,574.8,40c.34,1,2,.58,1.68-.46a39.41,39.41,0,0,0-3.77-7.82c-1-1.57-2.49-4.23-4.29-5-2-.87-4.52.93-6.2,1.92a45.39,45.39,0,0,0-7.88,5.79c-.81.75.41,2,1.22,1.22Z" transform="translate(-164.72 -16.61)" style="fill:#e8e8e8"/><path d="M561.7,48.83a60.07,60.07,0,0,1,14.89-9.33c1-.46.12-2-.87-1.51a61.86,61.86,0,0,0-15.24,9.62c-.87.7.35,1.91,1.22,1.22Z" transform="translate(-164.72 -16.61)" style="fill:#e8e8e8"/><path d="M571.78,32.49c2.2-1.85,7.13-6.55,9.85-3.48,2,2.2,3.25,5.8,4.41,8.46.46,1.05,2,.12,1.5-.87a64.51,64.51,0,0,0-3.65-7.18c-.69-1.22-1.56-3.07-3-3.59-1.68-.58-3.48.63-4.81,1.44a41.6,41.6,0,0,0-5.5,3.94c-.87.82.4,2,1.21,1.28Z" transform="translate(-164.72 -16.61)" style="fill:#e8e8e8"/><path d="M567.49,43.09A24.3,24.3,0,0,1,574.68,48a.92.92,0,0,0,1.39-.18,24.88,24.88,0,0,1,10-8.34c1-.46.11-2-.87-1.51a26.46,26.46,0,0,0-10.61,8.93l1.39-.18a24.78,24.78,0,0,0-7.53-5.15c-1.1-.41-2,1-.93,1.5Z" transform="translate(-164.72 -16.61)" style="fill:#e8e8e8"/><path d="M580.13,107.52c-.12-.63-.29-1.27-.41-1.91a7.4,7.4,0,0,1,1.68-1.33,11.92,11.92,0,0,0,1.1-.75,5,5,0,0,0,1.51-2,6.37,6.37,0,0,0,.17-3.13c-.06-.35-.11-.76-.17-1.1s.17-5.1,2-3.6c.87.7,2.08-.52,1.21-1.21a2.6,2.6,0,0,0-3.76.23c-2,1.91-1,4.17-.93,6.49.17,3.48-4.35,3.65-4.75,6.84a2.52,2.52,0,0,0,1.91,3.07c1,.23,1.51-1.45.41-1.63Z" transform="translate(-164.72 -16.61)" style="fill:#ec615b"/><path d="M586.5,102.72a2.26,2.26,0,0,0,3.65-1.51c.29-1.57-.75-3-.64-4.58a5.64,5.64,0,0,1,3.59-4.75c1-.41.58-2.09-.46-1.68a7,7,0,0,0-4.23,3.88,6.89,6.89,0,0,0-.64,2.84,9.13,9.13,0,0,0,.12,1.33s.87,4-.12,3.19c-.92-.64-2.14.58-1.27,1.28Z" transform="translate(-164.72 -16.61)" style="fill:#ec615b"/><path d="M437,293.92a1.79,1.79,0,0,1-.41-2.78,3.75,3.75,0,0,1,3.25-1,3.11,3.11,0,0,1,2.37,1.56c.47,1-.23,2.84-1.62,2.67-1.1-.17-1.56,1.51-.46,1.68a3.5,3.5,0,0,0,4-3.07c.34-2.14-1.4-3.88-3.37-4.4a5.31,5.31,0,0,0-5.79,1.91,3.44,3.44,0,0,0,1.22,5,.86.86,0,0,0,.81-1.51Z" transform="translate(-164.72 -16.61)" style="fill:#ec615b"/><path d="M345.46,88.87c.35-1.16.7-2.38,1-3.54l1,.35c.46.06.93.35,1.39.46a3.89,3.89,0,0,0,2,.06c1.5-.52,2-2,2-3.42s-.52-3,.63-4.17a4.16,4.16,0,0,1,3.71-1c4,.92,3.59,6,1.86,8.69-.58.92.92,1.79,1.5.87,1.92-3.07,2.38-7.71-.75-10.2a5.86,5.86,0,0,0-8.05.93c-1.22,1.62-.41,3.07-.76,4.92-.58,3.07-4.92.23-6.89.93-3.71,1.33-2.61,6,.69,6.89,1.22.18,1.68-1.5.64-1.79Z" transform="translate(-164.72 -16.61)" style="fill:#ec615b"/><path d="M722.32,343a3.47,3.47,0,0,1,4-.23.88.88,0,0,0,1.28-1,2.14,2.14,0,0,1,.46-2.78c.41-1.79,1.34-1.91,2.73-.4.4.81,1.56.35,1.62-.47a16.32,16.32,0,0,1,.17-2.31c.18-1.86,1.39-2.32,3.54-1.45.46,1,1.91.11,1.5-.87a3.15,3.15,0,0,0-4.17-1.51c-2.43,1-2.72,3.88-2.78,6.14.52-.17,1.1-.29,1.62-.46a3.38,3.38,0,0,0-4.63-1.51c-2.21,1.16-2.32,3.89-1.74,6,.4-.35.87-.64,1.27-1a5.5,5.5,0,0,0-5.73.23c-.93.63-.06,2.14.87,1.56Z" transform="translate(-164.72 -16.61)" style="fill:#ec615b"/><path d="M677.29,103a8.09,8.09,0,0,0-5.73,6.89c-.41,3.13,1.45,7,4.92,7.36,2.55.23,5.1-2.66,3.54-5-1.68-2.61-4.93-.7-6.26,1.16-3.77,5.39-.41,15.93,7.36,13.44,2.14-.69,4.81-3.3,3.59-5.79-1.51-3.07-4.87.23-5.73,2-1.8,3.59-2.26,8.75,1.44,11.3a5.07,5.07,0,0,0,7.83-2.73c.23-.75-.87-1.56-1.45-.87a7.38,7.38,0,0,0,5.56,12.23c1.1.06,1.1-1.68,0-1.74a5.6,5.6,0,0,1-4.35-9.21c-.46-.29-1-.58-1.44-.87-.87,3.3-4.93,2.78-6.49.35-1.39-2.26-.93-5.33.34-7.59.29-.58,1.86-3.31,2.78-1.57.47.93-1.27,2.26-1.85,2.61a4.66,4.66,0,0,1-5.56-.81,7.63,7.63,0,0,1-1.74-5.85,9.1,9.1,0,0,1,.87-3.31c.23-.34.52-.69.75-1,1.45-1.39,1.39-1-.23,1.27-1.16.12-2.14-3.07-2.2-3.82a7,7,0,0,1,.23-2.2,6.19,6.19,0,0,1,4.29-4.4.9.9,0,0,0-.47-1.74Z" transform="translate(-164.72 -16.61)" style="fill:#ec615b"/><path d="M365.57,138.35a3.58,3.58,0,0,1,.81-3.82c1.16-1.22,2.55-1.05,4-.82a3.68,3.68,0,0,0,2.83-.29,4.73,4.73,0,0,0,1.63-2.08,10.45,10.45,0,0,0,.52-1.74c.06-.41.17-.81.23-1.16.12-1.39,1.1-2,2.9-1.74-.06,1,1.39,1.1,1.68.24a6.52,6.52,0,0,1,2.26-3.54c1.79-1.22,4.34-1,4.69,1.51.17,1.1,1.8.63,1.68-.47a4.3,4.3,0,0,0-5-3.53c-2.9.4-4.46,3.13-5.27,5.62.57.06,1.15.17,1.68.23a2.63,2.63,0,0,0-3.19-2.61c-2.72.35-2.84,3.42-3.42,5.45-.41,1.45-.75,2.55-2.78,2.49-.58,0-1.28-.4-1.91-.4a5.25,5.25,0,0,0-3.07,1,5.48,5.48,0,0,0-2,6.14c.34,1,2,.58,1.68-.52Z" transform="translate(-164.72 -16.61)" style="fill:#5222d0"/><ellipse cx="525.21" cy="169.89" rx="7.53" ry="8.05" style="fill:#5222d0"/><ellipse cx="117.76" cy="174.81" rx="4.98" ry="4.93" style="fill:#5222d0"/><ellipse cx="191.52" cy="384.97" rx="4.17" ry="4.52" style="fill:#5222d0"/><ellipse cx="516.46" cy="179.68" rx="8.75" ry="8.29" style="fill:#ec615b"/><ellipse cx="343.27" cy="4.98" rx="4.46" ry="4.98" style="fill:#ec615b"/><ellipse cx="588.13" cy="268.62" rx="6.26" ry="6.95" style="fill:#ec615b"/><ellipse cx="100.26" cy="226.84" rx="12.52" ry="12.81" style="fill:#ec615b"/></g><g id="background_grey" data-name="background grey"><path d="M352.18,584.5c-11.24-16.91-26.3-35.34-24.33-56.89l-.87.86a11.06,11.06,0,0,1,4.86.93c.64.29,1.57-.17,1.28-1a10.43,10.43,0,0,0-2.78-3.77c-2.15-2.26-2.32-4.58-2.2-7.53a28.39,28.39,0,0,0-2.61-13.27c-.18.4-.35.87-.52,1.27l4.52-1.56a.86.86,0,0,0,.58-1c-3.71-10.78-1.86-22.89-1.05-34q1.31-17.73,3.42-35.34c-.46.23-.87.52-1.33.75,7.76,5,11.93,13.5,15.18,21.79a280.81,280.81,0,0,1,9.56,28.85,294.09,294.09,0,0,1,9.91,96.88c-.06,1.1,1.68,1.1,1.74,0a294.36,294.36,0,0,0-19.7-126.6c-3.42-8.64-7.83-17.27-15.82-22.43-.64-.4-1.22.12-1.34.76q-2.16,18.25-3.47,36.5c-.81,10.95-2.44,22.66,1.16,33.26.17-.35.4-.7.58-1l-4.52,1.56a.88.88,0,0,0-.52,1.28,26,26,0,0,1,2.31,8.05c.24,2.38-.11,4.69.06,7.07a8.55,8.55,0,0,0,1.39,4.52c1.16,1.62,3,2.66,3.71,4.58.41-.35.87-.64,1.27-1a13,13,0,0,0-5.73-1.16.9.9,0,0,0-.87.87c-2,21.9,13.21,40.62,24.62,57.77.64.81,2.15-.06,1.51-1Z" transform="translate(-164.72 -16.61)" style="fill:#e8e8e8"/><path d="M332.54,437.27A382.83,382.83,0,0,1,356,547.89c.63,10.66.81,21.38.58,32.1a.87.87,0,0,0,1.74,0,386.09,386.09,0,0,0-14-112.12c-2.9-10.49-6.31-20.86-10.08-31.06-.35-1-2-.58-1.68.46Z" transform="translate(-164.72 -16.61)" style="fill:#e8e8e8"/><path d="M327.85,473.89a59.09,59.09,0,0,1,20.51,21.56c.52,1,2,.11,1.5-.87a60.58,60.58,0,0,0-21.15-22.19c-.92-.58-1.79.92-.86,1.5Z" transform="translate(-164.72 -16.61)" style="fill:#e8e8e8"/><path d="M329.58,452.51a45.17,45.17,0,0,1,11.88,13.39A.87.87,0,0,0,343,465a47.47,47.47,0,0,0-12.52-14c-.87-.64-1.74.86-.87,1.5Z" transform="translate(-164.72 -16.61)" style="fill:#e8e8e8"/><path d="M355.08,521.52a76.71,76.71,0,0,1,6.08-20.8c.47-1-1-1.91-1.5-.87a79.17,79.17,0,0,0-6.26,21.27c-.18,1,1.5,1.5,1.68.4Z" transform="translate(-164.72 -16.61)" style="fill:#e8e8e8"/><path d="M359.25,488.61c5.33-17.67,14.54-33.66,23.76-49.54-.52-.06-1.05-.12-1.57-.23q7.13,34.76,11.71,69.93l.87-.86-6.09-.35c-.69-.06-1.22,1-.64,1.5,3.48,2.67,3.13,7.3,2.73,11.24-.52,5.22-1.1,10.38-1.68,15.59a11.47,11.47,0,0,1,1.1-.81,21.06,21.06,0,0,0-4.7-.46A.9.9,0,0,0,384,536c4.46,7.65-2.49,15.64-5.73,22.25a71,71,0,0,0-6.38,21.21c-.17,1.1,1.51,1.56,1.68.46a69.79,69.79,0,0,1,8.58-25.21c3.36-5.91,7.24-12.92,3.36-19.58-.23.46-.52.87-.76,1.33a14.62,14.62,0,0,1,4.23.41.89.89,0,0,0,1.11-.81c.63-6,1.56-11.94,1.85-17.91.17-3.71-.35-7.7-3.42-10.14-.23.52-.4,1-.64,1.51l6.09.35a.9.9,0,0,0,.87-.87c-3.07-23.58-7-47.11-11.82-70.4a.87.87,0,0,0-1.57-.23c-9.27,16-18.54,32.15-23.93,49.94-.23.93,1.45,1.39,1.74.35Z" transform="translate(-164.72 -16.61)" style="fill:#e8e8e8"/><path d="M381.38,441a985.88,985.88,0,0,0-12,104.41c-.06,1.1,1.68,1.1,1.74,0A975.51,975.51,0,0,1,383,441.45c.23-1.11-1.45-1.57-1.63-.47Z" transform="translate(-164.72 -16.61)" style="fill:#e8e8e8"/><path d="M363.83,476c2.37,8,5.15,15.93,8.28,23.7.41,1,2.09.57,1.68-.47-3.13-7.76-5.85-15.7-8.28-23.7a.87.87,0,0,0-1.68.47Z" transform="translate(-164.72 -16.61)" style="fill:#e8e8e8"/><path d="M165.78,510.22c19.88-6.54,41.66-10.83,62.64-9.73,10.89.58,21.26,3.94,31.58,7.07,10,3,20,6.14,30.13,9,11.35,3.24,22.82,5.85,34.59,6.66,1.1.06,1.1-1.68,0-1.74-21.67-1.39-42.59-9-63.22-15.3-9.79-3-19.52-6.25-29.78-7.24-10.55-1-21.27,0-31.69,1.45a203,203,0,0,0-34.77,8.11c-1,.35-.52,2,.52,1.68Z" transform="translate(-164.72 -16.61)" style="fill:#e8e8e8"/><path d="M227.61,499.79c16.91-3.71,33.89-7.41,50.58-12.22,16.4-4.75,32.39-12.23,49.48-14.31,1.1-.12,1.1-1.86,0-1.74-16.86,2.08-32.62,9.33-48.84,14.08-17,5-34.31,8.75-51.63,12.57-1.16.17-.7,1.85.41,1.62Z" transform="translate(-164.72 -16.61)" style="fill:#e8e8e8"/><path d="M352.76,469.32c4.64-.29,9.33-.35,14-.18,1.11.06,1.11-1.68,0-1.74-4.69-.17-9.32-.11-14,.18-1.1.11-1.1,1.85,0,1.74Z" transform="translate(-164.72 -16.61)" style="fill:#e8e8e8"/><path d="M188,578.77c19.47-2.78,38.76,2.14,57.89,5.16A151.3,151.3,0,0,0,273.38,586c10.31-.29,20.63-1.33,30.83.46,1.1.18,1.56-1.5.46-1.68-10-1.73-20.05-.86-30.19-.52A155.38,155.38,0,0,1,244.24,582c-18.78-3.08-37.61-7.54-56.67-4.81-1.1.11-.64,1.79.46,1.62Z" transform="translate(-164.72 -16.61)" style="fill:#e8e8e8"/><path d="M303.8,601.48c.23-1.79,7.13-1,8.34-1,1.51,0,7.07-.87,7.83.75a10.78,10.78,0,0,0,.29-1.22,14.48,14.48,0,0,1-9.39,2.49c-1.1,0-1.1,1.69,0,1.74a16.49,16.49,0,0,0,10.25-2.72.9.9,0,0,0,.29-1.22,2.85,2.85,0,0,0-2.55-1.56c-2.72-.41-5.73-.06-8.45-.06s-8-1-8.41,2.72c-.11,1.16,1.68,1.16,1.8.06Z" transform="translate(-164.72 -16.61)" style="fill:#e8e8e8"/><path d="M305.07,572.8a2.94,2.94,0,0,1-3.41-.52l-.18,1.39a7.79,7.79,0,0,1,5-1.74c1.51.06,2.84.87,4.35.93s2.67-.52,4.06-.7a9.41,9.41,0,0,1,6.2,1.22.87.87,0,0,0,.87-1.51,10.65,10.65,0,0,0-4.58-1.5c-2.38-.24-4.58,1-6.84.75-1.85-.23-3.36-1-5.33-.81a9.16,9.16,0,0,0-4.64,1.91.92.92,0,0,0-.17,1.39,4.88,4.88,0,0,0,5.1,1c1.1-.47.64-2.15-.41-1.8Z" transform="translate(-164.72 -16.61)" style="fill:#e8e8e8"/><path d="M217.23,597.37c3,3.65,6.9.23,10.2-.47,2.73-.58,4.87,1.05,7.53,1.05,2.84,0,5.91-1.34,8.41.46.92.64,1.79-.87.87-1.51a7.13,7.13,0,0,0-5-1.15c-2.78.23-5,.57-7.76-.29a7.69,7.69,0,0,0-5.45,0c-2.32.87-5.62,3.19-7.71.64-.57-.87-1.85.41-1.1,1.22Z" transform="translate(-164.72 -16.61)" style="fill:#e8e8e8"/><path d="M404.39,585.78c3.82-1.51,6.89-1,10.89-.58,2.49.29,4.23-.58,6.43-1.56s3.88-.53,6,.63a8.8,8.8,0,0,0,2.67,1.05c2.95.58,6.95-1.39,9.44.75.87.75,2.09-.52,1.22-1.22-2.21-1.85-4.58-1.45-7.3-1.21a9.55,9.55,0,0,1-5.91-1.34,7.47,7.47,0,0,0-3.6-1.21,9.07,9.07,0,0,0-3.42,1,10.57,10.57,0,0,1-7.06,1,18.3,18.3,0,0,0-9.8.93c-1,.46-.58,2.14.47,1.74Z" transform="translate(-164.72 -16.61)" style="fill:#e8e8e8"/><path d="M785.7,492.72c20.57-9.44,41.26-18.94,62.93-25.55a213.77,213.77,0,0,1,106.09-4.92c1.1.23,1.57-1.45.47-1.68a216,216,0,0,0-69.07-3c-22.83,2.67-44.67,9.39-65.94,18-11.94,4.87-23.7,10.26-35.4,15.65-.93.46-.06,2,.92,1.5Z" transform="translate(-164.72 -16.61)" style="fill:#e8e8e8"/><path d="M879.86,494.64a252.74,252.74,0,0,1,41.66-11.3c7.3-1.34,14.6-2.26,22-3,5.33-.46,15.24-2.72,19.06,2.38.64.87,2.2,0,1.51-.87-3.3-4.4-9-4-14-3.71-7.88.46-15.82,1.33-23.64,2.55A248,248,0,0,0,879.4,493c-1,.4-.58,2.08.46,1.68Z" transform="translate(-164.72 -16.61)" style="fill:#e8e8e8"/><path d="M785.76,457.44a73.06,73.06,0,0,1,47.17,5.39c1,.46,1.91-1.05.87-1.51a75.2,75.2,0,0,0-48.5-5.56c-1.1.23-.64,1.91.46,1.68Z" transform="translate(-164.72 -16.61)" style="fill:#e8e8e8"/><path d="M821.17,537.17c2.49-3,6.43.4,9,1.44a6.82,6.82,0,0,0,5.91-.29c3.37-1.5,6.09-.17,9.45-.29s6.31-3.41,9.5-.52c.81.76,2.09-.46,1.22-1.21a6.4,6.4,0,0,0-6.95-1.28,12.63,12.63,0,0,1-3.83,1.28A25.64,25.64,0,0,1,842,536a13.93,13.93,0,0,0-4.11-.17c-2.2.4-3.94,2.14-6.37,1.5-1.74-.46-3.19-1.68-4.87-2.37-2.38-.93-5.1-1.1-6.84,1-.63.93.58,2.14,1.34,1.28Z" transform="translate(-164.72 -16.61)" style="fill:#e8e8e8"/><path d="M888,581.67a108,108,0,0,1-4.92-36.51c-.47.23-.87.52-1.34.76,1.28.63,2.61,1.27,3.89,1.91a.9.9,0,0,0,1.33-.76,117.94,117.94,0,0,1,7.82-34.76l-1.27.52c.69.35,1.39.7,2.14,1.1a.89.89,0,0,0,1-.11,109.42,109.42,0,0,1,15.07-15.59l-1.39-.18c4.11,5.74,3.82,13.27,3.53,20a122.54,122.54,0,0,1-20,61.89c-.63.92.87,1.79,1.51.87a124.91,124.91,0,0,0,20.34-64.26c.17-6.61.23-13.79-3.83-19.41a.91.91,0,0,0-1.39-.18,106.78,106.78,0,0,0-15.06,15.59,6,6,0,0,1,1-.12c-.7-.34-1.39-.69-2.14-1.1a.9.9,0,0,0-1.28.53,120.49,120.49,0,0,0-7.88,35.22c.47-.23.87-.52,1.33-.75-1.27-.64-2.6-1.27-3.88-1.91a.91.91,0,0,0-1.33.75,109.35,109.35,0,0,0,5,36.91c.35,1.1,2,.64,1.68-.4Z" transform="translate(-164.72 -16.61)" style="fill:#e8e8e8"/><path d="M913.76,537.75a174.9,174.9,0,0,1,13.79-24.28c-.35.11-.64.29-1,.4,3.36.87,5.22-2.2,7-4.52A37,37,0,0,1,945.39,499l-1.27-.52C949.39,515,946,532,936.18,546a192.11,192.11,0,0,1-15.41,18.89c-5.45,5.85-11.42,11.13-18.6,14.78-1,.52-.12,2,.87,1.5,7.3-3.71,13.44-9.09,18.94-15.06a179.44,179.44,0,0,0,16.29-20c9.67-14.2,12.8-31.52,7.53-48a.88.88,0,0,0-1.28-.52,40.69,40.69,0,0,0-8.63,6.37,41.41,41.41,0,0,0-3.3,3.77c-1.28,1.62-3,5.16-5.56,4.52a.86.86,0,0,0-1,.41,175.81,175.81,0,0,0-13.79,24.27c-.46.93,1,1.86,1.51.82Z" transform="translate(-164.72 -16.61)" style="fill:#e8e8e8"/><path d="M905.59,508.37c-4,10.89-8.87,21.84-11.48,33.2-2.66,11.59-4.28,23.47-6.25,35.17-.18,1.1,1.5,1.56,1.68.46,2-11.7,3.59-23.64,6.25-35.17,2.61-11.35,7.48-22.25,11.48-33.2.4-1-1.28-1.5-1.68-.46Z" transform="translate(-164.72 -16.61)" style="fill:#e8e8e8"/><path d="M936.12,517q-9.64,15.48-19.29,30.89c-5.85,9.38-12.17,18.59-16.23,28.91-.4,1,1.28,1.5,1.68.46,4.18-10.49,10.72-19.93,16.69-29.49,6.2-10,12.46-19.93,18.66-30,.58-.92-.93-1.79-1.51-.81Z" transform="translate(-164.72 -16.61)" style="fill:#e8e8e8"/><path d="M890.29,519.15a62.9,62.9,0,0,0,4.11,16.91c.41,1.05,2.09.58,1.68-.46A61.93,61.93,0,0,1,892,519.15c-.12-1.11-1.86-1.16-1.74,0Z" transform="translate(-164.72 -16.61)" style="fill:#e8e8e8"/><path d="M895,547a165.93,165.93,0,0,0,18.49-18.72c.69-.87-.53-2.09-1.22-1.22a165.09,165.09,0,0,1-18.49,18.72c-.86.75.41,2,1.22,1.22Z" transform="translate(-164.72 -16.61)" style="fill:#e8e8e8"/><path d="M921.52,519.49a80,80,0,0,0,.35,17.44c.11,1.1,1.85,1.1,1.74,0a79.48,79.48,0,0,1-.35-17.44c.12-1.16-1.62-1.16-1.74,0Z" transform="translate(-164.72 -16.61)" style="fill:#e8e8e8"/><path d="M239,331.53a20,20,0,0,1-14.37-19.24c.12-9.79,8.92-20.22,19.18-20,10.78.29,16.57,13.39,15.53,22.83-1.22,11.24-12.4,18.31-23.12,15.36a.87.87,0,0,0-.46,1.68,20,20,0,0,0,22.59-8.75c4.64-7.83,3.07-18.2-1.85-25.56s-14.37-9.27-22.08-4.8c-7.36,4.34-12.4,13.32-11.35,21.9a21.8,21.8,0,0,0,15.47,18.19.84.84,0,1,0,.46-1.62Z" transform="translate(-164.72 -16.61)" style="fill:#e8e8e8"/><path d="M221.52,375.51a10.58,10.58,0,0,0,6.95,3.76,9,9,0,0,0,4.29-.52c2.2-.75,4-2.37,6.55-1.91,3.19.52,5.56,2.72,8.92,2.32,3.65-.41,6.84-3,10.66-2.73,3.48.29,6.44,2.67,9.85,3.36,3,.64,4.93-.46,7.48-1.79,6.55-3.48,14,.93,20.86-1.39,1-.35.58-2-.47-1.68-6.14,2-12.57-1.33-18.77.46-3.42,1-5.56,3.54-9.44,2.55-3-.75-5.51-2.55-8.52-3.07-2.84-.52-5.33.46-7.94,1.45a13.7,13.7,0,0,1-4.81,1.22c-2.08,0-3.82-1.16-5.68-1.86-2.66-1-4.63-.64-7.18.52-4.17,1.91-8.4,1.86-11.53-1.91-.7-.87-2,.35-1.22,1.22Z" transform="translate(-164.72 -16.61)" style="fill:#e8e8e8"/><path d="M266.31,360.38c4.58,2.55,9.85-1.21,14.37,1.16,1.8.93,3,2.44,5.16,2.15,1.79-.23,3.18-1.63,4.57-2.67,3.13-2.43,5.68-1.85,9.1-.46a18.79,18.79,0,0,0,7.71,1.62c6.14-.12,12.22-2.78,18.31-.75,1,.34,1.5-1.34.46-1.68-5.21-1.74-10.43-.23-15.7.4a17.69,17.69,0,0,1-9-.81c-2.43-.93-4.87-2.32-7.59-2a9.23,9.23,0,0,0-4.52,2.38c-1.16.92-2.26,2.08-3.82,2.08s-2.5-1.16-3.83-1.85c-4.52-2.49-9.91,1.33-14.37-1.16-.92-.52-1.79,1-.81,1.56Z" transform="translate(-164.72 -16.61)" style="fill:#e8e8e8"/><path d="M780.43,324.23c3.48-.93,6-.93,9,1.1a13.63,13.63,0,0,0,4.87,2.09c3.19.57,6.49-.18,9.56-1,3.76-1,7.59-2.43,11.53-2.43,4.17,0,7.59,2.89,11.82,2.55,7.88-.7,12.8-8.52,21.26-7.59,7.36.81,14.66,5.44,21.91,1.91,1-.47.11-2-.87-1.51-7.54,3.65-15.71-2.49-23.47-2.2-3.53.12-6.55,1.62-9.56,3.36-3.65,2.2-7.65,5.21-12.23,4.11-2.08-.46-3.88-1.62-6-2.08a15.34,15.34,0,0,0-4.87-.18c-3.59.35-7,1.57-10.43,2.5-4,1-8.17,1.79-11.94-.47-1.56-1-3-2.14-4.81-2.49a14.52,14.52,0,0,0-6.31.7c-1,.23-.64,1.91.46,1.62Z" transform="translate(-164.72 -16.61)" style="fill:#e8e8e8"/><path d="M843.53,339.53a11.27,11.27,0,0,1,10.6-.64c2.09.92,3.71,2.14,6.09,2,5.39-.41,9.1-5.16,14.72-2.61,1.68.75,3.3,1.56,5.21,1.28,2.38-.41,4.06-2.32,6.2-3.13,5.27-2,11.24.92,16.75-.29,1.1-.24.63-1.92-.47-1.68-5.44,1.15-11.06-1.63-16.45.17-2.49.81-4.41,3.19-7.13,3.19s-4.87-2.21-7.71-2.15c-5.21.12-9.38,5.33-14.71,2.78-4.76-2.31-9.27-3-14.08-.23-.87.35,0,1.86,1,1.34Z" transform="translate(-164.72 -16.61)" style="fill:#e8e8e8"/><path d="M798.39,426.09c3.71-1.16,6.32-.23,9.68,1.22a9.7,9.7,0,0,0,5.56.58c2.44-.52,4.64-1.68,7-2.32,3.6-.93,5.62,1,8.75,2.26,4.64,1.8,8.4-1.51,12.69-2.55,5.45-1.33,10.43,2.55,15.94,1.74,1.1-.18.63-1.86-.47-1.68-5.33.81-10.14-3-15.53-1.8-2.54.58-4.75,2-7.24,2.72-3.65,1.11-5.73-.86-8.92-2.14-4.35-1.68-8.17,1.1-12.34,2-3,.69-5-.81-7.77-1.74a12.45,12.45,0,0,0-7.82.06.84.84,0,1,0,.46,1.62Z" transform="translate(-164.72 -16.61)" style="fill:#e8e8e8"/><path d="M909.7,602q-116.37,22.24-232.81,44.44L398.3,559.47q185.74.71,371.41,1.34Q839.76,581.41,909.7,602Z" transform="translate(-164.72 -16.61)" style="fill:#666;opacity:0.2199999988079071;isolation:isolate"/><path d="M819.54,580q-98.11,23.57-196.31,47.11-110.72-33.81-221.51-67.68l300.43-25.2Q760.82,557.22,819.54,580Z" transform="translate(-164.72 -16.61)" style="fill:#666;opacity:0.1899999976158142;isolation:isolate"/></g><g id="gift"><path d="M398,384.26q1.31,86.64,2.67,173.36,110,24.86,220,49.66-.18-100.3-.41-200.6Q509.11,395.39,398,384.26Z" transform="translate(-164.72 -16.61)" style="fill:#fff;stroke:#161616;stroke-miterlimit:10;stroke-width:2px"/><path d="M782.17,369l-.87,191.21q-80,23.55-160.15,47-.25-101.43-.52-202.8Q701.38,386.84,782.17,369Z" transform="translate(-164.72 -16.61)" style="fill:#fff;stroke:#161616;stroke-miterlimit:10;stroke-width:2px"/><path d="M618.77,406.1,399,383.33l144.8-36.85q118.37,11.38,236.81,22.83Q699.69,387.64,618.77,406.1Z" transform="translate(-164.72 -16.61)" style="fill:#fff;stroke:#161616;stroke-miterlimit:10;stroke-width:2px"/><path d="M672.43,358.94,616,355.11q-55.62,20.34-111.19,40.68-.53,92.2-1.1,184.43c16.63,4,33.26,7.93,49.89,11.93q-1.05-95.52-2.15-191Q611.93,380.14,672.43,358.94Z" transform="translate(-164.72 -16.61)" style="fill:#161616;stroke:#161616;stroke-miterlimit:10;stroke-width:2px"/><path d="M688.65,586.76c15.36-4.69,30.77-9.38,46.12-14.08q-.78-95.5-1.62-191l-225.68-26.6c-13,3.25-26,6.49-39.06,9.79Q578.79,382,689.23,399.09,689,493,688.65,586.76Z" transform="translate(-164.72 -16.61)" style="fill:#161616;stroke:#161616;stroke-miterlimit:10;stroke-width:2px"/><path d="M692.53,272.6c5.33,2.2,6.2,16,3.31,26.77-11.13,41.31-83.15,58.06-86.57,51.74-1.45-2.72,11-7.88,37-33.72C675,288.88,685.52,269.76,692.53,272.6Z" transform="translate(-164.72 -16.61)" style="fill:#fff;stroke:#161616;stroke-miterlimit:10;stroke-width:2px"/><path d="M544.32,299.78c1.39,6.54,4.81,14.13,26.77,35.23,14.71,14.13,22.13,21.2,24.22,19.81,4.23-2.9-9.8-30.77-23.12-50.64-6.84-10.2-18.83-28-24.92-25.67C542.93,280.13,542.58,291.61,544.32,299.78Z" transform="translate(-164.72 -16.61)" style="fill:#fff;stroke:#161616;stroke-miterlimit:10;stroke-width:2px"/><ellipse cx="434.88" cy="346.15" rx="15.41" ry="16.28" style="fill:#161616;stroke:#161616;stroke-miterlimit:10;stroke-width:2px"/><path d="M599.88,356.15c8.75-8.51,17.62-17.55,26.48-27,19.59-20.86,37-41.43,52.5-61.36,3.36-.4,10-.81,12.75,3,4,5.39-2.38,16.05-5.39,21.09C670.86,317.39,622,344.57,599.88,356.15Z" transform="translate(-164.72 -16.61)" style="fill:#161616;stroke:#161616;stroke-miterlimit:10;stroke-width:2px"/><path d="M547.85,277.64c2.15-2,8.81,2,12.75,4.41,32.68,19.64,36.68,66.11,37.31,74.57C571.26,322.2,542.46,282.68,547.85,277.64Z" transform="translate(-164.72 -16.61)" style="fill:#161616;stroke:#161616;stroke-miterlimit:10;stroke-width:2px"/><path d="M410.12,415.55c26.43.46,53,.34,79.33,1.56,26.65,1.22,53.07,4.92,79.38,9.5,14.83,2.61,29.66,5.45,44.5,8.35,1.1.23,1.56-1.45.46-1.68-26-5-52-10-78.22-13.56-26.54-3.54-53.08-4.7-79.85-5.16-15.18-.23-30.42-.52-45.6-.75a.87.87,0,0,0,0,1.74Z" transform="translate(-164.72 -16.61)" style="fill:#161616"/><path d="M635.23,434.09a1039.25,1039.25,0,0,1,135.47-31c1.1-.18.64-1.86-.47-1.68a1043.6,1043.6,0,0,0-135.46,31,.87.87,0,0,0,.46,1.68Z" transform="translate(-164.72 -16.61)" style="fill:#161616"/><path d="M555.5,513.87v52.61a.87.87,0,0,0,1.74,0V513.87a.87.87,0,0,0-1.74,0Z" transform="translate(-164.72 -16.61)" style="fill:#161616"/><path d="M561.24,556v26.3a.87.87,0,0,0,1.74,0V556a.87.87,0,0,0-1.74,0Z" transform="translate(-164.72 -16.61)" style="fill:#161616"/><path d="M681.18,469.2v42.07a.87.87,0,0,0,1.74,0V469.2a.87.87,0,0,0-1.74,0Z" transform="translate(-164.72 -16.61)" style="fill:#161616"/><path d="M684.31,527.55v28.39a.87.87,0,0,0,1.73,0V527.55a.87.87,0,0,0-1.73,0Z" transform="translate(-164.72 -16.61)" style="fill:#161616"/><path d="M472.53,466.94v22.77a.87.87,0,0,0,1.74,0V466.94a.87.87,0,0,0-1.74,0Z" transform="translate(-164.72 -16.61)" style="fill:#161616"/><path d="M467.6,495.85v18.43a.87.87,0,0,0,1.74,0V495.85a.87.87,0,0,0-1.74,0Z" transform="translate(-164.72 -16.61)" style="fill:#161616"/><path d="M778.46,560q-78.57,23.89-157.14,47.86V408.3q79-18.07,158-36.1Q779,466.07,778.46,560Z" transform="translate(-164.72 -16.61)" style="fill:#666;opacity:0.20999999344348907;isolation:isolate"/><path d="M781.94,560.75l-160,43.8q-.52-87.34-1.1-174.64,35.37,32.43,70.81,64.9,44.83-14.87,89.75-29.72Q781.71,512.88,781.94,560.75Z" transform="translate(-164.72 -16.61)" style="fill:#666;opacity:0.20999999344348907;isolation:isolate"/><path d="M695.14,275.61c-2.84-.57-5.85,18.95-15.76,35-9,14.55-26.88,31.58-66.34,41.43a115.47,115.47,0,0,0,22-4.17c9.44-2.72,49.31-14.31,59.79-45.43C699.08,289.58,697.46,276.08,695.14,275.61Z" transform="translate(-164.72 -16.61)" style="fill:#666;opacity:0.14000000059604645;isolation:isolate"/><path d="M552.08,399.73q25.13,17,50.3,34.07c-15.42-2.67-30.77-5.28-46.18-7.94a766.42,766.42,0,0,0,9.09,103.31c3.88,24.74,8.69,47.74,14,68.84-8.17-2.26-16.39-4.52-24.56-6.84Q553.44,495.47,552.08,399.73Z" transform="translate(-164.72 -16.61)" style="fill:#666;opacity:0.20000000298023224;isolation:isolate"/><path d="M556.14,400.25q36.93-5.31,73.93-10.6-16.25-2.17-32.5-4.29c-7.48,2.78-13.62,4.69-17.91,6a129.66,129.66,0,0,0-12.63,4A101.9,101.9,0,0,0,556.14,400.25Z" transform="translate(-164.72 -16.61)" style="fill:#666;opacity:0.12999999523162842;isolation:isolate"/></g><g id="robot_toy" data-name="robot toy"><path d="M756.73,547.19c-1.62,1.51-3.18,3.07-4.81,4.58q4.19,16.08,8.35,32.16c2.2-1.11,4.46-2.15,6.66-3.25C763.57,569.5,760.15,558.31,756.73,547.19Z" transform="translate(-164.72 -16.61)" style="fill:#161616;stroke:#161616;stroke-miterlimit:10;stroke-width:3px"/><path d="M759.92,542.15l-4.81-1.39c-.29-5.56-.64-11.13-.93-16.69,9.45-3.42,19-6.84,28.4-10.31l2.49.69C776.72,523.67,768.32,532.94,759.92,542.15Z" transform="translate(-164.72 -16.61)" style="fill:#161616;stroke:#161616;stroke-miterlimit:10;stroke-width:3px"/><path d="M759.63,524.07c.23,6.14.52,12.23.75,18.37,8.06-2.32,16-4.58,24.11-6.9.11-6.89.23-13.73.4-20.62C776.43,518,768,521,759.63,524.07Z" transform="translate(-164.72 -16.61)" style="fill:#fff;stroke:#161616;stroke-miterlimit:10;stroke-width:3px"/><path d="M757,547l29.84-7.65a66.38,66.38,0,0,0-.41,10,64.56,64.56,0,0,0,5.33,22.95c-8.28,2.78-16.57,5.62-24.86,8.4C763.57,569.44,760.27,558.26,757,547Z" transform="translate(-164.72 -16.61)" style="fill:#fff;stroke:#161616;stroke-miterlimit:10;stroke-width:3px"/><path d="M767.22,540.35a7,7,0,0,0,.52,3.07c.41,1.05,2.09.58,1.68-.46a7.05,7.05,0,0,1-.46-2.61c.06-1.1-1.68-1.1-1.74,0Z" transform="translate(-164.72 -16.61)" style="fill:#161616"/><path d="M772.55,539.43a5.21,5.21,0,0,0,.41,2.66.85.85,0,0,0,1,.58c.41-.12.81-.64.58-1a4.87,4.87,0,0,1-.35-2.2.84.84,0,1,0-1.68,0Z" transform="translate(-164.72 -16.61)" style="fill:#161616"/><path d="M765.19,582.07c1.22,5.68,6.67,10.84,11.13,14.31a33.31,33.31,0,0,0,16.86,6.78c1.1.12,1.1-1.62,0-1.74a31.34,31.34,0,0,1-16.4-6.89c-3.94-3.25-8.81-7.88-9.91-12.92-.23-1.1-1.91-.64-1.68.46Z" transform="translate(-164.72 -16.61)" style="fill:#161616"/><path d="M769.25,580.56c5.68,8.64,13.21,16.63,23.87,18.37,1.1.18,1.57-1.5.46-1.68-10.25-1.68-17.38-9.27-22.88-17.55a.84.84,0,1,0-1.45.86Z" transform="translate(-164.72 -16.61)" style="fill:#161616"/><path d="M794.05,597.89a21.25,21.25,0,0,1,1.85-5.22,14.88,14.88,0,0,0,1.1-1.91c-.52-1-.69-1-.4.12.11.58.17,1.16.23,1.79a26.67,26.67,0,0,1-.17,4.81c-.06.7,0,3.07-.47,3.6s-1.5.46-2.08.52c-1.1.06-1.1,1.79,0,1.74s2.37.46,3.3-.53.75-3.07.93-4.34a29,29,0,0,0,.17-6.72c-.12-1-.06-2.49-1-3a1,1,0,0,0-.87,0c-2.38,1.86-3.59,6-4.23,8.75a.87.87,0,0,0,1.68.41Z" transform="translate(-164.72 -16.61)" style="fill:#161616"/><path d="M782.63,575.93a24.32,24.32,0,0,0,22.08,8.57c1.1-.17.64-1.79-.46-1.68a22.49,22.49,0,0,1-20.4-8.11c-.69-.87-1.91.35-1.22,1.22Z" transform="translate(-164.72 -16.61)" style="fill:#161616"/><path d="M778,578.13a33.07,33.07,0,0,0,25.26,10.6c1.1-.05,1.1-1.79,0-1.73a31.18,31.18,0,0,1-24-10.09c-.7-.86-2,.41-1.22,1.22Z" transform="translate(-164.72 -16.61)" style="fill:#161616"/><path d="M806,583.4a29.17,29.17,0,0,1,1-3.24c.11-.35,1.16-3.65,1.56-3.65a9.55,9.55,0,0,1-.81-.64c.58,1.74.17,4.17,0,5.91a39.09,39.09,0,0,1-1.27,6.32.87.87,0,0,0,1.68.46,38.36,38.36,0,0,0,1.33-6.78c.17-1.91.58-4.52-.06-6.37a.92.92,0,0,0-.81-.64c-2.61.17-3.77,6.2-4.29,8.17a.84.84,0,1,0,1.62.46Z" transform="translate(-164.72 -16.61)" style="fill:#161616"/><path d="M802.62,588.62a7.45,7.45,0,0,0,4.35.52c1.1-.17.64-1.85-.46-1.68a5.45,5.45,0,0,1-3-.35c-1-.46-1.91,1-.87,1.51Z" transform="translate(-164.72 -16.61)" style="fill:#161616"/><path d="M770.93,589.2a2.5,2.5,0,0,1,2.84-2.09c1.1.12,1.1-1.62,0-1.74a4.2,4.2,0,0,0-4.52,3.36c-.23,1.11,1.45,1.57,1.68.47Z" transform="translate(-164.72 -16.61)" style="fill:#161616"/><path d="M776,594.35a2.79,2.79,0,0,1,2.2-2.2c1.1-.23.64-1.91-.46-1.68a4.43,4.43,0,0,0-3.42,3.36c-.23,1.16,1.39,1.63,1.68.52Z" transform="translate(-164.72 -16.61)" style="fill:#161616"/><path d="M781.42,598.47a3.4,3.4,0,0,1,2.66-2.32c1.1-.23.64-1.91-.46-1.68a5.12,5.12,0,0,0-3.88,3.54c-.35,1,1.33,1.5,1.68.46Z" transform="translate(-164.72 -16.61)" style="fill:#161616"/><path d="M787.1,596.44a4,4,0,0,0-1.68,4.06c.17,1.1,1.85.63,1.68-.47A2.2,2.2,0,0,1,788,598c.93-.64.06-2.15-.86-1.51Z" transform="translate(-164.72 -16.61)" style="fill:#161616"/><path d="M796.08,591.46c-1.1,2.95-.53,6.78-.53,9.91a.87.87,0,0,0,1.74,0c0-3-.58-6.67.47-9.45.34-1-1.34-1.51-1.68-.46Z" transform="translate(-164.72 -16.61)" style="fill:#161616"/><path d="M786.75,582.77a2,2,0,0,1,1.5-2,.87.87,0,0,0-.46-1.68,3.79,3.79,0,0,0-2.78,3.65.87.87,0,0,0,1.74,0Z" transform="translate(-164.72 -16.61)" style="fill:#161616"/><path d="M782.05,579.7a3.16,3.16,0,0,1,2.38-1.68.84.84,0,0,0,.58-1,.79.79,0,0,0-1-.58,4.71,4.71,0,0,0-3.42,2.49c-.47.93,1,1.8,1.5.82Z" transform="translate(-164.72 -16.61)" style="fill:#161616"/><path d="M796.08,586.18a1.2,1.2,0,0,1,.69-1.1c1-.52.12-2-.87-1.5a2.8,2.8,0,0,0-1.5,2.6c-.06,1.11,1.68,1.11,1.68,0Z" transform="translate(-164.72 -16.61)" style="fill:#161616"/><path d="M763.86,531.78h3.48a.87.87,0,0,0,0-1.74h-3.48a.87.87,0,0,0,0,1.74Z" transform="translate(-164.72 -16.61)" style="fill:#161616"/><path d="M777.71,528.07l2.61-2.61c.81-.81-.47-2-1.22-1.22l-2.61,2.61c-.75.76.47,2,1.22,1.22Z" transform="translate(-164.72 -16.61)" style="fill:#161616"/><path d="M771.16,534.33a3.72,3.72,0,0,0,4.23-1.63.87.87,0,0,0-1.51-.86,1.94,1.94,0,0,1-2.26.86.85.85,0,0,0-.46,1.63Z" transform="translate(-164.72 -16.61)" style="fill:#161616"/><path d="M783,552.4l-9,2.61a11.93,11.93,0,0,1-1.16-3.47,11.45,11.45,0,0,1,0-4l9.74-1.91a8.94,8.94,0,0,0-.29,4.17A9.85,9.85,0,0,0,783,552.4Z" transform="translate(-164.72 -16.61)" style="fill:#ec615b"/><path d="M765.66,522.16c.17,5.79.4,11.65.58,17.44,6-1.57,11.93-3.07,17.9-4.64.06-6.37.12-12.69.12-19.06C778.11,518,771.86,520.07,765.66,522.16Z" transform="translate(-164.72 -16.61)" style="fill:#666;opacity:0.23999999463558197;isolation:isolate"/><path d="M765.66,546c.81,3.94,1.85,8.11,3,12.4A183.46,183.46,0,0,0,775,577.26c5.22-1.79,10.38-3.53,15.59-5.33a58.83,58.83,0,0,1-3.48-9.68,57.31,57.31,0,0,1-1.27-21.78C779.16,542.32,772.44,544.18,765.66,546Z" transform="translate(-164.72 -16.61)" style="fill:#666;opacity:0.23999999463558197;isolation:isolate"/></g><g id="hand_r" data-name="hand r"><path d="M461.69,84.87c.23,4.69.64,11.53,1.39,19.7,1.86,20.34,3,37.89,7.65,51.8,3.54,10.49,11.88,30.13,32.74,49.89a63,63,0,0,1-18.66,29A141,141,0,0,1,453.93,191c-11.65-26.54-11.94-50.7-12.17-68.6a228.45,228.45,0,0,1,2.32-35.52c-2.09-2-5.28-5-9.27-8.69-7.3-6.61-10.09-8.75-9.62-9.68s3.42-.75,15.93,3.71C430.35,58.39,425.54,51,426.7,49.87s6.83,3.19,17.44,12.52C436.26,42.8,435,37,436,36.43s5.1,4.17,16.46,23c-1.8-15.18-1.22-18.6-.29-18.83,1.62-.35,5.21,9.1,6.26,11.94a95.4,95.4,0,0,1,4.46,15.82c9.79-7.71,11.76-7,12.22-6.55,1.69,1.5-2.78,9.15-3.88,11.07A49.62,49.62,0,0,1,461.69,84.87Z" transform="translate(-164.72 -16.61)" style="fill:#fff;stroke:#161616;stroke-miterlimit:10;stroke-width:2px"/><path d="M436.55,37.36c-1,.52,2.66,10.25,7.41,18.54,1.33,2.26,2.15,3.36,9.16,13.9,2.84,4.29,5.15,7.77,6.72,10.09a172.09,172.09,0,0,0-4.81,33.6A153.45,153.45,0,0,0,460.71,165,146,146,0,0,0,490,218.54l13.38-12c-19.18-18.43-27.64-36.91-31.52-47.4-5.5-15-7-29.32-8.34-41.83A256.66,256.66,0,0,1,462,85.22a38.64,38.64,0,0,0,10.61-12.69c.69-1.39,4.51-8.75,2.6-10.37s-9.38,3.82-12.46,6.2c-6.77-22.43-9.5-27.47-10.6-27.24-.64.12-.81,2-1,4.93a37.27,37.27,0,0,0,1.56,14C452.6,60.19,452.6,60.19,436.55,37.36Z" transform="translate(-164.72 -16.61)" style="fill:#666;opacity:0.15000000596046448;isolation:isolate"/><path d="M473.63,67.43A28.64,28.64,0,0,0,457.29,90a134.83,134.83,0,0,0,.06,27.4c3.65,35.7,20.39,61.88,31.23,75.85A185.67,185.67,0,0,1,461.92,84.35a65.36,65.36,0,0,0,7.25-9.1A68,68,0,0,0,473.63,67.43Z" transform="translate(-164.72 -16.61)" style="fill:#666;opacity:0.20000000298023224;isolation:isolate"/><path d="M454.33,71.72" transform="translate(-164.72 -16.61)" style="fill:#fff;stroke:#161616;stroke-miterlimit:10;stroke-width:2px"/></g><g id="hand_l" data-name="hand l"><path d="M560.48,203.3c-4,1.86-7.36,3.13-9.33,6.78-3.88,7.13,1.28,16.63,2.55,19A32,32,0,0,0,565.12,241a120.22,120.22,0,0,0,42.93-31.23c19.24-22.07,24.8-45.48,27.7-58.06A152.52,152.52,0,0,0,639.28,110c2.84-4.93,7-11.88,12.23-20.22,4.64-7.42,7.19-11.3,6.2-12.35-.75-.75-3.65-.11-13.91,7.25,3.71-14.43,4.93-21.9,3.6-22.43s-4.87,5.39-10.78,17.62q1.3-25-1.22-25.38c-1.74-.29-4.92,8.81-9.56,27.17-2.72-12.68-4.69-18.94-6-18.83-1.5.18-2,9.16-1.5,26.89-8.75-4.81-13.73-6.55-15-5.1-1.68,2,3.94,10,16.86,24.1a97.89,97.89,0,0,1-1.85,24.4c-1,5.15-8.46,41.43-33.73,55.8C576.53,193.57,568.94,199.36,560.48,203.3Z" transform="translate(-164.72 -16.61)" style="fill:#fff;stroke:#161616;stroke-miterlimit:10;stroke-width:2px"/><path d="M647.4,62.1c-.93-.29-2.49,5-8.87,14.19-1.5,2.21-2.2,3-2.78,4.75-1.56,5,1.22,8.23,1.1,12.46-.11,3-1.68,7.25-8.86,12.34a84.27,84.27,0,0,1,3,18c1.57,29.84-14.08,51.69-19.53,60.79-5.15,8.63-20.56,31-58,44.73a15.9,15.9,0,0,0,4.92,8.63,14.25,14.25,0,0,0,5.91,3.19,116.59,116.59,0,0,0,29.67-17.79A118.49,118.49,0,0,0,624,185.34c16.4-31.17,16.4-61.59,15.29-76.77,3.31-5.22,6.2-9.79,8.46-13.39,8.12-12.86,10.67-17,9.68-18-.52-.52-2.26-.29-7.88,3.54-1.91,1.15-3.82,2.37-5.74,3.53C647.92,67,648.21,62.33,647.4,62.1Z" transform="translate(-164.72 -16.61)" style="fill:#666;opacity:0.1599999964237213;isolation:isolate"/><path d="M649.77,91.88C636.45,100.05,633.32,107,633,112c-.12,2,.23,2.49.63,7.18,0,0-.34,8.58-.23,19.3.18,15.29-6.14,29.14-13.85,45.94a209.51,209.51,0,0,1-19,33.09,130.92,130.92,0,0,0,19.53-24.68c19.81-32.74,19.81-66.12,18.65-82.17C642.41,104.34,646.06,98.08,649.77,91.88Z" transform="translate(-164.72 -16.61)" style="fill:#666;opacity:0.2800000011920929;isolation:isolate"/><path d="M603.24,85.56c12.93,6.61,16.58,7.71,17,7.13s-1.79-2.84-3.76-4.11a28.1,28.1,0,0,0-4.12-2c-3.94-1.68-5-1.8-5.73-1.8A7,7,0,0,0,603.24,85.56Z" transform="translate(-164.72 -16.61)" style="fill:#666;opacity:0.10999999940395355;isolation:isolate"/></g><g id="leg_r" data-name="leg r"><path d="M430.92,450.83c-.46,2.9,2.21,6.32,7.42,13.21a105.3,105.3,0,0,0,7,8.23c-2.61,4.69-7.18,14.78-4.92,26.83.69,3.88,1.91,10.31,5.39,11.12,6,1.45,15-15,18.54-22.71A84.44,84.44,0,0,0,471,465.2c-6-8.11-12.11-16.22-18.13-24.33C440.83,441.91,431.68,445.73,430.92,450.83Z" transform="translate(-164.72 -16.61)" style="fill:#161616;stroke:#161616;stroke-miterlimit:10;stroke-width:2px"/><path d="M501.85,327c3.82,28.8-2.09,40.15-8.75,45-6,4.4-12,3-26.25,7.07A109.17,109.17,0,0,0,438.52,392a86.21,86.21,0,0,0,23.87,48.38,30.83,30.83,0,0,1-15.53,15A30.46,30.46,0,0,1,428.49,457c-9.27-8.57-23.52-24.51-29.95-48-2.61-9.56-5.8-21.91-1.11-35.7,3-8.63,7.54-13.5,16.75-23.23,3-3.19,16.17-16.8,39.46-29.2,13.61-7.25,20.51-10.9,28.68-9.22C492.69,314,499.12,322.66,501.85,327Z" transform="translate(-164.72 -16.61)" style="fill:#ec615b"/><path d="M488.29,325.27c-9.39,5.68-22.43,14-37.49,24.8-26.08,18.77-38,28.8-42.3,39.23-4.17,10.14-1.22,28.68,36.45,65.47a23,23,0,0,0,8.4-3.59,23.63,23.63,0,0,0,8.4-10.43,88,88,0,0,1-23.87-48.38c11.82-8.29,22.19-11.71,29.72-13.27,11.24-2.38,20.34-1.45,27.29-8.63,3.54-3.65,4.93-7.83,6.2-11.65a47.07,47.07,0,0,0,1.16-25.15C497.62,331,492.92,328.11,488.29,325.27Z" transform="translate(-164.72 -16.61)" style="fill:#666;opacity:0.20999999344348907;isolation:isolate"/><path d="M484.81,333.44A86.94,86.94,0,0,1,478.67,351c-10.31,21.55-27.29,33.49-36.74,39.05A75.33,75.33,0,0,1,461,380.84c1.62-.52,3.3-1,21.09-5.62,8.11-2.15,10.43-2.73,12.86-5,1.45-1.39,3.83-4.23,5.68-14.55a93.41,93.41,0,0,0,1.22-22.54Z" transform="translate(-164.72 -16.61)" style="fill:#666;opacity:0.1599999964237213;isolation:isolate"/><path d="M437.94,390.75a76.88,76.88,0,0,0,13,61.47,25.88,25.88,0,0,0,6.55-5.33,26.77,26.77,0,0,0,4.11-6.31,85.41,85.41,0,0,1-23.69-49.83Z" transform="translate(-164.72 -16.61)" style="fill:#666;opacity:0.17000000178813934;isolation:isolate"/></g><g id="leg_l" data-name="leg l"><path d="M471.31,447.93c3.82,5.39,7.71,10.72,11.53,16.11-2.08,5.51-7.36,21.79.41,34.65,1.33,2.2,3.7,6.14,7,6.2,7,.12,12.17-17.26,13.21-20.63a67.79,67.79,0,0,0,2.49-26c-2.61-16.75-14.78-25.79-23.12-23.93C475.19,436,471.72,446.78,471.31,447.93Z" transform="translate(-164.72 -16.61)" style="fill:#161616;stroke:#161616;stroke-miterlimit:10;stroke-width:2px"/><path d="M543,325.1c4.93,31-5.09,41.83-8.74,45-3.42,2.95-6.73,4.11-25.21,10.25-6.89,2.32-17,5.68-29.43,9.74a86.28,86.28,0,0,0,23.87,48.38,30.21,30.21,0,0,1-33.9,16.63c-9.27-8.58-23.52-24.51-29.95-48-2.61-9.56-5.8-21.9-1.1-35.69,3-8.63,7.53-13.5,16.74-23.23,3-3.19,16.17-16.81,39.46-29.21,13.62-7.24,20.51-10.89,28.68-9.21C533.89,312,540.26,320.75,543,325.1Z" transform="translate(-164.72 -16.61)" style="fill:#ec615b"/><path d="M504.86,323.82a92.2,92.2,0,0,1-12.46,24.8c-17.27,24.22-36.73,25.67-42.3,39.23-4.17,10.14-1.21,28.68,36.45,65.47a36.12,36.12,0,0,0,8.17-4.57,35.56,35.56,0,0,0,8.69-9.45,92.41,92.41,0,0,1-13.79-18.6,94.23,94.23,0,0,1-10.72-30.59c13.15-4.46,23.76-7.77,30.83-10,14.13-4.29,21.38-6.14,27-13.27a35.9,35.9,0,0,0,5.85-12.22,48.16,48.16,0,0,0,1.27-22.43C530.88,329.5,517.9,326.66,504.86,323.82Z" transform="translate(-164.72 -16.61)" style="fill:#666;opacity:0.20999999344348907;isolation:isolate"/><path d="M526.41,331.93a80.59,80.59,0,0,1-6.14,17.56c-11.93,24.39-33.2,36.33-43.17,41,10.09-3.18,19.18-6.08,27.12-8.63,0,0,4.12-1.33,14.2-4.92,12.86-4.64,15.06-5.8,17.26-8,3.89-3.94,4.93-8.34,6.49-14.78a63.13,63.13,0,0,0,1.22-22.54C537.77,331.76,532.09,331.88,526.41,331.93Z" transform="translate(-164.72 -16.61)" style="fill:#666;opacity:0.1599999964237213;isolation:isolate"/><path d="M479.54,389.3a76.93,76.93,0,0,0,13,61.47,25.87,25.87,0,0,0,6.54-5.33,26.46,26.46,0,0,0,4.12-6.31,85.49,85.49,0,0,1-23.7-49.83Z" transform="translate(-164.72 -16.61)" style="fill:#666;opacity:0.17000000178813934;isolation:isolate"/></g><g id="torso"><path d="M502,202.43c-11.24,8.35-16.57,21.15-17.79,24.17a61.38,61.38,0,0,0-3.88,15.29,67.51,67.51,0,0,0,.7,21.33,77.42,77.42,0,0,1-16.34,52.26,103.9,103.9,0,0,0,41.25,19.18,102.14,102.14,0,0,0,38,1,415.66,415.66,0,0,0,13.85-48,427,427,0,0,0,7.82-46.58c-2.49-1.22-9.79-5-13.5-13.5-.23-.52-5.56-13.1.35-20.63,3.53-4.46,8.52-3.94,8.52-5.33C561,198,525.6,184.94,502,202.43Z" transform="translate(-164.72 -16.61)" style="fill:#fff;stroke:#161616;stroke-miterlimit:10;stroke-width:2px"/><path d="M517.43,196.35c-1.16,2.09-1.56,7.65-1.56,10.78a41.27,41.27,0,0,0,.75,8.05h0c0,5.16,5.56,30.65,1.68,54.87-4.46,27.81-19.47,49.25-26.77,58.58a87.83,87.83,0,0,0,25.67,7.42,89.74,89.74,0,0,0,26.6-.64c4.17-11.93,8.11-25.09,11.58-39.4a428.65,428.65,0,0,0,9.51-54.12c-3-2-12.52-8.69-14.84-20.34-.63-3.36-1.79-9,1.63-14.13a16.12,16.12,0,0,1,9.73-6.49C538.81,192.47,520.56,190.67,517.43,196.35Z" transform="translate(-164.72 -16.61)" style="fill:#666;opacity:0.12999999523162842;isolation:isolate"/><path d="M550.17,225.44a135.89,135.89,0,0,1-2.2,36.62c-7.24,36.67-27.87,61.18-39,72.54a71.4,71.4,0,0,0,18.2,2.38,72.66,72.66,0,0,0,16.57-1.8,353.17,353.17,0,0,0,19.18-74.57c.92-6.49,1.68-12.81,2.2-19a38.71,38.71,0,0,1-15-16.16Z" transform="translate(-164.72 -16.61)" style="fill:#666;opacity:0.17000000178813934;isolation:isolate"/><path d="M510.65,204.69a16.79,16.79,0,0,0,14.43,9c9.39.24,17-7.82,15.88-10.66C540.2,201,534.47,199.88,510.65,204.69Z" transform="translate(-164.72 -16.61)" style="fill:#666;opacity:0.14000000059604645;isolation:isolate"/></g><g id="head"><path d="M494.66,129.31c-1.85-.17-3.59,9.79-7.59,25.21-6.26,24.27-10,30.53-6.08,38.87.69,1.45,3.47,7.25,9.56,9.57,6.37,2.43,15.58.81,20.05-4.64,10.14-12.4-9.91-38.24-14.2-64.55C496.17,132.61,495.7,129.43,494.66,129.31Z" transform="translate(-164.72 -16.61)" style="fill:#5222d0"/><path d="M511.23,189.92a25.35,25.35,0,0,1,.58,9.38,27.33,27.33,0,0,1-1.5,6.09,34.48,34.48,0,0,0,10.89,1.22,33.07,33.07,0,0,0,12.11-3,56.07,56.07,0,0,1-2.43-6.37A59.72,59.72,0,0,1,528.44,186a14.82,14.82,0,0,1-8.17,4.87A15.15,15.15,0,0,1,511.23,189.92Z" transform="translate(-164.72 -16.61)" style="fill:#fff;stroke:#161616;stroke-miterlimit:10;stroke-width:2px"/><path d="M495.18,136c-5.73,15.07-5.33,35.52,6.14,50.12a39.18,39.18,0,0,0,4.7,5,46.94,46.94,0,0,0,17.84-1.63A26.72,26.72,0,0,0,532,186a25.88,25.88,0,0,0,9.9-13.74,6.12,6.12,0,0,0,4.29,1.68c5.22-.34,10.61-10,7.42-16.51-1.74-3.53-5.45-5-7-5.45-1.16-4.57-5.39-18.71-18.72-26.65-3.42-2-13.67-8.11-22.42-3.94C499.7,124.15,497.44,130.06,495.18,136Z" transform="translate(-164.72 -16.61)" style="fill:#fff;stroke:#161616;stroke-miterlimit:10;stroke-width:2px"/><path d="M512.8,193.39a2.23,2.23,0,0,0-.58.24.86.86,0,0,0,.23,1.68c4.81.46,10.78-2.73,14.66-5.33.93-.64.06-2.15-.87-1.51-3.65,2.43-9.27,5.5-13.79,5.1.06.58.17,1.16.23,1.68a2.6,2.6,0,0,0,.58-.23c1-.35.58-2-.46-1.63Z" transform="translate(-164.72 -16.61)" style="fill:#161616"/><path d="M513,194.21a47.31,47.31,0,0,0,10.84-2.9c1-.41.58-2.09-.47-1.68a47.92,47.92,0,0,1-10.83,2.9c-1.1.17-.64,1.85.46,1.68Z" transform="translate(-164.72 -16.61)" style="fill:#161616"/><path d="M513.2,193.28a11.07,11.07,0,0,0,3.88-.29.87.87,0,0,0-.46-1.68,9.56,9.56,0,0,1-3.42.23c-1.1-.12-1.1,1.62,0,1.74Z" transform="translate(-164.72 -16.61)" style="fill:#161616"/><path d="M523.92,163.61a.87.87,0,0,0,0-1.74.87.87,0,0,0,0,1.74Z" transform="translate(-164.72 -16.61)" style="fill:#161616"/><path d="M529.31,162.74v-.11a.87.87,0,1,0-1.74,0v.11a.89.89,0,0,0,.87.87.93.93,0,0,0,.87-.87Z" transform="translate(-164.72 -16.61)" style="fill:#161616"/><path d="M526.59,167a.87.87,0,0,0,0-1.74.87.87,0,0,0,0,1.74Z" transform="translate(-164.72 -16.61)" style="fill:#161616"/><path d="M496.86,159.67a.87.87,0,0,0,0-1.74.87.87,0,0,0,0,1.74Z" transform="translate(-164.72 -16.61)" style="fill:#161616"/><path d="M501,158.4a.87.87,0,0,0,0-1.74.87.87,0,0,0,0,1.74Z" transform="translate(-164.72 -16.61)" style="fill:#161616"/><path d="M500,162.45a.87.87,0,0,0,0-1.73.87.87,0,1,0,0,1.73Z" transform="translate(-164.72 -16.61)" style="fill:#161616"/><path d="M492.23,146.93a18.82,18.82,0,0,1-1.68-20.28c2.6-5.34,6.54-8.23,9.79-10.49,3-2.15,8.63-6.09,16.63-6.84,10.6-1,18.66,4.17,24.22,7.82a49.71,49.71,0,0,1,16.63,18.08,67.25,67.25,0,0,1,4.17,11c1.56,5,1.56,6.37,4.17,17.85,2.55,11.29,2.9,11.7,2.67,14.19a26,26,0,0,1-7.07,15.18c-7.77,7.88-17.85,7.48-21.27,7.36-4.63-.17-6.6-1.45-7.36-2-4.57-3.3-4.86-9.5-4.86-10.78a25.56,25.56,0,0,0,6.37-5.15,26,26,0,0,0,6.09-12.69c4.46,1.33,8.92-.41,10.77-3.65,2.61-4.75-1-11.65-5.15-12.23-.64-.11-2.38-.17-4.64,1.74a56.61,56.61,0,0,0-11-16.63A57.73,57.73,0,0,0,511.17,126a33.76,33.76,0,0,0-10.25,6.84A31.94,31.94,0,0,0,492.23,146.93Z" transform="translate(-164.72 -16.61)" style="fill:#5222d0"/><path d="M500.05,168.19" transform="translate(-164.72 -16.61)" style="fill:#5222d0"/><path d="M526.41,134.93a37.91,37.91,0,0,1,5.91,20.63c-.34,22.36-21.84,34.88-23.17,35.58,1.39.23,15,2.37,24.39-7.25a26.19,26.19,0,0,0,7-13.73,9.54,9.54,0,0,0,5.74.12c.64-.18,4.35-1.28,5.56-4.76a7.57,7.57,0,0,0,.29-3.82,8.92,8.92,0,0,0-2-5.33,6.12,6.12,0,0,0-3.24-2.2,6.06,6.06,0,0,0-4.93,1.62,56.75,56.75,0,0,0-6.37-11.3A66.83,66.83,0,0,0,526.41,134.93Z" transform="translate(-164.72 -16.61)" style="fill:#666;opacity:0.14000000059604645;isolation:isolate"/><path d="M524.62,205.85c-1.74-4.92-3.48-9.91-5.16-14.83,2.84-.93,5.74-1.91,8.58-2.84,1.56,5.1,3.07,10.26,4.63,15.35C530,204.35,527.34,205.1,524.62,205.85Z" transform="translate(-164.72 -16.61)" style="fill:#666;opacity:0.18000000715255737;isolation:isolate"/><path d="M541.13,167.61a40.18,40.18,0,0,1-28.56,23.29c1.68.12,11.82.81,19.35-5.44a26.85,26.85,0,0,0,6.26-7.77,34.43,34.43,0,0,0,2-5.56A42.55,42.55,0,0,0,541.13,167.61Z" transform="translate(-164.72 -16.61)" style="fill:#666;opacity:0.20999999344348907;isolation:isolate"/><path d="M528.44,205.16c-1.68-5.1-3.3-10.26-5-15.36,1.45-.46,2.9-1,4.34-1.45,1.57,5.1,3.19,10.2,4.76,15.3C531.22,204.11,529.83,204.64,528.44,205.16Z" transform="translate(-164.72 -16.61)" style="fill:#666;opacity:0.18000000715255737;isolation:isolate"/><path d="M511.23,147.1c-1.56,6.2-2.84,12.46-3.88,18.77-.17,1-.52,2.26.58,2.84,1.27.7,4.35-.29,5.68-.58,1.1-.23.64-1.91-.47-1.68a12.81,12.81,0,0,1-3.47.64c-1.16-.17-.87.06-.52-1.28.46-2,.69-4.11,1.1-6.08.81-4.06,1.68-8.11,2.66-12.11.29-1.1-1.39-1.56-1.68-.52Z" transform="translate(-164.72 -16.61)" style="fill:#161616"/><path d="M496.69,153a5.7,5.7,0,0,1,8.52-.17c.58.63,1.5-.29.92-.93a7,7,0,0,0-10.37.17c-.52.64.41,1.57.93.93Z" transform="translate(-164.72 -16.61)" style="fill:#161616"/><path d="M520.5,153.65a6.61,6.61,0,0,1,9.16,2c.46.7,1.56.06,1.1-.63a7.9,7.9,0,0,0-11-2.49c-.7.4,0,1.56.69,1.1Z" transform="translate(-164.72 -16.61)" style="fill:#161616"/><path d="M500.28,143a6.5,6.5,0,0,1,6.43.11.64.64,0,1,0,.64-1.1,7.89,7.89,0,0,0-7.76-.12c-.7.35-.06,1.51.69,1.11Z" transform="translate(-164.72 -16.61)" style="fill:#161616"/><path d="M521.2,143.33a10.19,10.19,0,0,1,7.82,2c.7.52,1.33-.63.64-1.1a11.71,11.71,0,0,0-8.81-2.14c-.81.17-.46,1.39.35,1.27Z" transform="translate(-164.72 -16.61)" style="fill:#161616"/><path d="M502.72,175.49a19,19,0,0,0,18.13-3.82c.64-.52-.29-1.45-.93-.93a17.5,17.5,0,0,1-16.86,3.48c-.81-.29-1.16,1-.34,1.27Z" transform="translate(-164.72 -16.61)" style="fill:#161616"/></g></svg>